<svg width="1500" height="1000" viewBox="0 0 1500 1000" fill="none" xmlns="http://www.w3.org/2000/svg">
<path d="M1241.1 896.7C1192.9 867.1 1178.8 807.7 1177.3 753.6C1177.1 744.6 1175.5 735.2 1179.3 727C1183.1 718.9 1192.8 712.9 1201.1 716.2C1208 718.9 1211.4 726.5 1215.5 732.7C1221 741 1228.8 747.6 1237.9 751.6C1243.8 754.3 1251 755.6 1256.4 752.2C1264 747.4 1264.2 736.6 1263.6 727.7C1262.53 710.967 1261.43 694.267 1260.3 677.6C1259.7 668.7 1259.1 659.5 1261.4 650.8C1263.7 642.2 1269.3 633.9 1277.7 631C1286.1 628.1 1296.9 632.4 1299.3 641C1300.2 644.6 1299.7 648.5 1300.2 652.2C1300.7 655.9 1302.6 659.9 1306.2 660.7C1309.9 661.5 1313.3 658.8 1315.8 656C1324.5 646.4 1330.1 634.4 1335.3 622.4C1340.4 610.5 1345.4 598.3 1353.2 587.9C1361 577.5 1372.1 569 1384.9 567.5C1397.7 566 1411.9 573.1 1415.9 585.5C1419.9 597.9 1413.3 611.2 1405.9 621.9C1394.9 637.8 1381.6 652.1 1366.6 664.1C1363.9 666.3 1361 668.6 1360.1 672C1358.5 678.1 1364.5 683.7 1370.6 685.3C1377.4 687.1 1384.6 686 1391.6 686.4C1398.7 686.8 1406.4 689.4 1409.4 695.9C1413.7 704.8 1406.6 714.9 1399.4 721.6C1385.1 735.1 1368.5 746.1 1350.5 753.9C1344.1 756.7 1337.2 759.3 1332.2 764.2C1327.2 769.2 1324.5 777.4 1328 783.5C1331.6 789.7 1340 791.2 1346.8 789.5C1353.7 787.8 1359.6 783.7 1366 780.8C1378.1 775.4 1394 775.3 1402.5 785.4C1408.1 792.1 1409.2 801.8 1407.1 810.3C1405 818.8 1400.1 826.3 1394.8 833.3C1376.5 857.6 1352.4 877.8 1324.4 889.4C1296.4 901.1 1270.1 905.3 1241.1 896.7Z" fill="#F5F5F5"/>
<path d="M1253 862C1259.3 834.3 1268.7 804.5 1279.7 773.6C1282.43 765.933 1285.13 758.333 1287.8 750.8C1290.5 743.4 1293.2 736 1296.3 728.9C1302.4 714.7 1309.3 701.5 1316.2 689.1C1323.2 676.8 1330.3 665.3 1336.9 654.7C1343.6 644 1350.1 634.2 1356.3 625.6C1368.7 608.1 1380.4 595.3 1388.8 586.8C1393 582.5 1396.3 579.3 1398.6 577.2C1399.73 576.2 1400.6 575.4 1401.2 574.8C1401.8 574.267 1402.13 574 1402.2 574C1402.2 574 1401.93 574.3 1401.4 574.9C1400.73 575.5 1399.87 576.333 1398.8 577.4C1396.6 579.7 1393.3 582.9 1389.2 587.2C1381 595.9 1369.5 608.8 1357.2 626.2C1351.1 634.9 1344.7 644.8 1338.1 655.4C1331.5 666.1 1324.5 677.6 1317.6 689.9C1310.7 702.2 1303.8 715.4 1297.8 729.5C1294.7 736.6 1292.1 743.9 1289.4 751.4C1286.73 758.933 1284 766.533 1281.2 774.2C1270.3 805 1260.9 834.7 1254.5 862.3" fill="#E0E0E0"/>
<path d="M1296.8 728.8C1296.6 728.8 1296.3 727.5 1295.6 725C1295 722.6 1294.2 719 1293.3 714.6C1291.5 705.7 1289.5 693.4 1287.2 679.9C1285 666.3 1282.7 654 1280.8 645.3C1279.9 640.9 1279 637.3 1278.5 634.9C1277.9 632.4 1277.6 631 1277.7 631C1277.8 631 1278.3 632.3 1279.1 634.7C1279.9 637.1 1280.8 640.6 1281.9 645C1284.2 653.7 1286.6 666 1288.9 679.6C1291 693 1293 705.1 1294.5 714.3C1295.23 718.5 1295.83 722.033 1296.3 724.9C1296.7 727.4 1296.9 728.7 1296.8 728.8Z" fill="#E0E0E0"/>
<path d="M1410.6 700.3C1410.6 700.4 1409 700.7 1406.1 701.1C1403.1 701.6 1398.9 702.2 1393.6 703.1C1383.2 704.9 1368.8 707.8 1353 711.8C1337.3 715.8 1323.2 720 1313.1 723.4C1308.1 725 1304 726.4 1301.2 727.4C1298.4 728.4 1296.8 728.9 1296.8 728.8C1296.7 728.7 1298.2 728 1301 726.8C1303.7 725.6 1307.7 724 1312.7 722.2C1322.8 718.6 1336.9 714.2 1352.6 710.2C1368.4 706.2 1382.9 703.4 1393.5 701.9C1398.7 701.2 1403 700.7 1406 700.5C1409 700.2 1410.6 700.2 1410.6 700.3Z" fill="#E0E0E0"/>
<path d="M1254.3 859.8C1254.23 859.8 1253.93 859.334 1253.4 858.4C1252.8 857.334 1252.07 856 1251.2 854.4C1249.3 850.9 1246.7 845.7 1243.5 839.3C1237.1 826.4 1228.9 808.4 1220.1 788.3C1211.3 768.3 1203.3 750.2 1197.2 737.2C1194.2 730.9 1191.8 725.7 1190 721.9C1189.2 720.234 1188.53 718.834 1188 717.7C1187.6 716.7 1187.4 716.2 1187.4 716.2C1187.47 716.2 1187.77 716.634 1188.3 717.5C1188.9 718.634 1189.63 720 1190.5 721.6C1192.4 725.1 1195.1 730.3 1198.3 736.7C1204.6 749.6 1212.8 767.6 1221.6 787.6C1230.4 807.7 1238.5 825.8 1244.5 838.7C1247.5 845 1250 850.2 1251.8 854.1C1252.53 855.767 1253.17 857.167 1253.7 858.3C1254.17 859.234 1254.37 859.734 1254.3 859.8Z" fill="#E0E0E0"/>
<path d="M1404.4 801.2C1404.4 801.267 1403.9 801.5 1402.9 801.9C1401.7 802.367 1400.23 802.967 1398.5 803.7C1394.5 805.3 1389.1 807.4 1382.5 810C1368.9 815.3 1350.3 822.9 1329.7 831.3C1309 839.7 1290.3 847.1 1276.6 852.1C1269.8 854.6 1264.2 856.6 1260.4 857.9C1258.6 858.5 1257.1 859 1255.9 859.4C1254.83 859.734 1254.3 859.867 1254.3 859.8C1254.3 859.734 1254.8 859.5 1255.8 859.1C1256.93 858.634 1258.37 858.034 1260.1 857.3C1264.2 855.7 1269.6 853.6 1276.2 851C1289.8 845.7 1308.4 838.1 1329 829.7C1349.6 821.3 1368.4 813.9 1382.1 808.9C1388.9 806.4 1394.5 804.4 1398.3 803.1C1400.1 802.5 1401.6 802 1402.8 801.6C1403.8 801.267 1404.33 801.134 1404.4 801.2Z" fill="#E0E0E0"/>
<path d="M1256.2 688.399L1258 902.299H1004.2L1018.1 767.299L1014.6 669.499L922.6 650.299L959.1 559.299C970.8 530.799 991.9 506.999 1019.3 492.999C1036.6 484.099 1058.1 476.699 1083.4 475.199L1164.6 479.499C1164.6 479.499 1190.2 477.699 1221.5 488.299C1229.6 491.099 1237.3 494.999 1244.3 499.799C1259.6 510.299 1270.9 525.699 1277.6 542.999L1325.8 666.999C1323.8 669.499 1265.3 683.399 1265.3 683.399L1256.2 688.399Z" fill="#0051C6"/>
<g opacity="0.3">
<path d="M1315.7 650.799C1315.8 651.099 1300.6 655.999 1281.8 661.899C1263 667.699 1247.7 672.199 1247.6 671.899C1247.5 671.699 1262.7 666.699 1281.5 660.899C1300.3 654.999 1315.7 650.499 1315.7 650.799Z" fill="white"/>
</g>
<path d="M1050.2 563.6C1050.1 563.7 1049.6 562.9 1048.6 561.5C1047.7 560.1 1046.3 558.1 1044.5 555.7C1042.6 553.3 1040.3 550.5 1037.6 547.6C1034.8 544.8 1031.6 541.7 1028 538.8C1024.4 536 1020.8 533.5 1017.4 531.4C1014 529.3 1010.8 527.6 1008.1 526.3C1005.3 525 1003.1 524.1 1001.5 523.5C999.9 522.8 999.1 522.5 999.1 522.4C999.1 522.3 1000 522.6 1001.7 523.1C1003.3 523.6 1005.6 524.5 1008.4 525.7C1011.2 526.9 1014.4 528.5 1017.9 530.5C1021.4 532.6 1025 535.1 1028.7 538C1032.3 541 1035.5 544 1038.3 547C1041 550 1043.3 552.8 1045 555.3C1046.8 557.7 1048.2 559.8 1049 561.3C1049.8 562.8 1050.3 563.6 1050.2 563.6Z" fill="#263238"/>
<path d="M1038.2 593.2C1038.5 593.3 1035.7 623.1 1031.9 659.9C1028.1 696.7 1024.8 726.5 1024.5 726.5C1024.2 726.5 1027.1 696.6 1030.9 659.8C1034.6 623 1037.9 593.2 1038.2 593.2Z" fill="#263238"/>
<path d="M1238 537.899C1237.9 537.899 1237.5 535.599 1236.7 531.799C1235.9 528.099 1234.7 522.999 1232.7 517.499C1230.7 511.999 1228.5 507.299 1226.7 503.899C1224.9 500.499 1223.7 498.499 1223.9 498.399C1223.9 498.299 1224.3 498.799 1224.9 499.699C1225.5 500.599 1226.4 501.899 1227.4 503.499C1229.3 506.799 1231.7 511.599 1233.7 517.199C1235.7 522.699 1236.9 527.899 1237.5 531.699C1237.8 533.599 1237.9 535.099 1238 536.199C1238.1 537.299 1238.1 537.899 1238 537.899Z" fill="#263238"/>
<path d="M1243.1 642.299C1243.1 642.299 1242.9 641.299 1242.6 639.399C1242.4 637.499 1242.1 634.699 1241.7 631.299C1241.1 624.499 1240.4 615.099 1240 604.699C1239.7 594.199 1239.7 584.799 1239.9 577.899C1240 574.499 1240.1 571.699 1240.2 569.799C1240.3 567.899 1240.4 566.899 1240.5 566.899C1240.5 566.899 1240.6 567.899 1240.6 569.799C1240.6 571.899 1240.6 574.699 1240.6 577.899C1240.6 584.799 1240.7 594.199 1241.1 604.599C1241.4 614.999 1242 624.399 1242.5 631.299C1242.7 634.499 1242.9 637.199 1243 639.299C1243.2 641.199 1243.2 642.299 1243.1 642.299Z" fill="#263238"/>
<path d="M1120.2 632H1056.2V623.6C1077.5 625.7 1098.9 626.1 1120.2 624.8V632Z" fill="white"/>
<g opacity="0.3">
<path d="M1183.9 486.5C1183.97 486.567 1184.07 487 1184.2 487.8C1184.33 488.733 1184.5 489.967 1184.7 491.5C1185.1 494.7 1185.7 499.5 1186.1 505.5C1187.1 517.5 1187.9 534.6 1188.2 554.8V555.5L1187.5 555.2C1174.8 549 1160.5 542.2 1145.6 534.8C1117.2 520.6 1091.5 507.7 1072.8 498.4C1063.6 493.7 1056.1 489.9 1050.9 487.2C1048.37 485.933 1046.37 484.933 1044.9 484.2C1044.3 483.867 1043.8 483.567 1043.4 483.3C1043.07 483.167 1042.9 483.067 1042.9 483C1042.9 483 1043.07 483.1 1043.4 483.3C1043.8 483.433 1044.33 483.667 1045 484C1046.47 484.667 1048.5 485.633 1051.1 486.9C1056.3 489.5 1063.9 493.2 1073.2 497.7C1091.9 507 1117.6 519.8 1146.1 533.9C1160.9 541.3 1175.2 548.1 1188 554.3L1187.3 554.8C1187.1 534.6 1186.4 517.5 1185.6 505.5C1185.2 499.5 1184.7 494.8 1184.4 491.5C1184.27 489.967 1184.13 488.733 1184 487.8C1183.93 487 1183.9 486.567 1183.9 486.5Z" fill="white"/>
</g>
<g opacity="0.3">
<path d="M1031.1 659.3C1031.1 659.366 1030.73 659.3 1030 659.1C1029.27 658.966 1028.3 658.733 1027.1 658.4C1024.3 657.7 1020.6 656.8 1016.1 655.7C1006.9 653.3 994.1 650.1 980 646.6C965.9 643.2 953 640.3 943.7 638.1C939.2 637.1 935.5 636.3 932.7 635.6C931.5 635.333 930.533 635.1 929.8 634.9C929.067 634.7 928.7 634.6 928.7 634.6C928.767 634.533 929.133 634.566 929.8 634.7C930.6 634.833 931.6 635 932.8 635.2C935.4 635.7 939.2 636.5 943.9 637.4C953.2 639.4 966.1 642.2 980.2 645.6C994.4 649 1007.1 652.4 1016.3 654.9C1020.9 656.2 1024.6 657.3 1027.2 658C1028.33 658.4 1029.3 658.7 1030.1 658.9C1030.77 659.166 1031.1 659.3 1031.1 659.3Z" fill="white"/>
</g>
<path d="M1172.7 471.4C1172.8 471.1 1178.2 474 1183.5 481.9C1188.8 489.7 1193.7 501.8 1196.4 515.8C1197.8 522.8 1198.4 529.5 1198.7 535.7C1198.8 538.8 1198.9 541.7 1198.8 544.4C1198.6 547.2 1198.6 549.7 1198.4 552C1198.13 554.333 1197.9 556.433 1197.7 558.3C1197.4 560.1 1197.1 561.7 1196.9 562.9C1196.4 565.5 1196.1 566.9 1195.9 566.9C1195.8 566.8 1195.9 565.4 1196.1 562.8C1196.23 561.466 1196.37 559.933 1196.5 558.2C1196.63 556.333 1196.77 554.233 1196.9 551.9C1197 549.6 1197 547.1 1197.1 544.4C1197.1 541.7 1196.9 538.8 1196.8 535.8C1196.4 529.7 1195.7 523.1 1194.4 516.2C1191.7 502.5 1187.1 490.4 1182.3 482.7C1179.9 478.8 1177.4 476 1175.6 474.2C1173.8 472.4 1172.6 471.6 1172.7 471.4Z" fill="#263238"/>
<path d="M1081.8 472C1082 472.2 1080.3 474.2 1077.6 478.1C1074.8 481.9 1071.3 487.8 1068.2 495.7C1065 503.5 1062.7 513.3 1061.2 524.4C1059.7 535.5 1059.1 547.9 1058.3 560.9C1057.6 573.8 1057.6 586.2 1057.6 597.5C1057.6 608.7 1057.5 618.9 1057.5 627.4C1057.5 636 1057.3 642.9 1057.1 647.7C1056.8 652.5 1056.5 655.1 1056.3 655.1C1056.1 655.1 1056 652.4 1055.9 647.7C1055.7 642.8 1055.6 635.9 1055.3 627.5C1055.1 618.9 1054.8 608.8 1054.7 597.5C1054.5 586.2 1054.5 573.8 1055.2 560.7C1056 547.7 1056.7 535.3 1058.3 524C1060 512.8 1062.6 502.7 1066.1 494.8C1069.6 486.9 1073.5 481 1076.6 477.3C1079.7 473.6 1081.7 471.9 1081.8 472Z" fill="#263238"/>
<path d="M1216.3 639.2C1216.1 639.2 1216 636.8 1215.9 632.6C1215.8 628.3 1215.7 622.2 1215.6 614.6C1215.53 610.733 1215.5 606.567 1215.5 602.1C1215.4 597.7 1215.6 592.8 1215.2 587.9C1214.8 583.1 1213.6 577.9 1210.1 574C1206.7 570 1201.5 567.4 1196 567.3C1190.5 567.2 1185.2 569.5 1181.3 573C1177.3 576.5 1175.1 581.3 1173.8 586C1172.6 590.7 1172.1 595.5 1171.3 599.9C1170.63 604.367 1170 608.467 1169.4 612.2C1168.2 619.7 1167.1 625.8 1166.4 630C1165.7 634.2 1165.2 636.5 1165 636.5C1164.9 636.4 1165.1 634.1 1165.6 629.9C1166.1 625.6 1166.9 619.5 1167.9 612C1168.43 608.2 1169 604.1 1169.6 599.7C1170.3 595.3 1170.7 590.5 1172 585.5C1173.2 580.6 1175.6 575.3 1179.9 571.5C1184.1 567.7 1189.9 565.1 1196 565.2C1202.2 565.3 1207.9 568.3 1211.6 572.6C1215.5 577 1216.8 582.7 1217.1 587.8C1217.4 592.9 1217.2 597.6 1217.2 602.1C1217.13 606.567 1217.07 610.733 1217 614.6C1216.9 622.2 1216.8 628.3 1216.7 632.6C1216.6 636.8 1216.4 639.2 1216.3 639.2Z" fill="#263238"/>
<path d="M1198.7 547.7C1198.6 554.5 1199.1 561.8 1202.1 567.9C1197.9 566.8 1193.5 566.8 1189.2 567.7C1194.1 562.6 1196.3 554.7 1197 547.7" fill="#263238"/>
<path d="M1216.3 593.2C1216 593.3 1215.7 589.9 1213.2 585.3C1211.9 583 1210 580.5 1207.4 578.3C1204.8 576.2 1201.3 574.4 1197.5 573.7C1193.7 573 1189.9 573.5 1186.7 574.7C1183.5 575.9 1180.9 577.7 1178.9 579.4C1175.1 582.9 1173.8 586.1 1173.4 586C1173.3 585.9 1174 582.4 1177.9 578.4C1179.8 576.4 1182.6 574.3 1186 572.9C1189.4 571.6 1193.6 570.9 1197.9 571.6C1202.1 572.4 1205.9 574.4 1208.6 576.9C1211.4 579.3 1213.3 582.1 1214.5 584.6C1216.9 589.7 1216.5 593.3 1216.3 593.2Z" fill="#263238"/>
<path d="M1256.2 822.401L1242 681.801L1294.2 672.701C1303.2 702.901 1307.1 734.601 1305.6 766.101C1305.1 778.001 1303.6 790.201 1298 800.701C1292.4 811.201 1281.8 819.801 1269.9 819.801L1256.2 822.401Z" fill="#FFBE9D"/>
<path d="M1090.9 641.901L1269.9 632.001L1228.7 831.101L1058.7 837.301L1090.9 641.901Z" fill="#263238"/>
<path d="M1146.2 638.501L1148.8 633.401L1162.3 632.401C1162.3 632.401 1165.8 623.501 1185.2 622.601C1202.5 621.801 1203.3 630.501 1203.3 630.501H1212.6V634.801L1146.2 638.501Z" fill="#455A64"/>
<path d="M1241 773.101L1253.9 769.401C1256.3 768.701 1258.9 768.601 1261.3 769.001C1264.4 769.601 1267.1 771.101 1269.3 773.301C1273.6 777.501 1280.5 784.401 1281.4 786.501C1282.9 789.501 1282.9 794.701 1281.4 796.701C1280 798.601 1284.6 808.501 1284 811.801C1283.4 815.101 1282.6 818.401 1281.4 819.801C1280.3 821.201 1281.4 825.901 1278.6 829.501C1275.7 833.001 1273.1 835.201 1273.1 835.201C1273.1 835.201 1237.7 836.901 1234.3 835.201C1230.8 833.601 1224.8 827.201 1224.8 827.201C1224.8 827.201 1221.6 821.501 1226.5 820.901L1206.3 813.201C1203.9 812.301 1202.5 809.601 1203.4 807.201C1203.7 806.301 1204.3 805.601 1205.2 805.201C1205.2 805.201 1196.2 802.301 1194.1 801.401C1189.9 799.601 1188.3 789.901 1197 791.101C1201.5 791.801 1207.7 793.101 1207.7 793.101C1207.7 793.101 1204.4 787.701 1209 784.501C1211.8 782.601 1224.4 784.901 1224.4 784.901L1241 773.101Z" fill="#FFBE9D"/>
<path d="M1245.5 826.201C1245.5 826.501 1240.7 826.301 1235 824.701C1229.3 823.101 1225.2 820.601 1225.4 820.301C1225.5 820.101 1229.7 822.101 1235.3 823.701C1240.8 825.301 1245.5 825.901 1245.5 826.201Z" fill="#EB996E"/>
<path d="M1237.8 813.7C1237.7 813.9 1230.3 812.3 1221.3 810C1212.3 807.7 1205.1 805.6 1205.2 805.3C1205.2 805.1 1212.6 806.7 1221.6 809C1230.6 811.3 1237.8 813.4 1237.8 813.7Z" fill="#EB996E"/>
<path d="M1242 801.101C1241.9 801.401 1234 799.801 1224.3 797.501C1214.6 795.301 1206.8 793.201 1206.8 792.901C1206.9 792.601 1214.8 794.301 1224.5 796.501C1234.2 798.801 1242 800.901 1242 801.101Z" fill="#EB996E"/>
<path d="M1255.1 785C1255.1 785.2 1253.3 785.7 1250.5 786.5C1248.97 786.9 1247.3 787.333 1245.5 787.8C1244.57 788 1243.6 788.233 1242.6 788.5C1241.5 788.8 1240.3 788.9 1239.2 788.8C1238 788.8 1236.9 788.5 1235.8 788.3C1234.8 788.033 1233.83 787.8 1232.9 787.6C1231.1 787.2 1229.43 786.8 1227.9 786.4C1225 785.7 1223.3 785.2 1223.3 785C1223.3 784.9 1225.1 785.1 1228 785.7C1229.6 785.967 1231.3 786.3 1233.1 786.7C1235 787 1237.1 787.6 1239.2 787.8C1241.4 788 1243.3 787.2 1245.3 786.8C1247.1 786.467 1248.77 786.133 1250.3 785.8C1253.2 785.2 1255 784.9 1255.1 785Z" fill="#EB996E"/>
<path d="M1257.3 791.801C1257.4 791.701 1257.9 792.201 1258.3 793.101C1258.7 794.001 1258.9 795.501 1258.4 797.101C1258 798.601 1256.9 799.701 1256.1 800.201C1255.2 800.801 1254.6 800.901 1254.5 800.801C1254.4 800.501 1256.6 799.401 1257.4 796.801C1258.3 794.101 1257.1 791.901 1257.3 791.801Z" fill="#EB996E"/>
<path d="M1256.6 805.5C1256.8 805.4 1257.6 806.8 1257.5 808.7C1257.4 810.7 1256.5 812 1256.2 811.8C1256 811.7 1256.4 810.4 1256.5 808.7C1256.6 807 1256.3 805.6 1256.6 805.5Z" fill="#EB996E"/>
<path d="M1256.8 820.301C1257.1 820.201 1257.6 821.201 1257.3 822.401C1257.1 823.701 1256.2 824.401 1256 824.201C1255.8 824.001 1256.1 823.201 1256.3 822.201C1256.5 821.301 1256.5 820.401 1256.8 820.301Z" fill="#EB996E"/>
<path d="M1260.7 784.201C1260.6 784.301 1259.3 784.301 1257.3 784.001C1256.1 783.868 1254.87 783.734 1253.6 783.601C1252.2 783.301 1250.8 783.101 1249.3 783.301C1247.9 783.501 1246.5 784.401 1245.4 785.101C1244.3 785.801 1243.4 786.701 1242.4 787.201C1240.6 788.301 1239.2 788.401 1239.2 788.301C1239.1 788.101 1240.4 787.801 1242 786.601C1243.6 785.401 1245.7 783.001 1249.1 782.301C1249.97 782.234 1250.8 782.234 1251.6 782.301C1252.4 782.301 1253.1 782.501 1253.8 782.601C1255 782.868 1256.2 783.101 1257.4 783.301C1259.4 783.701 1260.7 784.101 1260.7 784.201Z" fill="#EB996E"/>
<path d="M1281.1 820.501C1281 820.401 1281.4 819.501 1282 817.901C1282.6 816.301 1283.5 813.901 1283.4 810.901C1283.4 809.401 1283.1 807.701 1282.7 806.001C1282.3 804.201 1281.4 802.401 1281 800.301C1280.5 798.201 1281.1 795.901 1281.4 793.801C1281.7 791.701 1281.3 789.501 1280.3 787.401C1279.3 785.301 1278 783.401 1276.6 781.701C1275.2 779.901 1273.9 778.201 1272.5 776.701C1269.9 773.701 1267 771.301 1264.2 770.201C1261.4 769.001 1258.8 768.901 1257.1 769.101C1255.4 769.301 1254.6 769.801 1254.5 769.701C1254.5 769.634 1254.7 769.501 1255.1 769.301C1255.6 769.101 1256.2 768.901 1257.1 768.701C1258.8 768.301 1261.5 768.301 1264.4 769.501C1267.4 770.601 1270.5 773.001 1273.2 776.101C1274.6 777.601 1276 779.301 1277.4 781.001C1278.8 782.801 1280.2 784.701 1281.2 786.901C1282.3 789.101 1282.8 791.601 1282.4 793.901C1282.1 796.201 1281.5 798.201 1281.9 800.201C1282.3 802.101 1283.1 803.901 1283.5 805.701C1283.9 807.501 1284.2 809.301 1284.2 810.901C1284.1 814.101 1283.1 816.501 1282.4 818.101C1281.7 819.701 1281.2 820.501 1281.1 820.501Z" fill="#EB996E"/>
<path d="M1179.4 776.101L1033.2 828.101L1003.2 837.901C988.7 842.601 972.8 840.201 960.4 831.401C946.7 821.701 939 805.601 940.1 788.801L941.7 764.101L951.2 656.301L1028.8 671.301L1022.6 744.101L1162.1 722.001" fill="#FFBE9D"/>
<path d="M1245.5 708.801C1245.5 708.801 1253.1 705.801 1257.5 708.101C1262 710.401 1259.6 719.001 1259.6 719.001C1259.6 719.001 1264.6 721.501 1264.3 727.901C1264 734.001 1258 737.401 1258 737.401C1258 737.401 1263.6 748.001 1254.8 753.501L1249 756.601C1249 756.601 1249.6 761.901 1249.5 763.901C1249.2 767.701 1229.8 776.601 1229.8 776.601L1176.8 776.101L1162.1 722.001C1162.1 722.001 1196.7 707.101 1206 704.501C1213.5 702.401 1234.7 702.201 1242.6 702.301C1245.1 702.301 1247.1 704.501 1246.6 706.901C1246.4 707.701 1246 708.401 1245.5 708.801Z" fill="#FFBE9D"/>
<path d="M1249.6 707.801C1249.6 707.901 1249 708.101 1248 708.401C1246.9 708.701 1245.3 709.001 1243.4 709.401C1239.5 710.101 1234.1 710.701 1228.1 711.301C1222.1 711.901 1216.7 712.701 1212.9 713.601C1209.1 714.501 1207 715.701 1206.9 715.501C1206.9 715.501 1207.4 715.101 1208.4 714.601C1209.3 714.101 1210.8 713.501 1212.8 712.901C1216.6 711.801 1222 710.901 1228 710.301C1234 709.601 1239.4 709.201 1243.3 708.701C1247.2 708.201 1249.6 707.701 1249.6 707.801Z" fill="#EB996E"/>
<path d="M1259.6 718.701C1259.6 718.801 1258.3 719.601 1255.9 720.601C1253.5 721.501 1250 722.601 1246.2 723.401C1242.3 724.201 1238.8 724.701 1236.3 725.001C1233.7 725.401 1232.2 725.501 1232.1 725.401C1232.1 725.001 1238.3 723.901 1246 722.401C1249.8 721.601 1253.2 720.701 1255.6 719.901C1258 719.101 1259.5 718.501 1259.6 718.701Z" fill="#EB996E"/>
<path d="M1258.1 737.501C1258.2 737.701 1253.2 739.901 1246.7 741.301C1240.2 742.801 1234.8 743.001 1234.8 742.701C1234.8 742.401 1240.1 741.801 1246.5 740.301C1252.9 738.901 1258 737.201 1258.1 737.501Z" fill="#EB996E"/>
<path d="M1254.8 753.501C1254.9 753.801 1251.1 755.501 1246.1 756.701C1241.1 757.901 1236.9 758.101 1236.9 757.801C1236.9 757.501 1240.9 756.901 1245.9 755.701C1250.8 754.501 1254.7 753.201 1254.8 753.501Z" fill="#EB996E"/>
<path d="M1227.2 743.901C1227.2 744.001 1226.6 744.401 1225.5 744.501C1224.5 744.601 1222.9 744.401 1221.5 743.401C1220.2 742.401 1219.4 741.001 1219.2 740.001C1218.9 738.901 1219 738.201 1219.2 738.201C1219.5 738.201 1219.7 740.801 1222.1 742.501C1224.5 744.201 1227.1 743.601 1227.2 743.901Z" fill="#EB996E"/>
<path d="M1226.1 760.701C1226.1 761.001 1224 761.101 1222.2 759.501C1220.3 757.801 1220.2 755.701 1220.5 755.701C1220.8 755.701 1221.3 757.301 1222.9 758.701C1224.4 760.101 1226.1 760.401 1226.1 760.701Z" fill="#EB996E"/>
<path d="M1219.9 726.601C1220 726.901 1218.6 727.401 1217.2 726.301C1215.8 725.301 1215.9 723.801 1216.2 723.801C1216.5 723.801 1216.8 724.801 1217.8 725.501C1218.8 726.301 1219.9 726.301 1219.9 726.601Z" fill="#EB996E"/>
<path d="M1162.1 722.001C1162.1 721.934 1162.23 721.834 1162.5 721.701C1162.83 721.567 1163.27 721.367 1163.8 721.101C1165 720.634 1166.63 719.934 1168.7 719.001C1173 717.101 1179.3 714.401 1187.2 711.101C1191.2 709.501 1195.6 707.801 1200.4 706.001C1202.8 705.101 1205.2 704.101 1208 703.601C1210.7 703.101 1213.5 702.801 1216.4 702.601C1222.2 702.101 1228.3 701.901 1234.8 701.801C1236.4 701.801 1238 701.801 1239.6 701.801C1240.47 701.801 1241.3 701.801 1242.1 701.801C1242.9 701.801 1243.9 701.901 1244.7 702.301C1246.4 703.201 1247.6 705.101 1247 707.201C1246.8 707.601 1246.6 707.701 1246.4 707.801C1246.2 708.001 1246 708.134 1245.8 708.201C1245.4 708.401 1245 708.601 1244.6 708.801C1243.8 709.101 1243 709.401 1242.1 709.701C1241.8 709.701 1241.5 709.601 1241.5 709.301C1241.4 709.001 1241.6 708.801 1241.8 708.701C1243.93 708.034 1246.13 707.534 1248.4 707.201C1250.7 706.901 1253 706.601 1255.4 707.001C1256.6 707.201 1257.9 707.501 1258.9 708.401C1259.8 709.401 1260.3 710.601 1260.6 711.801C1261 714.301 1260.7 716.701 1260.1 719.101L1259.8 718.501C1261 719.101 1261.9 720.001 1262.8 721.101C1264.8 723.801 1265.3 727.401 1264.3 730.601C1263.2 733.701 1260.9 736.101 1258.2 737.801L1258.4 737.101C1259.8 740.001 1260.5 743.201 1260.1 746.401C1259.7 749.501 1257.7 752.301 1255.1 753.901C1253.1 754.967 1251.13 756.034 1249.2 757.101L1249.5 756.601C1249.63 758.001 1249.77 759.401 1249.9 760.801C1249.9 761.467 1249.93 762.134 1250 762.801C1250 763.201 1249.97 763.567 1249.9 763.901C1249.9 764.301 1249.7 764.701 1249.5 765.001C1248.7 766.301 1247.6 767.101 1246.5 767.901C1245.43 768.701 1244.33 769.434 1243.2 770.101C1238.7 772.801 1234.3 775.001 1230 777.001C1229.93 777.067 1229.87 777.101 1229.8 777.101C1213.8 776.801 1200.5 776.601 1191.2 776.501C1186.7 776.401 1183.1 776.301 1180.5 776.201C1179.37 776.201 1178.43 776.167 1177.7 776.101C1177.1 776.101 1176.8 776.101 1176.8 776.101C1176.8 776.034 1177.1 776.001 1177.7 776.001C1178.43 776.001 1179.37 776.001 1180.5 776.001C1183.1 776.001 1186.7 776.001 1191.2 776.001C1200.5 776.001 1213.8 776.101 1229.8 776.201H1229.7C1233.9 774.201 1238.3 772.001 1242.7 769.301C1243.83 768.634 1244.9 767.934 1245.9 767.201C1247 766.401 1248 765.501 1248.7 764.501C1248.9 764.301 1249 764.001 1249 763.801C1249 763.534 1249 763.234 1249 762.901C1249 762.167 1248.97 761.467 1248.9 760.801C1248.77 759.467 1248.63 758.101 1248.5 756.701C1248.5 756.501 1248.6 756.301 1248.8 756.201C1250.67 755.201 1252.6 754.167 1254.6 753.101C1256.9 751.601 1258.8 749.101 1259.1 746.201C1259.5 743.401 1258.8 740.301 1257.5 737.601C1257.4 737.401 1257.5 737.101 1257.7 736.901C1260.2 735.401 1262.4 733.101 1263.3 730.201C1264.2 727.401 1263.8 724.101 1261.9 721.701C1261.2 720.801 1260.3 719.901 1259.4 719.401C1259.1 719.301 1259 719.101 1259.1 718.801C1259.6 716.601 1259.9 714.201 1259.5 712.001C1259.3 710.901 1258.9 709.901 1258.1 709.201C1257.4 708.501 1256.3 708.201 1255.3 708.001C1253.1 707.701 1250.8 707.901 1248.6 708.201C1246.4 708.501 1244.2 709.001 1242.1 709.601L1241.8 708.701C1242.6 708.501 1243.4 708.201 1244.2 707.901C1244.6 707.701 1244.97 707.501 1245.3 707.301C1245.7 707.201 1246 706.801 1246.1 706.801C1246.1 706.201 1246.2 705.401 1245.8 704.701C1245.5 704.101 1244.9 703.501 1244.3 703.201C1243.6 702.801 1242.9 702.701 1242.1 702.801C1241.3 702.801 1240.47 702.801 1239.6 702.801C1238 702.801 1236.4 702.801 1234.8 702.801C1228.4 702.901 1222.2 703.001 1216.5 703.401C1213.6 703.701 1210.8 703.901 1208.1 704.401C1205.5 704.901 1203 705.901 1200.6 706.701C1195.8 708.401 1191.5 710.201 1187.5 711.701C1179.6 714.901 1173.3 717.501 1168.9 719.301C1166.77 720.167 1165.1 720.834 1163.9 721.301C1163.37 721.501 1162.93 721.667 1162.6 721.801C1162.27 721.934 1162.1 722.001 1162.1 722.001Z" fill="#EB996E"/>
<path d="M1023.1 744.001C1023.3 744.301 1017.6 747.001 1012.8 752.901C1007.9 758.701 1006.3 764.801 1006 764.601C1005.8 764.601 1006.1 763.101 1007 760.701C1007.9 758.301 1009.6 755.201 1012 752.201C1014.5 749.201 1017.3 747.001 1019.5 745.701C1021.6 744.401 1023.1 743.901 1023.1 744.001Z" fill="#EB996E"/>
<path d="M1210.3 402.5C1209.8 440.3 1171.9 446.1 1171.9 446.1L1174.6 528.8L1086.3 487.3C1083.9 486.2 1082.3 483.9 1082.2 481.2L1075.4 323.7C1072.1 284.4 1092.2 249.8 1131.6 247.5H1135.2C1172 247.6 1202.5 275.9 1205.4 312.5C1208 346.6 1210.6 384.2 1210.3 402.5Z" fill="#FFBE9D"/>
<path d="M1172 455.4C1134.3 458.7 1122.7 431.5 1122.7 431.5C1148.1 447.5 1172.2 446.1 1172.2 446.1L1172 455.4Z" fill="#EB996E"/>
<path d="M1192 335.999C1192 338.899 1189.7 341.299 1186.7 341.399C1183.8 341.599 1181.3 339.399 1181.2 336.599C1181.1 333.699 1183.4 331.299 1186.4 331.099C1189.4 330.999 1191.9 333.099 1192 335.999Z" fill="#263238"/>
<path d="M1197.2 330.999C1196.5 331.699 1192.4 328.699 1186.6 328.699C1180.8 328.599 1176.5 331.599 1175.9 330.899C1175.6 330.499 1176.3 329.299 1178.1 327.899C1180 326.599 1183.1 325.299 1186.7 325.299C1190.3 325.299 1193.4 326.699 1195.1 327.999C1196.9 329.399 1197.5 330.699 1197.2 330.999Z" fill="#263238"/>
<path d="M1134.8 337.799C1134.9 340.599 1132.6 343.099 1129.6 343.199C1126.6 343.399 1124.1 341.199 1124 338.299C1123.9 335.499 1126.3 332.999 1129.2 332.899C1132.2 332.699 1134.7 334.899 1134.8 337.799Z" fill="#263238"/>
<path d="M1140 331.998C1139.4 332.698 1135.3 329.598 1129.5 329.598C1123.7 329.598 1119.4 332.498 1118.8 331.798C1118.5 331.498 1119.1 330.198 1121 328.898C1122.8 327.498 1126 326.198 1129.6 326.298C1133.2 326.298 1136.2 327.598 1138 328.998C1139.8 330.398 1140.4 331.698 1140 331.998Z" fill="#263238"/>
<path d="M1161.1 375.098C1161 374.798 1164.6 374.198 1170.5 373.398C1172 373.298 1173.4 372.998 1173.6 371.998C1174 370.898 1173.4 369.298 1172.7 367.598C1171.3 363.998 1169.83 360.232 1168.3 356.298C1162.2 340.198 1157.8 326.898 1158.5 326.698C1159.1 326.398 1164.6 339.298 1170.7 355.398C1172.1 359.398 1173.47 363.198 1174.8 366.798C1175.4 368.498 1176.4 370.398 1175.6 372.598C1175.2 373.698 1174.1 374.498 1173.1 374.798C1172.2 375.098 1171.4 375.098 1170.6 375.098C1164.7 375.398 1161.1 375.498 1161.1 375.098Z" fill="#263238"/>
<path d="M1143.9 379.1C1144.9 379.1 1144.9 385.4 1150.3 389.9C1155.7 394.4 1162.4 393.7 1162.4 394.5C1162.5 394.9 1160.9 395.8 1158.1 395.8C1155.3 395.9 1151.2 395 1147.9 392.3C1144.7 389.5 1143.2 385.9 1143 383.3C1142.8 380.6 1143.5 379.1 1143.9 379.1Z" fill="#263238"/>
<path d="M1141.6 309.2C1141 310.8 1135.2 310 1128.4 310.8C1121.6 311.5 1116.1 313.5 1115.1 312.1C1114.7 311.4 1115.7 309.9 1117.9 308.4C1120.1 306.8 1123.7 305.4 1127.8 304.9C1131.9 304.5 1135.6 305.2 1138.1 306.2C1140.6 307.2 1141.8 308.4 1141.6 309.2Z" fill="#263238"/>
<path d="M1195.1 314.199C1194.1 315.499 1190.1 314.099 1185.2 313.999C1180.4 313.799 1176.4 314.899 1175.4 313.499C1175 312.899 1175.7 311.499 1177.4 310.299C1179.2 308.999 1182.1 307.999 1185.4 308.099C1188.8 308.199 1191.6 309.399 1193.3 310.799C1195 312.199 1195.5 313.499 1195.1 314.199Z" fill="#263238"/>
<path d="M1082.5 388.901C1082.5 389.601 1056.6 395.701 1055.9 369.901C1055.1 344.001 1080.4 351.401 1081.1 351.701C1081.1 351.701 1082.5 388.101 1082.5 388.901Z" fill="#FFBE9D"/>
<path d="M1075.7 380.602C1075 381.202 1073.5 381.802 1071.6 381.402C1067.9 380.402 1065.1 375.602 1064.7 370.402C1064.6 367.802 1065.1 365.202 1066.1 363.202C1066.9 361.102 1068.7 359.202 1070.7 359.002C1071.6 358.902 1072.5 359.102 1073.2 359.602C1073.8 360.102 1074.1 360.702 1074.3 361.202C1074.5 362.302 1074 362.802 1073.9 362.702C1073.8 362.702 1074 362.102 1073.6 361.402C1073.3 360.702 1072.3 359.902 1070.9 360.302C1069.5 360.602 1068.3 361.902 1067.6 363.802C1066.8 365.702 1066.4 368.002 1066.5 370.302C1066.8 375.002 1069.2 379.202 1072 380.202C1073.4 380.602 1074.6 380.402 1075.4 380.002C1076.1 379.602 1076.4 379.202 1076.6 379.302C1076.6 379.302 1076.5 379.902 1075.7 380.602Z" fill="#EB996E"/>
<path d="M1095.7 290.5C1105.3 316.7 1085.1 331.1 1085.1 331.1L1086.2 354.2C1087.1 360 1084.9 364.8 1079 364.8C1079 364.8 1075.9 343.4 1074.3 336.3C1071.1 322.5 1063.3 306.6 1064.9 292.7C1064.9 292.7 1064.9 284.3 1075.1 274.6C1087.8 262.4 1123.6 241 1141.2 241.3C1158.8 241.6 1176 248.3 1190 258.9C1196.5 263.8 1202.5 269.8 1205.9 277.2L1098 274.8C1090.9 278.8 1094.2 288.4 1095.7 290.5Z" fill="#263238"/>
<path d="M1120.7 356.601C1120.3 356.701 1120 356.501 1119.9 356.101C1119.8 355.701 1120.1 355.301 1120.4 355.301C1120.8 355.201 1121.1 355.501 1121.2 355.801C1121.2 356.201 1121 356.601 1120.7 356.601Z" fill="#EB996E"/>
<path d="M1131.8 354.099C1131.4 354.199 1131.1 353.899 1131 353.499C1130.9 352.999 1131.1 352.599 1131.5 352.599C1131.8 352.499 1132.2 352.799 1132.3 353.199C1132.4 353.699 1132.1 354.099 1131.8 354.099Z" fill="#EB996E"/>
<path d="M1139.3 354C1138.9 354 1138.6 353.6 1138.5 353C1138.4 352.4 1138.7 351.9 1139 351.9C1139.4 351.9 1139.7 352.3 1139.8 352.9C1139.8 353.4 1139.6 353.9 1139.3 354Z" fill="#EB996E"/>
<path d="M1126.1 363.601C1125.8 363.601 1125.5 363.401 1125.5 363.201C1125.5 363.001 1125.8 362.801 1126.1 362.801C1126.5 362.801 1126.8 363.001 1126.8 363.201C1126.8 363.401 1126.5 363.601 1126.1 363.601Z" fill="#EB996E"/>
<path d="M1136.3 361.301C1136 361.301 1135.7 361.001 1135.6 360.601C1135.6 360.201 1135.8 359.901 1136.2 359.801C1136.5 359.801 1136.9 360.101 1136.9 360.501C1136.9 360.901 1136.7 361.301 1136.3 361.301Z" fill="#EB996E"/>
<path d="M1189.3 355.1C1189 355.1 1188.7 354.9 1188.6 354.5C1188.5 354.1 1188.7 353.7 1189.1 353.6C1189.4 353.6 1189.8 353.8 1189.8 354.2C1189.9 354.6 1189.7 355 1189.3 355.1Z" fill="#EB996E"/>
<path d="M1196.9 354.401C1196.6 354.401 1196.2 354.101 1196.2 353.601C1196.2 353.201 1196.4 352.801 1196.8 352.801C1197.1 352.701 1197.4 353.101 1197.5 353.501C1197.5 354.001 1197.3 354.401 1196.9 354.401Z" fill="#EB996E"/>
<path d="M1182.7 355.2C1182.3 355.3 1182 355.1 1181.9 354.8C1181.9 354.5 1182.1 354.2 1182.4 354.1C1182.8 354.1 1183.1 354.3 1183.2 354.6C1183.2 354.9 1183 355.2 1182.7 355.2Z" fill="#EB996E"/>
<path d="M1188.3 362.8C1187.9 363 1187.5 362.8 1187.4 362.4C1187.2 362 1187.3 361.6 1187.7 361.5C1188 361.3 1188.4 361.5 1188.5 361.9C1188.7 362.3 1188.6 362.7 1188.3 362.8Z" fill="#EB996E"/>
<path d="M1194.7 361.501C1194.4 361.401 1194.2 361.101 1194.2 360.901C1194.3 360.601 1194.7 360.401 1195 360.501C1195.4 360.601 1195.6 360.901 1195.5 361.201C1195.4 361.501 1195.1 361.601 1194.7 361.501Z" fill="#EB996E"/>
<path d="M1074.4 276.001C1071.6 266.601 1074.3 256.101 1080.4 248.301C1086.5 240.601 1096.4 236.001 1106.2 236.401C1111.3 236.601 1116.3 238.001 1121.3 237.501C1130.6 236.501 1137.8 229.001 1146.5 225.301C1159.9 219.701 1177.1 224.801 1185.2 237.001C1188.5 241.901 1190.7 247.901 1195.7 251.001C1200 253.701 1205.5 253.501 1210.4 254.901C1220.3 257.901 1227 268.401 1226.5 278.701C1226 289.001 1218.8 298.401 1209.3 302.501C1199.8 306.501 1188.5 305.401 1179.5 300.401C1171.4 295.801 1164.1 288.101 1154.8 288.401C1145.1 288.701 1136.7 297.701 1127.2 295.901C1122.3 294.901 1118.5 291.101 1114.8 287.501C1111.2 284.001 1107 280.401 1102 280.101C1096.9 279.801 1094.3 286.801 1096.1 291.501L1074.4 276.001Z" fill="#263238"/>
<path d="M1203.8 263.501C1203.8 263.501 1203.73 263.635 1203.6 263.901C1203.5 264.101 1203.3 264.501 1203 264.901C1202.4 265.801 1201.4 267.101 1199.9 268.501C1198.4 269.801 1196.2 271.201 1193.5 272.201C1190.7 273.101 1187.3 273.501 1183.7 272.801C1180.1 272.001 1176.3 270.101 1173.4 266.901C1170.4 263.701 1168.7 259.301 1165.9 255.501C1164.6 253.601 1162.9 251.901 1160.7 250.801C1158.6 249.701 1156.1 249.201 1153.6 249.201C1151 249.301 1148.5 250.001 1146.2 251.201C1144 252.501 1142.1 254.401 1140.8 256.801C1139.5 259.101 1138.6 261.701 1137 264.001C1135.5 266.401 1132.9 268.101 1130.1 268.201C1127.3 268.401 1124.8 267.401 1122.6 266.101C1120.4 264.801 1118.5 263.001 1116.9 261.301C1113.5 258.001 1110.2 254.601 1106.2 253.701C1102.1 252.801 1098.2 254.201 1095.3 256.301C1092.4 258.301 1090.6 261.101 1089.4 263.601C1088.2 266.201 1087.5 268.601 1087.1 270.601C1086.7 272.501 1086.6 274.101 1086.4 275.101C1086.3 276.201 1086.2 276.801 1086.2 276.801C1086.2 276.734 1086.2 276.568 1086.2 276.301C1086.2 276.034 1086.2 275.635 1086.2 275.101C1086.3 274.101 1086.4 272.501 1086.8 270.501C1087.1 268.501 1087.7 266.001 1088.8 263.401C1090 260.701 1091.9 257.901 1094.9 255.701C1097.8 253.501 1102 251.901 1106.4 252.901C1110.8 253.801 1114.2 257.301 1117.5 260.701C1119.2 262.301 1121 264.001 1123.1 265.201C1125.2 266.401 1127.6 267.401 1130 267.201C1132.5 267.101 1134.8 265.601 1136.2 263.501C1137.6 261.301 1138.6 258.701 1139.9 256.301C1141.2 253.801 1143.3 251.601 1145.7 250.301C1148.2 249.001 1150.9 248.301 1153.5 248.201C1156.2 248.201 1158.9 248.701 1161.2 249.901C1163.5 251.101 1165.3 253.001 1166.7 255.001C1169.5 258.901 1171.2 263.201 1174 266.301C1176.8 269.401 1180.4 271.301 1183.9 272.001C1187.3 272.801 1190.6 272.501 1193.3 271.601C1196 270.801 1198.1 269.401 1199.6 268.201C1202.7 265.601 1203.7 263.401 1203.8 263.501Z" fill="#455A64"/>
<path d="M1223.3 263.9C1223.4 263.9 1223.6 264.6 1223.8 266C1223.9 267.4 1223.9 269.4 1223.2 271.8C1222.6 274.1 1221.3 276.9 1219.2 279.4C1217.1 281.9 1214.1 284.1 1210.7 285.6C1203.7 288.7 1196.6 288.4 1191.8 287.7C1189.4 287.4 1187.5 286.9 1186.2 286.6C1184.9 286.2 1184.2 286 1184.2 285.9C1184.2 285.8 1187.1 286.5 1191.9 287C1196.7 287.5 1203.5 287.6 1210.2 284.6C1213.6 283.2 1216.4 281.1 1218.5 278.8C1220.5 276.4 1221.8 273.8 1222.5 271.6C1223.9 267 1223.1 263.9 1223.3 263.9Z" fill="#455A64"/>
<path d="M1040 659.101C1041.9 652.701 1047.4 646.301 1056.2 646.501C1062.9 646.701 1068.7 652.501 1071.2 658.701C1074.9 667.701 1073.8 682.901 1069.1 690.301C1064.1 698.401 1054.6 697.601 1054.6 697.601C1050.8 697.801 1046.1 694.801 1043.8 691.801C1041.5 688.801 1039.6 684.901 1039.3 680.601" fill="#E0E0E0"/>
<path d="M1040 659.101C1040 659.101 1040.2 657.401 1041.7 654.801C1042.4 653.501 1043.4 651.901 1045 650.501C1046.5 649.001 1048.6 647.601 1051.2 646.801C1052.5 646.401 1053.9 646.201 1055.4 646.101C1056.9 646.101 1058.4 646.201 1060 646.701C1063 647.701 1065.9 649.801 1068.1 652.601C1070.4 655.301 1072.1 658.801 1072.9 662.601C1073.8 666.401 1074.1 670.401 1073.8 674.501C1073.4 680.701 1072.2 687.001 1068.7 691.701C1067 694.001 1064.6 695.701 1062.1 696.701C1059.6 697.701 1057 698.101 1054.6 698.001C1052.6 698.101 1050.8 697.401 1049.2 696.701C1047.7 695.901 1046.3 694.901 1045.2 693.801C1042.9 691.701 1041.7 689.201 1040.8 687.301C1039.9 685.201 1039.6 683.501 1039.4 682.401C1039.33 681.801 1039.3 681.367 1039.3 681.101C1039.23 680.767 1039.23 680.601 1039.3 680.601C1039.4 680.601 1039.4 683.101 1041.2 687.101C1042.2 689.001 1043.5 691.301 1045.7 693.301C1046.8 694.301 1048.1 695.201 1049.6 696.001C1051.1 696.701 1052.8 697.201 1054.6 697.101C1059.2 697.301 1064.6 695.601 1067.9 691.101C1071.2 686.701 1072.4 680.501 1072.8 674.401C1073.2 666.501 1071.9 658.501 1067.4 653.201C1065.2 650.601 1062.6 648.501 1059.7 647.601C1058.3 647.101 1056.8 646.901 1055.4 646.901C1054 646.901 1052.7 647.201 1051.4 647.501C1048.9 648.201 1046.9 649.501 1045.4 650.901C1043.8 652.301 1042.8 653.701 1042 655.001C1040.5 657.501 1040.2 659.201 1040 659.101Z" fill="#263238"/>
<path d="M1035.4 659.501C1037.2 653.101 1042.8 646.701 1051.6 646.901C1058.3 647.101 1064 652.801 1066.5 659.101C1070.2 668.101 1069.1 683.301 1064.5 690.701C1059.4 698.801 1049.9 698.001 1049.9 698.001C1046.1 698.201 1041.4 695.201 1039.1 692.201C1036.8 689.201 1035 685.301 1034.6 681.001" fill="#E0E0E0"/>
<path d="M1035.4 659.501C1035.4 659.501 1035.6 657.801 1037 655.201C1037.7 653.901 1038.7 652.301 1040.3 650.901C1041.8 649.401 1043.9 648.001 1046.5 647.201C1047.8 646.801 1049.2 646.601 1050.7 646.501C1052.2 646.501 1053.8 646.601 1055.3 647.101C1058.4 648.101 1061.2 650.201 1063.5 653.001C1065.7 655.701 1067.4 659.201 1068.3 663.001C1069.1 666.801 1069.4 670.801 1069.1 674.901C1068.7 681.101 1067.5 687.301 1064 692.101C1062.3 694.401 1059.9 696.101 1057.4 697.101C1054.9 698.101 1052.3 698.501 1049.9 698.401H1050C1047.9 698.501 1046.1 697.801 1044.6 697.001C1043 696.301 1041.6 695.301 1040.5 694.201C1038.2 692.101 1037 689.601 1036.1 687.601C1035.2 685.601 1034.9 683.901 1034.7 682.801C1034.63 682.201 1034.6 681.768 1034.6 681.501C1034.6 681.168 1034.6 681.001 1034.6 681.001C1034.7 681.001 1034.7 683.501 1036.5 687.401C1037.5 689.401 1038.8 691.701 1041 693.701C1042.1 694.701 1043.4 695.601 1044.9 696.401C1046.4 697.101 1048.1 697.601 1049.9 697.501H1050C1054.5 697.701 1059.9 696.001 1063.3 691.501C1066.5 687.001 1067.7 680.901 1068.1 674.801C1068.5 666.901 1067.2 658.901 1062.7 653.601C1060.6 650.901 1057.9 648.901 1055 648.001C1053.6 647.501 1052.1 647.301 1050.7 647.301C1049.3 647.301 1048 647.601 1046.7 647.901C1044.2 648.601 1042.2 649.901 1040.7 651.301C1039.2 652.701 1038.1 654.101 1037.3 655.401C1035.8 657.901 1035.5 659.601 1035.4 659.501Z" fill="#263238"/>
<path d="M1045.7 657.9C1049.3 658 1051.8 661.6 1052.7 665.1C1054.1 670.2 1053 676 1049.9 680.4C1048 683.1 1045 685.4 1041.7 685.3C1039.4 685.2 1037.3 684 1035.7 682.4C1034.1 680.7 1033.1 678.6 1032.4 676.5C1030.9 672.3 1030.5 667.5 1032.3 663.4C1034.2 659.4 1038.7 656.4 1043.1 657.3" fill="#E0E0E0"/>
<path d="M1045.7 657.901C1045.7 657.901 1046 657.901 1046.5 657.901C1047 658.001 1047.8 658.201 1048.7 658.701C1050.4 659.601 1052.4 662 1053.2 665.5C1054.1 669 1054 673.5 1052 677.8C1051 679.9 1049.6 682.001 1047.5 683.701C1045.5 685.301 1042.6 686.3 1039.8 685.5C1037 684.7 1034.9 682.7 1033.6 680.5C1032.3 678.2 1031.5 675.9 1031.1 673.6C1030.1 669 1030.9 664.4 1033.1 661.5C1035.2 658.5 1038.1 657.3 1040 657C1041 656.9 1041.8 657 1042.3 657C1042.83 657.134 1043.1 657.234 1043.1 657.3C1043.1 657.4 1042 657.101 1040.1 657.401C1038.3 657.801 1035.6 659.101 1033.7 661.901C1031.7 664.701 1031 669.001 1032 673.401C1032.5 675.601 1033.3 677.901 1034.5 679.901C1035.7 682.001 1037.7 683.8 1040.1 684.5C1042.5 685.2 1045 684.301 1046.9 682.901C1048.8 681.401 1050.2 679.401 1051.1 677.401C1053.1 673.301 1053.2 669.001 1052.5 665.701C1051.8 662.401 1050 660 1048.4 659C1046.8 658 1045.7 658.101 1045.7 657.901Z" fill="#263238"/>
<path d="M1053.2 690.101C1053 690.201 1052.8 689.501 1052.1 688.701C1051.4 687.901 1050.2 687.001 1048.7 686.501C1047.1 686.001 1045.6 685.901 1044.5 685.901C1043.4 685.801 1042.7 685.701 1042.7 685.501C1042.7 685.401 1043.3 685.201 1044.5 685.101C1045.6 685.001 1047.3 685.001 1049 685.501C1050.8 686.101 1052.1 687.201 1052.7 688.301C1053.3 689.301 1053.3 690.101 1053.2 690.101Z" fill="#263238"/>
<path d="M1054.7 654.501C1054.8 654.601 1054.4 655.201 1053.5 656.001C1052.6 656.701 1051.1 657.501 1049.3 657.801C1047.5 658.101 1045.8 657.901 1044.7 657.601C1043.6 657.201 1043 656.801 1043 656.601C1043.1 656.401 1045.8 657.401 1049.1 656.801C1052.4 656.201 1054.5 654.301 1054.7 654.501Z" fill="#263238"/>
<path d="M506.6 356.101C506.2 365.101 494.7 370.101 486.3 367.201C477.8 364.301 472.2 356.401 467.7 348.601C463.2 340.901 459 332.501 451.7 327.301C439.6 318.801 423.1 321.701 408.6 324.701C394 327.701 377.2 329.801 365.8 320.201C356.1 312.001 353.9 297.301 357 284.901C361.7 266.501 376.7 251.201 395 246.201C413.2 241.201 434 246.801 447.3 260.301C452.7 265.801 457 272.501 463.4 276.801C470.6 281.701 479.7 282.901 487.8 286.101C495.9 289.301 503.9 296.001 503.7 304.701" fill="#263238"/>
<path d="M503.1 309.5C502.1 316.8 507.4 323.3 512.7 328.5C517.9 333.6 523.9 339.1 524.8 346.4C525.9 355 519.7 363.4 521.5 371.8C522.6 377.1 526.8 381.2 529.3 386.1C532.8 392.9 533 401.1 530.8 408.5C528.7 415.8 525.2 432.2 520.1 438C506 453.8 483.5 467.4 462.8 472.1C442.1 476.9 420.7 476.9 399.5 475.6C382.2 474.6 362.2 475.4 347.8 451.5C340.3 439.2 336.6 422.8 332.7 408.9C329.2 396.9 326.3 384.1 329.8 372.2C331.9 365.3 336.1 359.1 338.1 352.2C340.7 343.5 339.7 334.2 340.8 325.2C343 305.8 355.1 287.7 372.2 278.2C389.3 268.7 411 268 428.7 276.4" fill="#263238"/>
<path d="M349.1 339.4C350.7 314.6 367.2 284.1 392 286.8L469.3 306.5C476.8 307.3 482.5 313.8 482.3 321.3L473.6 507.9C473.8 507.9 474 507.934 474.2 508C474.2 508 456.6 560.6 405.4 544.5C395.3 541.3 390.6 530.3 388.6 518.8L388.1 518.9C388.1 517.6 388.1 516.3 388.1 515C386.4 501.8 387.8 489.4 387.8 489.4C387.6 474.3 387.6 468.1 387.6 468.3C387.6 468.3 355.9 462.9 349.4 421.5C346.1 400.9 347.3 367.1 349.1 339.4Z" fill="#FFBE9D"/>
<path d="M367 359.597C369.9 359.797 372.2 362.197 372.1 364.997C372 367.797 369.5 369.997 366.6 369.797C363.7 369.597 361.4 367.197 361.5 364.397C361.6 361.597 364.1 359.497 367 359.597Z" fill="#263238"/>
<path d="M358.4 354.098C360.1 352.798 363.1 351.498 366.7 351.498C370.2 351.498 373.3 352.798 375.1 354.098C376.9 355.398 377.6 356.698 377.3 356.998C376.7 357.698 372.5 354.698 366.8 354.798C361 354.798 357 357.698 356.3 356.998C356 356.698 356.6 355.498 358.4 354.098Z" fill="#263238"/>
<path d="M423.2 359.597C426.2 359.797 428.4 362.197 428.3 364.997C428.2 367.797 425.8 369.997 422.9 369.797C419.9 369.597 417.6 367.197 417.7 364.397C417.8 361.597 420.3 359.497 423.2 359.597Z" fill="#263238"/>
<path d="M414.6 355.297C416.3 353.997 419.3 352.697 422.9 352.697C426.5 352.697 429.5 353.997 431.3 355.297C433.2 356.597 433.8 357.897 433.5 358.197C432.9 358.897 428.7 355.897 423 355.997C417.3 355.997 413.2 358.897 412.6 358.197C412.3 357.897 412.9 356.697 414.6 355.297Z" fill="#263238"/>
<path d="M382.3 400.597C381.6 400.497 380.8 400.497 379.8 400.197C378.9 399.997 377.8 399.197 377.4 398.097C376.7 395.897 377.6 393.997 378.2 392.397C379.533 388.797 380.933 385.064 382.4 381.197C388.4 365.297 393.8 352.697 394.4 352.997C395.1 353.197 390.7 366.197 384.7 381.997C383.167 385.864 381.7 389.564 380.3 393.097C379.6 394.797 379 396.397 379.3 397.497C379.6 398.497 381 398.797 382.4 398.897C388.2 399.697 391.7 400.297 391.7 400.597C391.7 400.897 388.1 400.897 382.3 400.597Z" fill="#263238"/>
<path d="M387.6 468.298C387.6 468.298 415.5 470.098 443.2 453.598C443.2 453.598 429.1 482.298 387.7 478.298L387.6 468.298Z" fill="#EB996E"/>
<path d="M394.1 414.397C396.2 411.697 399.8 410.197 403.4 410.597C405.8 410.897 408.3 412.097 409.9 414.097C411.4 416.097 411.7 418.997 410.3 420.897C408.7 423.097 405.5 423.597 402.8 422.797C400.1 421.997 397.7 420.197 395.5 418.397C394.9 417.897 394.2 417.397 393.9 416.697C393.5 415.997 393.4 415.097 393.9 414.597" fill="#EB996E"/>
<path d="M409.4 408.699C409.2 411.199 407.8 414.899 404.6 417.499C401.3 420.199 397.3 421.099 394.5 420.999C391.8 420.899 390.2 420.099 390.3 419.699C390.3 418.799 397 419.599 402.3 415.099C407.6 410.799 407.6 404.499 408.5 404.599C409 404.599 409.7 406.099 409.4 408.699Z" fill="#263238"/>
<path d="M413.5 345.299C415.9 344.299 419.6 343.599 423.7 344.099C427.7 344.499 431.1 345.999 433.3 347.499C435.5 348.999 436.4 350.499 436 351.099C435.1 352.499 429.7 350.599 423 349.899C416.3 348.999 410.6 349.799 410 348.199C409.8 347.499 411 346.299 413.5 345.299Z" fill="#263238"/>
<path d="M360.3 337.199C361.9 335.899 364.8 334.699 368 334.599C371.3 334.499 374.2 335.499 375.9 336.699C377.6 337.999 378.3 339.299 377.9 339.899C376.9 341.299 372.9 340.199 368.2 340.399C363.4 340.399 359.5 341.799 358.5 340.499C358 339.899 358.6 338.499 360.3 337.199Z" fill="#263238"/>
<path d="M498.3 442.899C486.9 445.199 474.4 441.699 465.9 433.799C457.4 425.799 453 413.699 454.5 402.199C455.8 391.999 461.3 381.599 457.7 371.999C453.1 359.299 435.2 355.299 430.5 342.599C427.7 335.199 430.2 326.599 427.1 319.399C424.1 312.499 417 308.599 410 306.099C403 303.599 395.5 301.799 389.7 297.299C383.8 292.699 380.2 284.199 384 277.799C414.9 281.499 445.4 288.899 474.5 299.799C481.3 302.299 488.4 305.299 492.4 311.399C496.6 317.699 496.4 325.899 496.1 333.599C494.367 370.799 492.633 407.999 490.9 445.199" fill="#263238"/>
<path d="M497.9 455C499.5 453.7 501.7 451.7 504.6 449.1C507.4 446.4 510.7 443.1 514 438.7C517.2 434.4 520.3 428.8 521.3 422.1C522.4 415.5 521.4 407.4 516.1 401.5C513.4 398.5 509.9 396.3 506.5 393.5C503.1 390.8 500 387 498.4 382.5C495.2 373.6 496.6 363.6 495.3 354C494.1 344.3 490.6 334.3 484 326.3C480.7 322.4 476.7 319 472.2 316.7C467.8 314.4 462.9 313.4 458.1 311.9C453.2 310.6 448.5 308.5 444.8 305.3C440.9 302.2 437.9 298.5 435.2 294.7C430 287.2 426.2 279.3 421.4 272.8C419 269.6 416.4 266.7 413.5 264.3C410.7 262 407.5 260.3 404.3 259.2C398 256.9 391.3 257.6 386.9 260.6C382.6 263.8 380.8 268.6 380.5 272.3C380.2 276.1 381.4 279 382.6 280.5C383.2 281.4 383.7 281.9 384.1 282.2C384.5 282.6 384.667 282.8 384.6 282.8C384.6 282.866 384.4 282.733 384 282.4C383.5 282.1 382.9 281.6 382.3 280.8C380.9 279.2 379.6 276.2 379.8 272.2C380 268.4 381.7 263.3 386.3 259.8C391 256.5 398 255.7 404.7 258C408.1 259.1 411.4 260.9 414.4 263.3C417.4 265.7 420.1 268.6 422.6 271.9C427.5 278.5 431.4 286.4 436.6 293.8C439.2 297.5 442.2 301 445.8 304C449.5 307 453.8 308.9 458.6 310.2C463.3 311.6 468.4 312.6 473.1 315.1C477.8 317.5 481.9 321 485.4 325.2C492.3 333.5 495.8 343.8 497.1 353.7C498.3 363.7 496.9 373.5 500 382C501.4 386.2 504.2 389.6 507.5 392.2C510.8 395 514.4 397.3 517.2 400.5C522.9 406.9 523.8 415.5 522.5 422.3C521.4 429.3 518.1 435 514.8 439.4C511.4 443.8 507.9 447 505 449.6C502.1 452.2 499.8 454 498.2 455.3C497.467 455.833 496.833 456.3 496.3 456.7C495.9 457.033 495.7 457.166 495.7 457.1C495.6 457.1 496.4 456.4 497.9 455Z" fill="#455A64"/>
<path d="M503.2 462.299C511.8 453.999 526.3 461.199 533.5 470.599C540.6 480.099 545.7 492.299 556.5 496.999C567.4 501.799 581.5 497.699 590.6 505.299C603.2 515.699 596.1 539.899 609.7 548.999C615.1 552.599 622.2 552.399 628 555.399C641.6 562.399 641.4 581.599 639.3 596.699C636.4 617.899 633.1 639.999 621.4 657.899C609.7 675.899 586.9 688.499 566.6 681.599C547.1 674.899 537.1 653.899 529.1 634.899C518.167 608.566 507.2 582.232 496.2 555.899C489.9 540.699 483.4 525.199 481.4 508.899C479.3 492.499 482.1 474.799 492.5 461.999" fill="#263238"/>
<path d="M508.7 444.1C514.9 443.4 519.6 451 518 457C516.4 463 510.6 467 504.7 469.1C501.4 470.2 497.8 470.9 494.4 470.3C491 469.6 487.7 467.3 486.6 464C485.5 460.5 486.4 458.2 489.5 456.2C493.6 453.7 495.9 451.7 499.2 449.9C504.1 447.2 503.8 446.8 508.7 444.1Z" fill="#E8505B"/>
<path d="M366.2 510.801L390.3 492.601L480.9 486.801L484.5 499.001L455.1 682.901L478.3 902.301H351.9L366.2 510.801Z" fill="#0051C6"/>
<g opacity="0.3">
<path d="M464.6 835.2C463.1 838.7 460.1 841.4 456.9 843.5C447.6 849.6 435.9 851.2 424.8 850.5C413.7 849.8 402.8 847 391.9 844.9C388.4 844.1 384.5 843.5 381.2 845.1C375.4 847.8 374.4 855.4 373.5 861.8C371.6 876.3 364.8 889.6 357.5 902.4L359.9 812.7C390.2 813.4 421.1 816.4 451.4 817C455.6 817.1 460.4 821.4 463.3 824.5C465.9 827.3 466.1 831.7 464.6 835.2Z" fill="black"/>
</g>
<path d="M385.8 514.5L383 488.2C382.5 483.6 385.9 479.5 390.6 479L474 471.5C476.2 471.3 478.2 473 478.3 475.3L479.2 506.6L455.1 547.6L430.2 555.5H399.9L382.4 536.8L385.8 514.5Z" fill="#0051C6"/>
<path d="M466.9 496.601C466.9 496.601 465.7 496.401 463.6 496.201C461.4 496.001 458.3 495.801 454.5 496.101C450.6 496.301 446.1 496.901 441.1 498.001C436.1 499.001 430.7 500.501 425 501.901C419.3 503.301 413.7 504.401 408.6 504.801C403.4 505.201 398.7 504.901 394.9 503.901C391.1 503.001 388.3 501.501 386.5 500.401C385.567 499.801 384.867 499.301 384.4 498.901C384 498.501 383.8 498.301 383.8 498.301C383.8 498.201 384.8 499.001 386.7 500.001C388.5 501.101 391.4 502.401 395.1 503.201C398.8 504.001 403.4 504.301 408.5 503.901C413.5 503.401 419 502.301 424.7 500.901C430.5 499.501 435.9 498.101 440.9 497.101C446 496.001 450.6 495.501 454.4 495.301C458.3 495.201 461.5 495.501 463.6 495.801C464.667 496.001 465.5 496.168 466.1 496.301C466.633 496.434 466.9 496.534 466.9 496.601Z" fill="#263238"/>
<g opacity="0.3">
<path d="M388.3 501.1C399.2 505 411.3 503.2 422.6 500.7C433.9 498.1 445.4 494.9 456.9 496C457.3 496.1 457.7 496.1 458 496.3C458.7 496.9 458.6 498 457.9 498.6C457.3 499.2 456.4 499.4 455.6 499.6C442.6 502.5 430.9 509.6 419.4 516.4C414.8 519.1 410.1 521.9 404.9 522.9C399.7 523.9 393.7 523 390.1 519.1C385.5 514.4 385.6 506.8 387.8 500.7" fill="black"/>
</g>
<path d="M403.8 478.2C403.8 478.3 402.1 478.8 400.9 480.9C399.6 483 399.7 486.6 399.8 490.5C400 498.3 401.3 504.5 401 504.6C400.8 504.6 400.3 503.1 399.8 500.6C399.3 498 398.8 494.5 398.7 490.5C398.7 488.6 398.7 486.7 398.8 485C399 483.2 399.5 481.7 400.3 480.5C401 479.4 401.9 478.7 402.6 478.4C403.3 478.1 403.7 478.1 403.8 478.2Z" fill="#263238"/>
<path d="M425.8 501.1C425.5 501 426.2 495.3 425.2 488.3C424.2 481.4 421.9 476.1 422.2 475.9C422.4 475.9 423.1 477.1 423.9 479.3C424.8 481.5 425.7 484.6 426.2 488.2C426.7 491.7 426.7 495 426.5 497.3C426.3 499.7 425.9 501.1 425.8 501.1Z" fill="#263238"/>
<path d="M452.7 473.701C452.8 473.701 453.5 474.801 454.2 476.801C455 478.901 455.5 481.901 455.3 485.201C455.1 488.501 454.1 491.401 453.1 493.301C452.2 495.201 451.3 496.201 451.2 496.201C450.9 496.001 453.9 491.501 454.3 485.101C454.8 478.701 452.3 473.801 452.7 473.701Z" fill="#263238"/>
<path d="M347.3 789.3L324.6 823L312.2 832C299.4 841.2 283.8 845.7 268 844.6L249.6 800.8L277.8 746C277.8 746 293.9 603.1 299.8 576.1C307.3 541.7 335.7 522.7 335.7 522.7L347.3 789.3Z" fill="#EBEBEB"/>
<path d="M370.3 509.3L364.7 638L358.9 840L357.5 902.4L299.8 901.9L333.3 795.5L314.2 668.4L324.3 560L335.7 522.7L383.9 497.4L370.3 509.3Z" fill="#EBEBEB"/>
<path d="M360.6 665.8C360.533 665.8 360.233 665.3 359.7 664.3C359.1 663.233 358.3 661.766 357.3 659.9C356.3 657.9 355.3 655.4 354 652.6C353.5 651.2 353 649.6 352.4 647.9C351.8 646.3 351.2 644.5 350.7 642.6C346.1 627.6 343.1 606 343.8 582.2C343.8 580.333 343.867 578.5 344 576.7V576.4L344.3 576.3C347.167 575.033 350 573.833 352.8 572.7L352.7 573.6C349.767 571.266 346.933 569 344.2 566.8L344 566.7V566.5C343.6 557.5 345.8 549.4 347.9 542.4C350 535.3 352.3 529.2 354.4 524.2C356.4 519.2 358.2 515.3 359.4 512.7C360.067 511.366 360.567 510.366 360.9 509.7C361.3 508.966 361.5 508.6 361.5 508.6C361.5 508.666 361.367 509.033 361.1 509.7C360.767 510.5 360.3 511.533 359.7 512.8C358.6 515.5 356.9 519.4 354.9 524.5C353 529.5 350.7 535.6 348.7 542.6C346.7 549.6 344.6 557.7 345 566.4L344.8 566C347.533 568.2 350.367 570.466 353.3 572.8L354 573.3L353.2 573.7C350.4 574.833 347.567 576 344.7 577.2L345.1 576.8C344.967 578.6 344.867 580.4 344.8 582.2C344.2 606 347 627.5 351.4 642.4C351.8 644.3 352.5 646 353 647.7C353.6 649.4 354 651 354.6 652.4C355.8 655.2 356.7 657.7 357.6 659.7C358.533 661.566 359.267 663.066 359.8 664.2C360.333 665.266 360.6 665.8 360.6 665.8Z" fill="#263238"/>
<path d="M322.7 741.7C322.7 741.7 322.567 741.167 322.3 740.1C321.967 738.967 321.567 737.467 321.1 735.6C320.6 733.6 320.1 731.2 319.5 728.4C318.9 725.5 318.2 722.3 317.6 718.7C317 715.1 316.3 711.2 315.8 706.9C315.1 702.7 314.7 698.1 314.2 693.4C313.3 683.8 312.7 673.2 312.7 662.1C312.8 650.9 313.4 640.4 314.3 630.8C314.8 626 315.3 621.4 316 617.2C316.5 613 317.2 609 317.8 605.4C318.4 601.9 319.2 598.6 319.7 595.8C320.3 593 320.9 590.5 321.4 588.6C321.867 586.667 322.267 585.133 322.6 584C322.867 583 323 582.5 323 582.5C323.067 582.5 323 583.033 322.8 584.1C322.533 585.233 322.2 586.767 321.8 588.7C321.4 590.6 320.8 593.1 320.3 595.9C319.8 598.8 319.1 602 318.6 605.6C318 609.2 317.3 613.1 316.8 617.3C316.2 621.5 315.8 626.1 315.3 630.9C314.4 640.4 313.8 651 313.8 662.1C313.8 673.2 314.3 683.7 315.1 693.3C315.6 698 316 702.6 316.6 706.8C317.1 711.1 317.8 715 318.4 718.6C318.9 722.2 319.6 725.4 320.1 728.2C320.6 731.1 321.1 733.5 321.5 735.5C321.9 737.433 322.233 738.967 322.5 740.1C322.7 741.167 322.767 741.7 322.7 741.7Z" fill="#263238"/>
<path d="M335.8 839.301C335.9 839.301 335.1 841.201 333.4 844.101C331.8 847.001 329.3 850.901 326 854.801C322.8 858.801 319.5 862.001 317 864.201C314.5 866.301 312.8 867.501 312.7 867.401C312.6 867.301 314.1 865.901 316.5 863.601C318.9 861.301 322 858.001 325.2 854.201C328.4 850.301 331 846.501 332.8 843.701C334.6 841.001 335.6 839.201 335.8 839.301Z" fill="#263238"/>
<path d="M557.3 519.602C577.9 527.502 593.2 545.202 598.1 566.802C613.9 636.302 640.8 728.802 641.3 758.602C641.8 796.602 625.2 822.602 603.5 827.402C586.3 831.202 430.9 822.702 430.9 822.702L423.6 764.802L549.5 746.202L532.3 649.902L549.3 516.502L557.3 519.602Z" fill="#EBEBEB"/>
<path d="M550.2 622.301L532.3 783.101L583 902.401H472.5L458.3 788.301L451.4 671.901L481.9 512.501C483.6 503.801 482.1 494.701 477.6 487.001L477.8 480.701L514.5 502.201L549.3 516.501L550.2 622.301Z" fill="#EBEBEB"/>
<path d="M581.6 828.401C581.6 828.401 581.333 828.435 580.8 828.501C580.267 828.568 579.533 828.635 578.6 828.701C576.6 828.901 573.7 828.901 570 829.001C562.5 829.001 551.6 828.801 538.1 828.401C511 827.501 473.4 825.701 430.8 823.201H430.4L430.3 822.801C429.5 815.901 428.6 808.601 427.6 801.201C426.1 788.701 424.5 776.501 423.1 764.801L423 764.301H423.5C462 758.701 495.6 753.801 519.7 750.301C531.6 748.601 541.2 747.201 547.9 746.301C551.167 745.834 553.7 745.501 555.5 745.301C556.3 745.168 556.933 745.068 557.4 745.001C557.867 744.935 558.1 744.935 558.1 745.001C558.1 745.001 557.9 745.034 557.5 745.101C556.967 745.168 556.3 745.268 555.5 745.401C553.7 745.735 551.167 746.134 547.9 746.601C541.3 747.701 531.7 749.101 519.8 750.901C495.7 754.501 462.1 759.501 423.7 765.301L424.1 764.701C425.6 776.401 427.1 788.601 428.7 801.101C429.6 808.501 430.5 815.701 431.4 822.601L430.9 822.201C473.4 824.701 511.1 826.601 538.1 827.701C551.6 828.201 562.5 828.501 570 828.601C573.7 828.601 576.6 828.701 578.6 828.501C579.533 828.435 580.267 828.401 580.8 828.401C581.333 828.401 581.6 828.401 581.6 828.401Z" fill="#263238"/>
<path d="M531.2 640.201C531.267 640.201 531.367 640.535 531.5 641.201C531.7 642.068 531.9 643.101 532.1 644.301C532.6 647.101 533.3 651.001 534.2 655.701C535.9 665.501 538.2 678.701 540.8 693.301C543.2 707.901 545.4 721.201 547 731.001C547.8 735.701 548.4 739.501 548.8 742.401C549 743.668 549.167 744.701 549.3 745.501C549.367 746.234 549.367 746.601 549.3 746.601C549.3 746.601 549.2 746.234 549 745.501C548.867 744.701 548.667 743.701 548.4 742.501C547.9 739.601 547.2 735.801 546.3 731.101C544.6 721.501 542.2 708.201 539.7 693.501C537.2 678.801 535 665.501 533.5 655.801C532.8 651.101 532.2 647.201 531.7 644.401C531.567 643.135 531.433 642.101 531.3 641.301C531.233 640.568 531.2 640.201 531.2 640.201Z" fill="#263238"/>
<path d="M493.8 491.9C493.8 491.9 493.867 492.034 494 492.3C494.067 492.634 494.167 493.034 494.3 493.5C494.5 494.5 495 496 495.4 498C496.3 502 497.3 507.8 498 515.2C498.8 522.5 499.1 531.4 498.7 541.3C498.4 551.3 497.3 562.3 495.8 573.9V574.3L495.4 574.4C491.8 575 487.9 575.8 484 576.5L484.4 575.8C485.1 577.5 485.7 579.4 486.2 581.4C489.9 594.9 488.3 608.5 484.9 620C481.5 631.5 476.3 641.1 471.6 648.8C466.8 656.5 462.5 662.4 459.6 666.5C458.133 668.5 456.967 670.067 456.1 671.2C455.767 671.667 455.467 672.067 455.2 672.4C455 672.667 454.9 672.8 454.9 672.8C454.833 672.8 454.9 672.634 455.1 672.3C455.3 671.967 455.6 671.567 456 671.1C456.8 669.9 457.867 668.3 459.2 666.3C462.1 662.1 466.3 656.1 470.9 648.4C475.5 640.7 480.7 631.1 484 619.7C487.3 608.4 488.9 594.9 485.2 581.6C484.7 579.7 484.1 577.9 483.4 576.2L483.2 575.6L483.8 575.5C487.7 574.7 491.6 574 495.2 573.4L494.8 573.8C496.3 562.2 497.4 551.2 497.8 541.3C498.2 531.4 498 522.6 497.4 515.2C496.8 507.9 495.8 502.1 495 498.1C494.7 496.1 494.3 494.6 494.1 493.5C494.033 493.034 493.967 492.667 493.9 492.4C493.833 492.134 493.8 491.967 493.8 491.9Z" fill="#263238"/>
<path d="M489.1 656.401V671.201C489.1 671.201 488.2 674.201 485.9 674.501C483.6 674.901 484.6 636.201 484.6 636.201C484.6 636.201 483.6 626.301 488.9 625.001C494.1 623.701 493.8 630.001 493.8 630.001V655.401L489.1 656.401Z" fill="#0051C6"/>
<path d="M515.8 657.001C515.8 657.301 509.7 657.501 502.2 657.501C494.6 657.501 488.5 657.301 488.5 657.001C488.5 656.701 494.6 656.401 502.2 656.401C509.7 656.401 515.8 656.701 515.8 657.001Z" fill="#263238"/>
<path d="M566.1 534.602C566.1 534.702 565.1 535.102 563.2 535.702C561.4 536.402 558.8 537.402 555.7 539.002C549.5 542.102 541.5 547.802 535.2 556.402C533.7 558.502 532.3 560.702 531.2 562.902C530.2 565.202 529.4 567.402 528.8 569.602C527.6 574.102 527.1 578.202 526.8 581.702C526.5 585.102 526.4 588.002 526.4 589.902C526.4 591.902 526.4 592.902 526.3 592.902C526.3 592.902 526.1 591.902 526 589.902C525.9 588.002 525.8 585.102 526.1 581.602C526.3 578.102 526.7 573.902 527.9 569.402C528.4 567.102 529.3 564.802 530.3 562.502C531.4 560.202 532.8 557.902 534.4 555.802C540.8 547.002 549 541.302 555.4 538.302C558.5 536.802 561.2 535.902 563.1 535.302C565 534.802 566.1 534.602 566.1 534.602Z" fill="#263238"/>
<path d="M270.8 747.901L453.1 836.801L299.8 813.301L117.9 746.001L270.8 747.901Z" fill="#263238"/>
<path d="M195.7 818.601C194.3 808.901 191 799.501 186 791.101C185.1 789.401 184 787.701 183.6 785.901C183.1 784.001 183.3 781.901 184.6 780.501C186.9 777.901 191.2 779.001 194.1 781.001C200 784.901 204 791.401 206.3 798.101C208.6 804.901 209.5 812.001 210.3 819.101" fill="#FFBE9D"/>
<path d="M299.8 813.301C297.3 830.101 283.7 843.001 266.9 844.701C260.1 845.401 254.9 845.901 254.9 845.901L221.6 838.401C221.6 838.401 213 842.601 206.5 839.001C200.4 835.601 200.5 830.001 200.5 830.001C200.5 830.001 192 832.601 189.1 826.001C186.2 819.501 190.4 812.701 190.4 812.701C190.4 812.701 212.7 779.001 218.2 772.301C222.7 766.901 234.9 767.701 231 778.901C229.5 783.401 213.5 812.701 213.5 812.701C213.5 812.701 239.2 776.201 245.1 776.201C250.9 776.201 254.5 779.201 252.9 783.101C252.1 785.101 247.7 792.401 243.7 799.101C245.5 797.301 247.6 796.101 249.6 796.701C253 797.701 255.8 799.401 257.6 801.301H266.6L299.8 813.301Z" fill="#FFBE9D"/>
<path d="M244.2 798.601C244.6 798.801 240.1 805.801 234.4 814.101C231.5 818.301 228.9 822.001 226.9 824.701C224.9 827.401 223.6 829.001 223.5 828.901C223.4 828.801 224.5 827.101 226.3 824.301C228.1 821.501 230.7 817.701 233.5 813.501C236.4 809.301 239.1 805.601 241 802.901C241.867 801.701 242.633 800.634 243.3 799.701C243.9 798.901 244.1 798.601 244.2 798.601Z" fill="#EB996E"/>
<path d="M242.2 835.701C242.1 835.601 243.2 833.501 245.2 830.201C247.1 827.001 249.9 822.501 253 817.501C254.5 815.101 256 812.701 257.2 810.501C258.5 808.401 258.4 806.101 258 804.401C257 800.701 254.9 799.201 255.1 799.101C255.2 799.001 255.7 799.301 256.4 800.101C257.1 800.901 258.1 802.301 258.7 804.201C259.2 806.001 259.4 808.601 258.1 811.001C256.9 813.201 255.4 815.601 253.9 818.101C250.8 823.101 247.9 827.501 245.8 830.601C243.6 833.801 242.3 835.801 242.2 835.701Z" fill="#EB996E"/>
<path d="M259.7 839.001C259.6 839.001 260.1 836.901 261.5 833.801C262.233 832.134 263.033 830.334 263.9 828.401C264.7 826.401 265.7 824.101 266.3 821.701C266.9 819.301 266.5 816.801 265.2 815.201C264.6 814.401 263.7 813.901 262.9 813.501C262 813.101 261.1 812.801 260.4 812.801C258.9 812.901 257.6 813.701 256.8 814.001C256 814.501 255.5 814.701 255.4 814.601C255.4 814.501 255.8 814.201 256.6 813.701C257 813.434 257.5 813.134 258.1 812.801C258.7 812.501 259.4 812.101 260.4 812.001C261.3 812.001 262.3 812.301 263.2 812.701C264.1 813.101 265.2 813.601 266 814.601C267.5 816.501 267.9 819.301 267.3 821.901C266.7 824.501 265.6 826.701 264.7 828.801C263.8 830.801 262.9 832.601 262.1 834.101C260.6 837.101 259.8 839.001 259.7 839.001Z" fill="#EB996E"/>
<path d="M265.8 807.501C265.9 807.501 266.4 807.601 267.2 807.901C268.1 808.301 269.4 809.001 270.7 810.001C273.5 812.001 276.7 815.801 277.9 821.001C279 826.301 277.7 831.101 276.1 834.101C275.3 835.601 274.5 836.701 273.8 837.401C273.2 838.101 272.8 838.501 272.7 838.401C272.6 838.301 274.1 836.801 275.4 833.801C276.8 830.801 278 826.201 276.9 821.301C275.8 816.401 272.8 812.601 270.3 810.601C267.7 808.401 265.8 807.701 265.8 807.501Z" fill="#EB996E"/>
<path d="M207.2 788.401C207.5 788.501 204.1 793.901 199.7 800.401C195.3 806.901 191.6 812.101 191.3 811.901C191.1 811.801 194.4 806.401 198.8 799.901C203.2 793.401 207 788.201 207.2 788.401Z" fill="#EB996E"/>
<path d="M430 819.4L414.4 818L301.1 762.8L327.1 740.8C329.8 738.5 333.4 737.3 337 737.5L373.4 739.6C376.7 739.8 379.8 741.1 382.3 743.4L402.2 762.2L423 766.9L430 819.4Z" fill="#FFBE9D"/>
<path d="M361.4 757.2C361.4 757.4 358.7 756.9 354.4 756.4C350.2 755.9 344 755.3 338 758.1C335 759.4 332.4 761.3 330.1 763C327.8 764.7 325.8 766.3 323.9 767.5C322.1 768.8 320.6 769.6 319.4 770.1C318.3 770.6 317.7 770.9 317.7 770.8C317.6 770.6 320 769.5 323.5 766.9C325.3 765.6 327.3 764 329.5 762.2C331.8 760.5 334.4 758.5 337.5 757.1C340.6 755.7 343.9 755.1 346.8 755C349.8 755 352.4 755.3 354.5 755.6C356.7 756 358.4 756.4 359.6 756.7C360.8 757 361.4 757.2 361.4 757.2Z" fill="#EB996E"/>
<path d="M368.9 777.501C368.8 777.601 367.4 777.001 365 776.701C362.5 776.401 359.1 776.701 355.6 778.001C352.1 779.301 349.2 781.101 347.1 782.401C344.9 783.701 343.6 784.501 343.5 784.401C343.4 784.301 344.6 783.301 346.6 781.801C348.7 780.401 351.6 778.401 355.3 777.101C358.9 775.701 362.6 775.501 365.1 776.001C367.6 776.501 368.9 777.401 368.9 777.501Z" fill="#EB996E"/>
<path d="M415.7 780.8C415.4 781 412.5 776.6 408.6 771.5C404.8 766.3 401.4 762.3 401.7 762.1C401.9 761.9 405.6 765.6 409.4 770.9C413.3 776.1 415.9 780.7 415.7 780.8Z" fill="#EB996E"/>
<path d="M344.5 738.701L398.6 690.201C400.1 688.801 402.5 688.701 404.2 690.001C406.3 691.701 406.5 694.901 404.5 696.701L358.4 739.601" fill="#E8505B"/>
<g opacity="0.3">
<path d="M344.5 738.701L398.6 690.201C400.1 688.801 402.5 688.701 404.2 690.001C406.3 691.701 406.5 694.901 404.5 696.701L358.4 739.601" fill="black"/>
</g>
<path d="M737.6 366.7C737.6 367.5 709.6 375 707.9 346.8C706.3 318.6 734.2 325.9 734.9 326.2C734.9 326.2 737.6 365.9 737.6 366.7Z" fill="#B78876"/>
<path d="M727.5 357.9C726.7 358.6 725.1 359.3 723.1 358.9C718.9 358 715.7 352.9 715.2 347.2C714.9 344.3 715.4 341.5 716.4 339.2C717.3 336.9 719.1 334.8 721.3 334.5C722.3 334.4 723.3 334.6 724 335.1C724.7 335.6 725.1 336.2 725.2 336.8C725.5 337.9 725 338.5 725 338.5C724.8 338.4 725 337.8 724.5 337.1C724.1 336.3 723 335.5 721.6 335.9C720.1 336.3 718.8 337.8 718.1 339.9C717.3 342 716.9 344.5 717.1 347C717.6 352.1 720.4 356.7 723.4 357.6C724.9 358.1 726.3 357.7 727.1 357.3C727.9 356.9 728.2 356.4 728.4 356.5C728.5 356.5 728.3 357.2 727.5 357.9Z" fill="#AA6550"/>
<path d="M805.3 225.4C819.7 225.4 834.3 225.4 852.2 234.8C863.5 240.7 870.6 250 876.5 261.3C881 270 883.7 281.4 883.1 291.1C882.6 300.9 882.6 307.7 878.7 316.7" fill="#263238"/>
<path d="M799.6 227.601C842 224.601 878.7 257.001 880.9 299.501C882.7 334.801 884.3 373.001 884 392.301C883.1 433.601 841.7 439.701 841.7 439.701C841.7 439.701 842.7 451.901 843.7 467.101C845.7 497.801 822.1 524.001 791.4 525.201C761.4 526.301 736.1 502.901 735 472.801L728.9 306.301C727.3 265.301 758.6 230.501 799.6 227.601Z" fill="#B78876"/>
<path d="M842.5 450C801.2 453.4 788.7 423.4 788.7 423.4C816.3 441 841.7 439.7 841.7 439.7L842.5 450Z" fill="#AA6550"/>
<path d="M865 322.501C865.1 325.601 862.6 328.201 859.3 328.401C856.1 328.501 853.4 326.101 853.3 323.001C853.2 319.901 855.8 317.201 859 317.101C862.3 316.901 865 319.301 865 322.501Z" fill="#263238"/>
<path d="M870.8 314.101C870 314.901 865.6 311.501 859.2 311.501C852.9 311.401 848.2 314.601 847.5 313.801C847.2 313.501 848 312.101 850 310.601C852 309.201 855.4 307.801 859.4 307.801C863.3 307.901 866.6 309.301 868.5 310.901C870.5 312.401 871.1 313.801 870.8 314.101Z" fill="#263238"/>
<path d="M802.8 322.501C802.9 325.601 800.3 328.201 797 328.401C793.8 328.501 791.1 326.101 791 323.001C790.9 319.901 793.5 317.201 796.7 317.101C800 316.901 802.7 319.301 802.8 322.501Z" fill="#263238"/>
<path d="M808.4 314.801C807.6 315.601 803.2 312.201 796.8 312.201C790.5 312.101 785.8 315.301 785.1 314.501C784.8 314.201 785.5 312.801 787.6 311.301C789.6 309.901 793 308.401 797 308.501C800.9 308.501 804.2 310.001 806.1 311.501C808.1 313.101 808.7 314.401 808.4 314.801Z" fill="#263238"/>
<path d="M831 362.102C831 361.702 834.9 361.102 841.3 360.302C843 360.102 844.5 359.802 844.8 358.702C845.2 357.502 844.5 355.802 843.7 353.902C842.233 349.968 840.667 345.835 839 341.502C832.5 323.902 827.8 309.402 828.5 309.102C829.2 308.902 835.1 323.002 841.6 340.602C843.2 344.935 844.7 349.102 846.1 353.102C846.7 354.902 847.8 357.002 846.9 359.402C846.5 360.602 845.3 361.502 844.2 361.802C843.2 362.102 842.3 362.102 841.5 362.102C835 362.402 831 362.402 831 362.102Z" fill="#263238"/>
<path d="M812.3 366.301C813.3 366.301 813.3 373.101 819.1 378.101C825 383.001 832.4 382.301 832.4 383.301C832.5 383.701 830.8 384.601 827.6 384.701C824.6 384.801 820.2 383.701 816.6 380.701C813 377.701 811.5 373.701 811.3 370.801C811 368.001 811.8 366.301 812.3 366.301Z" fill="#263238"/>
<path d="M810.2 289.901C809.5 291.601 803.2 290.801 795.8 291.601C788.3 292.301 782.3 294.401 781.3 292.901C780.9 292.101 781.9 290.501 784.4 288.901C786.8 287.201 790.6 285.701 795.1 285.201C799.6 284.701 803.7 285.501 806.4 286.601C809.1 287.701 810.5 289.101 810.2 289.901Z" fill="#263238"/>
<path d="M869.9 291.501C868.8 292.901 864.4 291.401 859.1 291.301C853.9 291.001 849.4 292.201 848.4 290.701C848 289.901 848.7 288.501 850.6 287.101C852.6 285.801 855.8 284.701 859.4 284.801C863 285.001 866.1 286.301 867.9 287.801C869.8 289.301 870.4 290.801 869.9 291.501Z" fill="#263238"/>
<path d="M734.5 267.1C741.8 250.5 756.8 237.8 773.7 231.2C790.6 224.7 809.5 223.9 827.4 227.5C833.8 228.8 840.3 230.7 845.3 234.9C850.4 239 853.6 245.9 851.9 252.2C850.3 258 844.6 262.2 838.7 263C832.8 263.9 826.7 261.9 821.7 258.6C816.1 254.9 811.6 249.6 805.7 246.6C796 241.8 783.7 244.1 775.2 250.8C766.7 257.4 761.6 267.8 759.5 278.4C757.3 289 757.8 299.9 758.7 310.7C759.4 318.6 753.2 336 750 343.2C746.8 350.4 739.5 353.8 735.8 353C731.6 352.1 731.8 334.6 731.6 333.1C731.1 328.8 729.3 319.2 729.3 319.2C727.1 298.2 726.2 286.4 734.5 267.1Z" fill="#263238"/>
<path d="M823.8 322.699C823.6 322.699 823.8 320.199 822.7 315.899C821.6 311.699 818.8 305.499 812.5 300.699C809.3 298.399 805.4 296.399 800.8 295.599C796.3 294.799 791.2 294.999 786.3 296.799C783.9 297.699 781.5 298.899 779.3 300.599C777.1 302.199 775.1 304.099 773.5 306.399C770.1 310.899 768.2 316.699 768.2 322.699C768.2 328.699 770.1 334.499 773.5 338.999C775.1 341.299 777.1 343.299 779.3 344.899C781.5 346.499 783.9 347.799 786.3 348.599C791.2 350.499 796.3 350.599 800.8 349.899C805.4 349.099 809.3 347.099 812.5 344.699C818.8 339.999 821.6 333.699 822.7 329.499C823.8 325.199 823.6 322.699 823.8 322.699C823.8 322.699 823.8 322.866 823.8 323.199C823.8 323.533 823.8 323.966 823.8 324.499C823.8 325.099 823.8 325.799 823.6 326.699C823.5 327.599 823.4 328.499 823.1 329.599C822.1 333.899 819.4 340.299 812.9 345.299C809.7 347.799 805.7 349.899 801 350.699C796.3 351.599 791 351.399 786 349.499C783.4 348.699 781 347.399 778.7 345.699C776.5 343.999 774.4 341.999 772.7 339.599C769.2 334.899 767.2 328.899 767.1 322.699C767.2 316.499 769.2 310.499 772.7 305.799C774.4 303.499 776.5 301.399 778.7 299.799C781 298.099 783.4 296.799 786 295.899C791 293.999 796.3 293.899 801 294.699C805.7 295.599 809.7 297.699 812.9 300.099C819.4 305.099 822.1 311.499 823.1 315.799C823.4 316.899 823.5 317.899 823.6 318.799C823.8 319.599 823.8 320.299 823.8 320.899C823.8 321.433 823.8 321.899 823.8 322.299C823.8 322.566 823.8 322.699 823.8 322.699Z" fill="#263238"/>
<path d="M896.5 322.699C896.4 322.699 896.5 320.199 895.4 315.899C894.4 311.699 891.5 305.499 885.2 300.699C882.1 298.399 878.1 296.399 873.5 295.599C869 294.799 863.9 294.999 859 296.799C856.6 297.699 854.2 298.899 852.1 300.599C849.9 302.199 847.9 304.099 846.2 306.399C842.8 310.899 840.9 316.699 840.9 322.699C840.9 328.699 842.8 334.499 846.2 338.999C847.9 341.299 849.9 343.299 852.1 344.899C854.2 346.499 856.6 347.799 859 348.599C863.9 350.499 869 350.599 873.5 349.899C878.1 349.099 882.1 347.099 885.2 344.699C891.5 339.999 894.4 333.699 895.4 329.499C896.5 325.199 896.4 322.699 896.5 322.699C896.5 322.699 896.5 322.866 896.5 323.199C896.5 323.533 896.5 323.966 896.5 324.499C896.5 325.099 896.5 325.799 896.4 326.699C896.2 327.599 896.1 328.499 895.8 329.599C894.9 333.899 892.1 340.299 885.6 345.299C882.4 347.799 878.4 349.899 873.7 350.699C869 351.599 863.8 351.399 858.7 349.499C856.2 348.699 853.7 347.399 851.5 345.699C849.2 343.999 847.1 341.999 845.4 339.599C841.9 334.899 839.9 328.899 839.8 322.699C839.9 316.499 841.9 310.499 845.4 305.799C847.1 303.499 849.2 301.399 851.5 299.799C853.7 298.099 856.2 296.799 858.7 295.899C863.7 293.999 869 293.899 873.7 294.699C878.4 295.599 882.4 297.699 885.6 300.099C892.1 305.099 894.9 311.499 895.8 315.799C896.1 316.899 896.2 317.899 896.4 318.799C896.5 319.599 896.5 320.299 896.5 320.899C896.5 321.433 896.5 321.899 896.5 322.299C896.5 322.566 896.5 322.699 896.5 322.699Z" fill="#263238"/>
<path d="M841 319.7C840.9 319.9 840 319.4 838.4 318.8C836.9 318.3 834.6 317.9 832.1 318C829.5 318.2 827.4 318.9 825.9 319.7C824.4 320.4 823.5 321 823.4 320.9C823.3 320.8 824 320 825.5 319C827 318.1 829.3 317.2 832 317C834.7 316.8 837.1 317.4 838.7 318.1C840.3 318.9 841.1 319.6 841 319.7Z" fill="#263238"/>
<path d="M851 247.4C850.1 247 849.4 246.2 849 245.3C848.6 244.4 848.5 243.4 848.4 242.4C848.4 241.4 848.5 240.3 849.3 239.6C850.2 238.7 851.7 239 853 239.4C854.4 239.9 855.8 240.6 856.9 241.6C858 242.6 860.3 243 860.5 244.5C860.5 244.9 860.1 247.1 859.8 247.3C859.4 247.5 858.4 248.8 858.1 248.5C857.2 247.4 854.6 244.8 853.2 245.8C852 246.7 852.7 247.9 852.3 250" fill="#263238"/>
<path d="M728.5 287.1L758 298.8L758.6 309.1C748.1 304.7 727.8 297.2 727.8 297.2C727.8 294.8 728.5 287.1 728.5 287.1Z" fill="#EBEBEB"/>
<path d="M729.7 281.1C729.8 280.9 736.2 283.3 744 286.6C751.8 289.9 758.1 292.8 758 293.1C757.9 293.4 751.4 290.9 743.6 287.6C735.8 284.3 729.6 281.4 729.7 281.1Z" fill="#EBEBEB"/>
<path d="M736.216 499.678L736.305 499.545L736.3 499.384L734.827 454.288C735.154 455.244 735.563 456.353 736.065 457.58C737.794 461.803 740.635 467.428 745.083 473.036C753.992 484.267 769.332 495.402 795.006 495.1C819.516 494.849 831.658 484.893 837.641 474.92C840.623 469.95 842.062 465 842.756 461.294C842.797 461.07 842.837 460.85 842.873 460.636L844.1 474.922V554.64L812.396 684.448L772.576 689.548L727.839 512.194L736.216 499.678Z" fill="#0051C6" stroke="black"/>
<path d="M838.3 483.701C838.367 483.701 838.167 484.034 837.7 484.701C837.3 485.401 836.8 486.401 835.8 487.601C834 490.001 831.1 493.201 826.7 496.401C822.4 499.601 816.6 502.501 809.8 504.301C802.9 506.201 795 506.901 786.9 505.901C778.7 504.801 771.3 502.301 764.9 499.301C758.5 496.301 753.1 492.801 748.8 489.601C744.5 486.401 741.3 483.601 739.1 481.601C738 480.601 737.2 479.701 736.6 479.201C736.067 478.601 735.8 478.301 735.8 478.301C735.867 478.301 736.2 478.534 736.8 479.001C737.467 479.601 738.333 480.367 739.4 481.301C741.6 483.201 744.9 485.901 749.3 489.001C753.6 492.101 758.9 495.501 765.3 498.401C771.6 501.401 779 503.801 787 504.901C795 505.901 802.8 505.201 809.5 503.401C816.2 501.601 822 498.801 826.3 495.801C830.6 492.701 833.6 489.601 835.5 487.301C837.3 485.001 838.2 483.601 838.3 483.701Z" fill="#263238"/>
<path d="M635 902.2C635 902.2 634.1 668.1 635 675.1C635.9 682 694.2 481.4 694.2 481.4L734.3 451.1L736.5 501.9L802.2 670.8L802.9 902.2H635Z" fill="#EBEBEB"/>
<path d="M801.3 901.599C801.1 901.599 800.8 849.399 800.8 785.099C800.8 720.799 801.1 668.699 801.3 668.699C801.6 668.699 801.9 720.799 801.9 785.099C801.9 849.399 801.6 901.599 801.3 901.599Z" fill="#263238"/>
<path d="M713.4 514.4L706 544.1L793.1 658.5L697.2 558L702.9 520.6L694.8 514.4H713.4Z" fill="#E0E0E0"/>
<path d="M898.1 813.8C815.5 865.6 608.6 857.8 577.2 813.9C566.3 798.6 566.5 766.5 568 718.5C569.7 664.8 585.5 590.5 592 559.9C598.6 529.4 694.8 481.4 694.8 481.4L654.4 628.7L659.3 740.5L806.5 783.7" fill="#EBEBEB"/>
<path d="M795 660.9C795 660.9 794.833 660.733 794.5 660.4C794.167 660 793.733 659.433 793.2 658.7C792 657.233 790.333 655.1 788.2 652.3C783.8 646.7 777.6 638.6 770 628.7C754.6 608.6 733.5 580.9 710.1 550.3C708.567 548.3 707.067 546.333 705.6 544.4L705.4 544.2L705.5 544C708.1 533.7 710.6 523.8 713 514.3L713.4 514.9C707 514.9 700.8 514.9 694.8 514.9H694.3V514.4C694.4 502.3 694.4 491.2 694.4 481.4V481.2L694.6 481.1C706.7 471.8 716.6 464.3 723.5 459.1C726.9 456.5 729.6 454.5 731.4 453.1C732.333 452.433 733.033 451.933 733.5 451.6C733.967 451.266 734.233 451.1 734.3 451.1C734.3 451.1 734.067 451.3 733.6 451.7C733.067 452.1 732.4 452.633 731.6 453.3C729.7 454.7 727.1 456.8 723.8 459.4C716.9 464.7 707.1 472.3 695 481.7L695.2 481.4C695.2 491.2 695.2 502.3 695.3 514.4L694.8 514C700.8 513.933 707 513.9 713.4 513.9H714.1L713.9 514.6C711.6 524 709.1 534 706.5 544.2L706.4 543.8C707.933 545.733 709.433 547.7 710.9 549.7C734.2 580.3 755.3 608.1 770.5 628.2C778.1 638.3 784.2 646.4 788.5 652.1C790.567 654.9 792.2 657.066 793.4 658.6C793.867 659.333 794.267 659.9 794.6 660.3C794.867 660.7 795 660.9 795 660.9Z" fill="#263238"/>
<path d="M953 525.199L954.5 638.699L937.7 902.199H802.9L802.2 686.299L837.8 542.999L843.4 476.999V461.599L842.8 454.299C842.8 454.299 848.9 452.099 860.6 472.699L953 525.199Z" fill="#EBEBEB"/>
<path d="M953 525.199C953 525.199 987.9 550.899 990.9 592.399C993.4 625.999 999 718.199 1000 738.299C1001.6 769.499 977.3 842.699 913.9 821.999C875.9 809.499 735.6 761.799 735.6 761.799L744.9 702.199L911.5 712.099L914.8 573.199L953 525.199Z" fill="#EBEBEB"/>
<path d="M735.6 761.8L659.7 740.6L659.5 722C659.5 722 674.4 709.2 684.9 706.6C695.8 704 743 709.1 743 709.1L735.6 761.8Z" fill="#B78876"/>
<path d="M802.2 664.799C802.2 664.799 802.267 664.565 802.4 664.099C802.6 663.632 802.833 663.032 803.1 662.299C803.767 660.632 804.7 658.299 805.9 655.299C808.4 649.099 812 640.299 816.5 629.399C821 618.499 826.3 605.499 832.2 591.099C833.7 587.599 835.2 583.799 837.1 580.199C838.9 576.499 841 572.799 843.1 569.199C847.6 561.899 852.6 554.699 858.1 547.599C860.8 544.099 863.5 540.699 866.4 537.399L866.3 537.899C864.3 532.832 862.333 527.866 860.4 522.999L860.2 522.499L860.7 522.299C869.3 519.399 877.6 516.599 885.3 513.999L885 514.599C873.6 495.599 864 479.499 857.2 468.099C853.8 462.499 850.9 457.999 847.9 456.099C846.4 455.199 845 454.799 844.2 454.599C843.3 454.399 842.8 454.299 842.8 454.299C842.8 454.299 843.3 454.299 844.2 454.399C845.1 454.599 846.5 454.899 848 455.899C849.6 456.799 851.2 458.399 852.8 460.399C854.3 462.499 856 464.999 857.7 467.799C864.6 479.199 874.3 495.199 885.9 514.199L886.2 514.699L885.6 514.799C877.9 517.499 869.7 520.299 861.1 523.299L861.4 522.599C863.267 527.465 865.233 532.432 867.3 537.499L867.4 537.799L867.2 538.099C864.4 541.299 861.6 544.699 858.9 548.199C853.4 555.299 848.4 562.499 844 569.699C841.8 573.399 839.7 576.899 838 580.599C836.1 584.199 834.6 587.899 833.1 591.499C827.1 605.899 821.7 618.799 817.2 629.699C812.6 640.499 808.9 649.299 806.3 655.399C805.033 658.399 804.033 660.732 803.3 662.399C802.967 663.132 802.7 663.732 802.5 664.199C802.3 664.599 802.2 664.799 802.2 664.799Z" fill="#263238"/>
<path d="M972.1 810.399C972.167 810.399 972 810.599 971.6 810.999C971.133 811.399 970.533 811.966 969.8 812.699C968.2 814.199 965.6 816.299 962.1 818.499C958.5 820.699 953.9 822.899 948.1 824.399C942.3 825.899 935.5 826.499 928 825.699C924.3 825.299 920.4 824.499 916.5 823.299C912.6 821.999 908.7 820.499 904.5 818.999C896.3 815.999 887.5 812.899 878.2 809.699C859.6 803.199 839.1 796.199 817.5 789.099C774.3 774.899 734.9 762.999 706.3 754.399C692.1 750.199 680.5 746.799 672.5 744.399C668.6 743.199 665.5 742.299 663.3 741.699C662.3 741.366 661.5 741.099 660.9 740.899C660.367 740.766 660.1 740.699 660.1 740.699C660.1 740.633 660.4 740.666 661 740.799C661.533 740.999 662.333 741.233 663.4 741.499C665.5 742.099 668.6 742.899 672.6 743.999C680.6 746.299 692.2 749.599 706.6 753.699C735.2 762.099 774.6 773.899 817.8 788.099C839.4 795.199 859.9 802.199 878.5 808.799C887.8 812.099 896.6 815.199 904.8 818.199C909 819.699 912.9 821.299 916.8 822.499C920.6 823.699 924.4 824.499 928.1 824.999C935.5 825.799 942.2 825.299 947.9 823.899C953.7 822.399 958.3 820.299 961.9 818.199C965.4 815.999 968 813.999 969.6 812.599C970.4 811.866 971.033 811.299 971.5 810.899C971.9 810.566 972.1 810.399 972.1 810.399Z" fill="#263238"/>
<path d="M659.7 741C659.7 741.2 657 740.6 652.8 740.8C650.7 740.9 648.2 741.2 645.5 742C642.9 742.8 640 744 637.3 745.7C631.9 749.2 628.2 753.9 625.9 757.4C623.7 761 622.7 763.5 622.5 763.4C622.5 763.4 622.7 762.8 623.1 761.7C623.5 760.5 624.2 758.9 625.3 757.1C627.4 753.3 631.2 748.4 636.8 744.8C639.6 743.1 642.5 741.8 645.3 741.1C648 740.3 650.6 740 652.8 740C655 740.1 656.7 740.2 657.9 740.5C659.1 740.7 659.7 740.9 659.7 741Z" fill="#263238"/>
<path d="M613.3 726.4C613.3 726.333 613.367 726.133 613.5 725.8C613.7 725.5 613.9 725 614.4 724.5C615.4 723.5 617.2 722.4 619.7 721.9C622.1 721.4 625.1 721.5 628.3 721.9C631.5 722.4 635 723.2 638.6 724.4C645.7 726.9 651.3 730.9 654.8 734.4C656.6 736.1 657.8 737.7 658.6 738.8C659.4 739.9 659.8 740.6 659.7 740.6C659.5 740.8 657.9 738.2 654.3 734.9C650.8 731.7 645.2 727.9 638.2 725.4C634.7 724.2 631.3 723.4 628.2 722.9C625 722.4 622.1 722.2 619.8 722.6C617.4 723 615.7 723.9 614.7 724.8C613.7 725.7 613.4 726.4 613.3 726.4Z" fill="#263238"/>
<path d="M668.3 597.9C668.2 597.9 668 596.8 667.6 594.9C667.3 593.9 666.9 592.799 666.4 591.499C665.8 590.199 665.2 588.7 664.2 587.2C662.4 584.1 659.9 580.7 656.7 577.2C653.5 573.8 649.7 570.299 645.2 567.099C636.4 560.699 627.1 556.999 620.1 555.599C616.6 554.899 613.7 554.499 611.7 554.499C609.7 554.399 608.6 554.3 608.6 554.2C608.6 554.2 609.7 554.099 611.7 554.099C613.8 553.899 616.7 554.299 620.2 554.799C627.4 556.099 636.9 559.799 645.8 566.299C650.4 569.399 654.2 573.099 657.4 576.599C660.6 580.099 663.1 583.699 664.9 586.799C665.8 588.399 666.4 589.999 667 591.299C667.4 592.599 667.8 593.799 668 594.799C668.2 596.799 668.3 597.9 668.3 597.9Z" fill="#263238"/>
<path d="M947.8 768.9C947.733 768.9 947.7 768.667 947.7 768.2C947.7 767.667 947.7 766.967 947.7 766.1C947.6 764.3 947.5 761.6 947.3 758.1C946.7 751.2 945.5 741 941.4 729.3C940.3 726.3 939.2 723.3 937.3 720.5C935.5 717.6 932.8 715.3 929.5 713.8C922.8 711 914.8 711.3 906.6 710.9C890.1 710.2 871.9 709.4 852.9 708.6C808.5 706.7 769.1 705 744.3 703.7L744.6 703.4C743.1 712.5 741.9 719.8 741.1 724.8C740.7 727.2 740.367 729.067 740.1 730.4C739.967 731 739.867 731.5 739.8 731.9C739.733 732.233 739.7 732.4 739.7 732.4C739.7 732.4 739.7 732.233 739.7 731.9C739.767 731.5 739.833 731 739.9 730.4C740.1 729.067 740.367 727.167 740.7 724.7C741.5 719.7 742.6 712.5 744 703.3V703L744.3 703.1C769.2 704.1 808.6 705.7 852.9 707.6C872 708.4 890.1 709.2 906.6 709.9C910.7 710.1 914.7 710.2 918.7 710.5C922.6 710.9 926.4 711.5 929.9 713.1C933.3 714.5 936.2 717.1 938 720C939.9 722.9 941 726.1 942.1 729C946.2 740.9 947.2 751.1 947.7 758.1C947.9 761.5 947.9 764.3 947.9 766.1C947.833 766.967 947.8 767.667 947.8 768.2C947.8 768.667 947.8 768.9 947.8 768.9Z" fill="#263238"/>
<path d="M916 638.5C916.3 638.5 916.5 654.6 916.5 674.5C916.5 694.4 916.3 710.6 916 710.6C915.7 710.6 915.5 694.4 915.5 674.5C915.5 654.6 915.7 638.5 916 638.5Z" fill="#263238"/>
<path d="M593.2 556.3C593.2 556.3 593.067 556.766 592.8 557.7C592.5 558.5 592 559.8 591.6 561.6C590.6 565 589.3 570.2 588 576.9C585.2 590.4 581.8 610.1 577.9 634.8C576 647.2 574 660.8 572 675.4C570.9 682.8 570.3 690.4 569.8 698.3C569.267 706.233 568.833 714.4 568.5 722.8C567.9 739.6 567.6 757.4 568 775.9C568.2 780.5 568.4 785.2 568.7 789.9C568.9 792.3 569.2 794.6 569.5 796.9C570 799.2 570.5 801.6 571.2 803.8C572.7 808.4 574.9 812.7 577.9 816.5C580.9 820.2 584.8 823.5 589.2 825.3H589.3C598.6 830.1 608.7 833.5 619 836.6C629.3 839.7 640 842.2 650.8 844.4C675.1 849.4 699.2 852.3 722.4 853.2C734.1 853.5 745.5 853.1 756.6 852.3C767.8 851.5 778.6 850.3 789.1 848.8C810.1 845.7 829.7 841.1 847.4 835.2C865.2 829.4 880.9 822.3 894.6 815L894.7 815.6C867.2 805.9 845.2 798.1 830 792.7C822.4 790 816.5 787.9 812.5 786.5C810.567 785.766 809.067 785.233 808 784.9C807 784.5 806.5 784.3 806.5 784.3C806.5 784.3 807.033 784.466 808.1 784.8C809.1 785.133 810.6 785.633 812.6 786.3C816.6 787.7 822.5 789.7 830.1 792.4C845.3 797.7 867.4 805.4 894.9 815L895.7 815.2L894.9 815.6C881.2 823 865.5 830.1 847.7 836C830 841.9 810.3 846.6 789.3 849.7C778.7 851.3 767.9 852.5 756.7 853.3C745.5 854.1 734.1 854.5 722.4 854.2C699.1 853.3 675 850.4 650.6 845.5C639.8 843.2 629.1 840.7 618.7 837.6C608.3 834.5 598.2 831 588.8 826.2H588.9C584.1 824.3 580.2 821 577.1 817.1C574 813.2 571.8 808.8 570.3 804.1C569.5 801.8 569.1 799.4 568.6 797.1C568.3 794.7 567.9 792.3 567.8 790C567.4 785.3 567.2 780.6 567.1 775.9C566.6 757.4 567 739.6 567.6 722.8C567.933 714.4 568.367 706.233 568.9 698.3C569.5 690.4 570.1 682.7 571.2 675.3C573.2 660.6 575.3 647.1 577.2 634.7C581.2 610 584.7 590.3 587.6 576.9C589.1 570.1 590.3 565 591.4 561.5C591.8 559.8 592.4 558.5 592.7 557.6C593.033 556.733 593.2 556.3 593.2 556.3Z" fill="#263238"/>
<path d="M659.5 727.1C684.1 699.9 683 651.4 668.9 617C667.6 654.3 663.2 687.3 659.8 723.5" fill="#E0E0E0"/>
<path d="M668.9 624C668.967 624 668.967 624.4 668.9 625.2C668.833 626.067 668.767 627.2 668.7 628.6C668.5 631.7 668.1 635.9 667.7 641.1C666.8 651.8 665.7 666.3 664.3 682.3C663.1 698.4 661.9 712.9 661.1 723.6C660.7 728.7 660.4 733 660.2 736.1C660.067 737.433 659.967 738.533 659.9 739.4C659.767 740.2 659.7 740.6 659.7 740.6C659.633 740.6 659.633 740.2 659.7 739.4C659.7 738.533 659.733 737.4 659.8 736C659.9 733.1 660.1 728.8 660.4 723.5C661 712.9 662 698.3 663.3 682.2C664.6 666.1 665.9 651.6 667 641C667.5 635.9 668 631.6 668.3 628.6C668.5 627.2 668.633 626.067 668.7 625.2C668.833 624.4 668.9 624 668.9 624Z" fill="#263238"/>
<path d="M729.6 574.8C729.9 574.8 730.1 584.2 730.1 595.9C730.1 607.6 729.9 617 729.6 617C729.3 617 729.1 607.6 729.1 595.9C729.1 584.2 729.3 574.8 729.6 574.8Z" fill="#263238"/>
<path d="M714.4 623.499C716.2 616.999 721.8 610.699 730.6 610.899C737.3 610.999 743 616.799 745.5 622.999C749.2 631.999 748.1 647.299 743.5 654.599C738.4 662.699 728.9 661.899 728.9 661.899C725.1 662.099 720.4 659.199 718.1 656.199C715.8 653.199 714 649.299 713.6 644.999" fill="#E0E0E0"/>
<path d="M714.4 623.5C714.4 623.5 714.6 621.8 716 619.2C716.7 617.8 717.7 616.3 719.3 614.8C720.8 613.3 722.9 612 725.5 611.2C726.8 610.8 728.2 610.5 729.7 610.5C731.2 610.4 732.8 610.6 734.3 611.1C737.3 612.1 740.2 614.2 742.4 617C744.7 619.7 746.4 623.2 747.3 627C748.1 630.7 748.4 634.7 748.1 638.8C747.7 645.1 746.5 651.3 743 656.1C741.3 658.4 738.9 660.1 736.4 661.1C733.9 662.1 731.3 662.5 728.9 662.3C726.9 662.4 725.1 661.8 723.6 661C722 660.2 720.6 659.2 719.5 658.2C717.2 656 716 653.6 715.1 651.6C714.2 649.6 713.9 647.9 713.7 646.8C713.633 646.2 713.6 645.733 713.6 645.4C713.6 645.133 713.6 645 713.6 645C713.7 644.9 713.7 647.5 715.5 651.4C716.5 653.3 717.8 655.7 720 657.7C721.1 658.7 722.4 659.6 723.9 660.3C725.4 661 727.1 661.6 728.9 661.5H729C733.5 661.7 738.9 659.9 742.3 655.5C745.5 651 746.7 644.9 747.1 638.8C747.5 630.8 746.2 622.9 741.7 617.6C739.6 614.9 736.9 612.9 734 611.9C732.6 611.4 731.1 611.3 729.7 611.3C728.3 611.3 727 611.5 725.7 611.9C723.2 612.6 721.2 613.9 719.7 615.3C718.2 616.6 717.1 618.1 716.3 619.4C714.8 621.9 714.5 623.5 714.4 623.5Z" fill="#263238"/>
<path d="M709.7 623.9C711.6 617.4 717.1 611.1 725.9 611.3C732.6 611.4 738.3 617.2 740.8 623.4C744.5 632.4 743.4 647.7 738.8 655C733.7 663.1 724.2 662.3 724.2 662.3C720.5 662.5 715.7 659.6 713.4 656.6C711.1 653.6 709.3 649.7 708.9 645.4" fill="#E0E0E0"/>
<path d="M709.7 623.9C709.7 623.9 709.9 622.2 711.3 619.6C712 618.2 713.1 616.7 714.6 615.2C716.1 613.7 718.2 612.4 720.8 611.6C722.1 611.2 723.5 610.9 725 610.9C726.5 610.8 728.1 611 729.6 611.5C732.7 612.5 735.5 614.6 737.8 617.4C740.1 620.1 741.7 623.6 742.6 627.4C743.4 631.1 743.7 635.1 743.5 639.2C743.1 645.5 741.8 651.7 738.4 656.5C736.6 658.8 734.2 660.5 731.7 661.5C729.2 662.5 726.7 662.9 724.2 662.7H724.3C722.2 662.8 720.4 662.2 718.9 661.4C717.3 660.6 716 659.6 714.8 658.6C712.6 656.4 711.3 654 710.4 652C709.5 650 709.2 648.3 709 647.2C708.933 646.6 708.9 646.133 708.9 645.8C708.9 645.533 708.9 645.4 708.9 645.4C709.1 645.3 709.1 647.9 710.9 651.8C711.8 653.7 713.1 656.1 715.3 658.1C716.4 659.1 717.7 660 719.2 660.7C720.7 661.4 722.4 662 724.2 661.9H724.3C728.8 662.1 734.3 660.3 737.6 655.9C740.8 651.4 742 645.3 742.4 639.2C742.9 631.2 741.5 623.3 737 618C734.9 615.3 732.2 613.3 729.3 612.3C727.9 611.8 726.4 611.7 725 611.7C723.6 611.7 722.3 611.9 721 612.3C718.6 613 716.5 614.3 715 615.7C713.5 617 712.4 618.5 711.7 619.8C710.1 622.3 709.8 623.9 709.7 623.9Z" fill="#263238"/>
<path d="M720 622.3C723.6 622.4 726.1 625.9 727.1 629.4C728.4 634.6 727.4 640.4 724.2 644.8C722.3 647.5 719.3 649.7 716 649.6C713.7 649.6 711.6 648.4 710 646.7C708.5 645.1 707.4 643 706.7 640.9C705.2 636.6 704.8 631.9 706.7 627.8C708.5 623.7 713 620.7 717.4 621.6" fill="#E0E0E0"/>
<path d="M720 622.3C720 622.3 720.3 622.2 720.8 622.3C721.3 622.3 722.1 622.5 723 623C724.7 624 726.7 626.4 727.5 629.9C728.4 633.3 728.3 637.8 726.3 642.1C725.3 644.3 723.9 646.4 721.8 648C719.8 649.6 716.9 650.7 714.1 649.9C711.3 649.1 709.2 647 707.9 644.8C706.6 642.6 705.9 640.2 705.4 637.9C704.4 633.3 705.2 628.8 707.4 625.8C709.5 622.9 712.4 621.7 714.3 621.4C715.3 621.2 716.1 621.3 716.6 621.4C717.133 621.533 717.4 621.6 717.4 621.6C717.4 621.7 716.3 621.4 714.4 621.8C712.6 622.2 709.9 623.5 708 626.3C706 629 705.3 633.3 706.3 637.7C706.8 639.9 707.6 642.2 708.8 644.3C710 646.4 712 648.2 714.4 648.9C716.8 649.6 719.3 648.7 721.2 647.2C723.1 645.7 724.5 643.7 725.4 641.7C727.4 637.7 727.6 633.4 726.8 630.1C726.1 626.7 724.3 624.4 722.8 623.4C721.2 622.3 720 622.4 720 622.3Z" fill="#263238"/>
<path d="M727.5 654.499C727.3 654.499 727.1 653.899 726.4 653.099C725.8 652.299 724.5 651.399 723 650.899C721.5 650.399 719.9 650.299 718.8 650.199C717.7 650.099 717 649.999 717 649.899C717 649.799 717.7 649.599 718.8 649.499C719.9 649.399 721.6 649.299 723.3 649.899C725.1 650.399 726.4 651.599 727 652.599C727.6 653.699 727.6 654.499 727.5 654.499Z" fill="#263238"/>
<path d="M729.1 618.899C729.1 618.999 728.7 619.599 727.8 620.299C726.9 621.099 725.4 621.899 723.6 622.199C721.8 622.499 720.1 622.299 719 621.899C717.9 621.599 717.3 621.099 717.3 620.999C717.4 620.699 720.1 621.799 723.4 621.199C726.7 620.599 728.9 618.699 729.1 618.899Z" fill="#263238"/>
<path d="M866.5 475.6C866.5 475.6 866.7 475.7 867.1 475.9C867.6 476.1 868.2 476.4 868.9 476.8C870.4 477.6 872.6 479 874.9 481.1C879.6 485.1 885.1 492.2 887.8 501.4C890.5 510.5 892 519 892.7 525.2C893 528.2 893.2 530.7 893.3 532.5C893.4 534.2 893.5 535.2 893.4 535.2C893.3 535.2 893.2 534.2 892.9 532.5C892.633 530.566 892.333 528.166 892 525.3C891.1 519.1 889.5 510.8 886.8 501.7C884.2 492.7 878.9 485.7 874.4 481.6C869.9 477.5 866.4 475.8 866.5 475.6Z" fill="#263238"/>
<path d="M841.6 695.799C847.4 695.599 852 689.799 857.8 690.099C862.1 690.299 865.8 694.499 865.4 698.799C865 703.099 860.7 706.599 856.4 706.099C850.3 705.399 846.8 698.299 840.8 696.899" fill="#263238"/>
<path d="M890.7 700.699C888.967 700.699 887.167 700.566 885.3 700.299L885.6 698.299C892.8 699.399 898.8 698.299 903.5 694.799C909.4 690.499 913.2 682.699 914.8 671.699L914.9 671.299C915.6 666.899 916.5 581.399 916.5 565.099C916.5 539.699 894.2 536.299 893.2 536.099C892.3 535.999 872.1 532.599 861.4 560.299C850.1 589.299 832.1 645.199 831 651.799C830.8 652.599 830.567 653.566 830.3 654.699C828.5 663.099 824.6 680.599 836.2 690.599C849.2 701.899 859.4 697.499 859.9 697.299L860.7 699.199C860.2 699.399 848.9 704.299 834.9 692.199C822.4 681.299 826.4 663.099 828.4 654.299C828.667 653.166 828.867 652.199 829 651.399C830.2 644.799 848.2 588.699 859.5 559.599C870.9 530.299 893.3 534.099 893.6 534.199C893.8 534.199 918.5 537.999 918.5 565.099C918.5 578.499 917.6 666.899 916.9 671.599L916.8 671.999C915.1 683.499 911.1 691.699 904.7 696.399C900.8 699.299 896.1 700.699 890.7 700.699Z" fill="#263238"/>
<path d="M917.5 581.5C917.2 581.6 916.9 577.2 913.3 571.5C911.5 568.7 908.9 565.6 905.4 562.9C901.9 560.3 897.5 558 892.5 556.9C882.6 554.6 873.1 557.1 867.2 560.2C861.3 563.3 858.6 566.7 858.4 566.5C858.4 566.433 858.567 566.233 858.9 565.9C859.2 565.5 859.7 564.9 860.4 564.3C861.7 562.9 863.9 561.2 866.9 559.5C869.9 557.9 873.7 556.4 878.2 555.6C882.6 554.7 887.7 554.7 892.8 555.9C897.9 557 902.4 559.4 906 562.2C909.5 565 912.2 568.2 913.9 571.1C915.7 574.1 916.6 576.7 917 578.6C917.3 579.5 917.3 580.2 917.4 580.7C917.467 581.233 917.5 581.5 917.5 581.5Z" fill="#263238"/>
<path d="M968.4 741.399C968.2 741.399 967.8 737.899 965.6 732.799C963.5 727.799 959.2 721.099 952.1 716.599C948.6 714.299 944.6 713.199 941.1 712.599C937.5 711.999 934.2 711.799 931.4 711.599C928.8 711.399 926.6 711.233 924.8 711.099C923.2 710.999 922.4 710.899 922.4 710.799C922.4 710.699 923.3 710.699 924.8 710.699C926.6 710.766 928.8 710.799 931.4 710.799C934.2 710.899 937.5 711.099 941.2 711.599C944.9 712.199 949 713.299 952.6 715.699C960 720.399 964.3 727.399 966.3 732.599C967.4 735.199 967.9 737.399 968.2 738.899C968.4 740.499 968.5 741.399 968.4 741.399Z" fill="#263238"/>
<path d="M867.5 708C867.5 708 887.2 678.2 892.2 674.3C897.2 670.4 940.2 651 945.2 654.1C950.2 657.2 947.1 664 947.1 664C947.1 664 965.3 657.6 967.2 660.1C969.2 662.7 969.5 666.9 967.2 670.4C967.2 670.4 977.3 668.8 977.3 671.9C977.3 675 976.1 678.9 971.5 682.4C966.8 685.9 936.7 705.9 934.2 711.5L924.5 710.9L867.5 708Z" fill="#B78876"/>
<path d="M924.1 699.5C924.1 699.4 924.3 698.8 925 697.6C925.7 696.4 926.7 694.8 928.2 692.9C931.2 689.2 936.2 684.7 942.5 680.9C948.8 677.2 954.9 674.7 959.4 673C961.6 672.1 963.4 671.5 964.7 671.1C965.9 670.7 966.7 670.5 966.7 670.5C966.7 670.6 966 670.9 964.8 671.5C963.4 672.1 961.667 672.833 959.6 673.7C955.3 675.6 949.2 678.1 943 681.8C936.8 685.5 931.9 689.8 928.8 693.4C925.7 697 924.3 699.6 924.1 699.5Z" fill="#AA6550"/>
<path d="M899.2 699C899.1 698.9 899.4 698.2 900.1 696.8C900.8 695.4 901.8 693.4 903.1 691C904.5 688.7 906.2 685.8 908.6 683C909.8 681.6 911 680.2 912.7 678.9C914.3 677.8 916.1 676.8 917.9 675.7C925.1 671.5 932 668.1 937.1 666.1C939.6 665.1 941.8 664.4 943.3 664C944.8 663.7 945.6 663.6 945.6 663.6C945.7 663.8 942.4 664.6 937.4 666.8C932.4 668.9 925.6 672.4 918.4 676.6C916.6 677.6 914.9 678.7 913.3 679.8C911.8 680.8 910.5 682.3 909.3 683.6C907 686.3 905.2 689.1 903.8 691.4C902.467 693.6 901.367 695.466 900.5 697C899.7 698.3 899.2 699 899.2 699Z" fill="#AA6550"/>
<path d="M1423.9 902.8C1423.9 903 1122.2 903.3 750 903.3C377.8 903.3 76.1 903 76.1 902.8C76.1 902.5 377.8 902.2 750 902.2C1122.2 902.2 1423.9 902.5 1423.9 902.8Z" fill="#263238"/>
</svg>
