<svg width="512" height="512" viewBox="0 0 512 512" fill="none" xmlns="http://www.w3.org/2000/svg">
<g clip-path="url(#clip0_505_958)">
<rect width="512" height="512" fill="white"/>
<path d="M592.123 302.823C592.007 303.75 591.853 304.677 591.66 305.604C590.095 313.427 585.981 320.844 580.476 325.885C577.618 328.511 574.837 331.196 572.133 333.939C566.744 339.27 561.529 344.774 556.256 350.163C563.151 355.958 568.482 361.926 572.422 367.894C611.94 427.402 518.071 491.662 517.665 493.053C515.406 495.428 509.206 497.398 499.703 499.021H-0.64189C-3.24936 496.645 -5.62506 494.096 -7.82693 491.43C-16.8082 480.71 -23.7035 467.499 -26.9484 453.419C-29.44 442.757 -29.9035 431.053 -24.7465 421.144C-20.4007 412.684 -14.8381 405.21 -8.92786 397.967C-8.96648 395.533 -8.86991 393.099 -8.63814 390.666C-12.2307 391.593 -15.8232 392.385 -19.4157 393.042C-25.6736 394.316 -31.9895 394.799 -38.3633 394.49C-40.3334 394.027 -42.2842 393.582 -44.2156 393.157C-48.0399 391.361 -47.4025 388.464 -45.7222 385.914C-50.1259 384.524 -54.4137 382.843 -58.5277 380.7C-64.3221 377.744 -70.7539 373.572 -75.2156 367.894C-77.1277 365.46 -78.6342 362.795 -79.6193 359.84C-82.2847 351.786 -78.5184 342.341 -71.5072 338.516C-69.0156 337.126 -66.6399 335.619 -64.3801 333.939C-61.2511 331.621 -58.238 329.072 -55.3408 326.406C-50.7633 321.597 -46.3596 316.556 -41.8399 311.688C-40.3334 309.718 -38.6917 307.999 -36.9147 306.531C-39.2904 306.473 -41.6082 306.184 -43.868 305.604C-46.0698 305.025 -48.2138 304.098 -50.1259 302.823C-50.2418 302.746 -50.377 302.649 -50.5315 302.533C-56.9633 297.898 -56.0362 289.728 -52.6754 283.296C-50.9371 280.051 -48.7932 277.038 -46.3595 274.257C-47.6923 272.692 -48.8511 270.838 -49.6623 268.868C-50.7633 266.203 -51.2268 263.189 -50.9951 259.887C-50.1066 253.049 -47.5377 247.023 -43.2885 241.808C-40.5845 238.911 -37.8804 236.014 -35.1764 233.117C-34.0948 232.267 -33.0132 231.359 -31.9315 230.393C-27.5858 224.947 -23.7615 219.036 -19.9372 213.126C-21.83 213.705 -23.7422 214.266 -25.6736 214.806C-31.7384 216.545 -37.8804 217.762 -44.0997 218.457L-49.6044 218.341C-56.0362 217.124 -47.8661 211.098 -46.7072 210.287C-44.4474 208.606 -42.0717 207.1 -39.6381 205.709C-30.7147 196.554 -23.8194 185.139 -15.9391 174.883C-17.6774 173.203 -19.1839 171.349 -20.2848 169.263C-23.8194 162.541 -19.8792 155.066 -13.911 152.111C-7.71104 148.982 -2.03255 144.926 3.29828 140.349C25.4328 119.315 42.1786 92.3712 60.257 67.4553C65.7617 59.8647 76.7131 57.1413 84.8252 55.7507C97.9205 53.4329 111.595 53.9544 124.575 56.6778C124.961 56.7164 125.328 56.7743 125.676 56.8516C129.229 53.2977 132.88 49.8211 136.627 46.4217C140.529 45.0697 144.198 45.5912 147.636 47.9862C150.881 46.8273 154.3 46.0741 157.661 45.6105C158.665 45.4946 159.689 45.398 160.732 45.3208C164.556 40.5115 168.496 35.7021 172.61 31.1825C179.158 24.0554 189.877 24.9246 197.874 27.532C208.188 30.8928 217.517 37.5563 225.397 45.4946C230.921 39.932 237.14 35.451 244.055 32.0517C248.42 30.4292 252.766 28.8261 257.092 27.2423C268.565 24.2872 281.429 24.4031 292.148 30.1975C301.419 35.2386 307.967 44.6255 308.604 56.0404C308.72 61.3326 307.947 66.3737 306.286 71.1637C306.634 71.4728 306.982 71.7625 307.329 72.0329C308.45 73.0372 309.551 74.0802 310.632 75.1618C315.036 72.8055 319.729 71.7045 324.713 71.8591C328.344 72.0908 331.975 72.3226 335.606 72.5544C342.733 73.4815 349.802 75.2777 356.64 77.7693C360.522 73.2497 368.924 74.4086 373.559 74.988C385.669 76.4946 397.606 80.6665 408.905 85.5917C420.146 90.5749 431.445 96.601 441.122 104.655C445.332 107.707 448.654 111.608 451.088 116.36C451.204 117.866 451.3 119.392 451.378 120.937C449.118 124.994 446.51 128.876 443.903 132.758C440.967 137.123 437.993 141.45 434.98 145.737C440.948 142.261 446.221 137.509 451.494 132.932C458.408 128.567 465.844 126.21 473.802 125.863C478.09 126.133 482.397 126.384 486.723 126.616C499.992 128.992 512.856 135.713 522.417 146.085C530.355 154.661 536.381 166.423 536.207 178.939C536.014 186.935 533.542 193.966 528.791 200.031C526.048 202.542 523.305 205.033 520.563 207.505C519.114 208.78 517.665 210.113 516.159 211.33C517.395 211.523 518.631 211.755 519.867 212.025C529.08 213.937 539.916 218.109 545.42 227.148C549.882 234.391 549.013 245.343 542.987 251.427C539.665 254.826 536.343 258.226 533.02 261.625C534.179 261.355 535.319 261.084 536.439 260.814C549.187 259.133 562.688 261.103 573.987 267.999C574.45 268.269 574.895 268.559 575.319 268.868C583.953 274.604 590.964 283.702 592.181 294.943C592.471 297.55 592.471 300.216 592.123 302.823Z" fill="#B9F9F9"/>
<path d="M579.955 411.932C569.815 454.926 517.434 490.967 517.144 492.01C514.884 494.386 508.684 496.356 499.181 497.978H-1.1634C-3.77087 495.602 -6.20451 492.995 -8.40637 490.388C-17.3297 479.668 -24.225 466.457 -27.4699 452.376C-29.9615 441.715 -30.425 430.01 -25.326 420.102C-23.8194 417.262 -22.2549 414.539 -20.5746 411.932H579.955Z" fill="#4BA3B7"/>
<path d="M589.689 309.719C587.604 315.571 584.185 320.902 579.955 324.842C577.096 327.469 574.296 330.154 571.553 332.896C566.222 338.227 561.007 343.732 555.734 349.121C562.63 354.915 567.961 360.883 571.901 366.851C573.484 369.246 574.856 371.641 576.015 374.036H-68.2043C-70.9857 371.95 -73.5931 369.575 -75.737 366.851C-77.6492 364.418 -79.1557 361.752 -80.1408 358.739C-82.8062 350.685 -79.0398 341.298 -72.0286 337.474C-69.5371 336.083 -67.1614 334.577 -64.9016 332.896C-61.7726 330.579 -58.7595 328.029 -55.8623 325.364C-51.2848 320.554 -46.881 315.513 -42.3614 310.588C-42.1296 310.318 -41.8786 310.028 -41.6082 309.719H589.689Z" fill="#4BA3B7"/>
<path d="M566.28 497.456C566.28 505.511 427.215 512 255.702 512C84.1879 512 -54.8772 505.511 -54.8772 497.456C-54.8772 489.402 84.1879 482.854 255.702 482.854C427.215 482.854 566.28 489.402 566.28 497.456Z" fill="#84A5A4"/>
<path d="M67.9636 245.806V261.509C67.9636 261.857 67.8477 262.146 67.6159 262.378C67.4421 262.61 67.1524 262.726 66.8627 262.726H53.3038C52.6664 262.726 52.2029 262.204 52.2029 261.509V245.806C52.2029 245.169 52.6664 244.647 53.3038 244.647H66.8627C67.5001 244.647 67.9636 245.169 67.9636 245.806Z" fill="#14A7D2"/>
<path d="M67.9636 251.832V257.453H52.2029V251.832H67.9636Z" fill="#C3E1E1"/>
<g style="mix-blend-mode:multiply" opacity="0.7">
<path d="M67.9636 245.806V261.509C67.9636 261.857 67.8478 262.146 67.616 262.378C67.4422 262.61 67.1524 262.726 66.8627 262.726H62.6328C63.2702 262.726 63.7917 262.146 63.7917 261.509V245.806C63.7917 245.169 63.2702 244.647 62.6328 244.647H66.8627C67.5001 244.647 67.9636 245.169 67.9636 245.806Z" fill="#14A7D2"/>
</g>
<path d="M69.4122 241.98V245.515C69.4122 246.442 68.659 247.137 67.7319 247.137H65.8197C66.3412 246.79 66.6889 246.268 66.6889 245.631V241.69C66.6889 241.111 66.4571 240.647 66.1094 240.3H67.7319C68.659 240.3 69.4122 241.053 69.4122 241.98Z" fill="#AAC1C0"/>
<path d="M65.8198 247.137H52.2609C51.3338 247.137 50.5806 246.442 50.5806 245.515V241.98C50.5806 241.053 51.3338 240.3 52.2609 240.3H66.1095C66.4572 240.647 66.6889 241.111 66.6889 241.69V245.631C66.6889 246.268 66.3413 246.79 65.8198 247.137Z" fill="#C3E1E1"/>
<path d="M54.0573 244.761C54.0573 245.341 53.5937 245.804 53.0143 245.804H52.9563C52.3769 245.804 51.9133 245.341 51.9133 244.761V242.791C51.9133 242.154 52.3769 241.69 52.9563 241.69H53.0143C53.5937 241.69 54.0573 242.154 54.0573 242.791V244.761Z" fill="#E2F7F6"/>
<path d="M85.5206 241.229V259.829C85.5206 260.099 85.5013 260.35 85.4627 260.582C85.115 261.915 83.8982 262.842 82.5076 262.842H73.4104C71.9618 262.842 70.8029 261.915 70.4552 260.582C70.378 260.35 70.3394 260.099 70.3394 259.829V241.229C70.3394 240.012 70.687 238.853 71.2665 237.868L74.2216 234.102H81.6963L84.5935 237.868C85.2309 238.853 85.5206 240.012 85.5206 241.229Z" fill="#511709"/>
<path d="M82.8553 231.898V232.014C82.8553 232.652 81.6964 233.173 81.6964 233.173V234.1H74.2216V233.173C74.2216 233.173 73.0627 232.652 73.0627 232.014V231.898H82.8553Z" fill="#796BBF"/>
<path d="M85.5206 241.229V259.829C85.5206 260.099 85.5013 260.35 85.4627 260.582C85.115 261.915 83.8982 262.842 82.5076 262.842H73.4104C72.4833 262.842 71.6721 262.494 71.0926 261.857C70.8029 261.509 70.5711 261.045 70.4552 260.582C70.378 260.35 70.3394 260.099 70.3394 259.829V241.229C70.3394 240.012 70.687 238.853 71.2665 237.868L74.1057 234.217L74.2216 234.102H81.6963L84.5935 237.868C85.2309 238.853 85.5206 240.012 85.5206 241.229Z" fill="#796BBF"/>
<path d="M77.2347 231.899H73.0049C72.7731 231.899 72.5992 231.668 72.5992 231.436C72.5992 231.204 72.7731 231.03 73.0049 231.03H77.2347C77.5245 231.03 77.6983 231.204 77.6983 231.436C77.6983 231.668 77.5245 231.899 77.2347 231.899Z" fill="#FCE9BB"/>
<g style="mix-blend-mode:multiply">
<path d="M82.8552 231.899H80.4216C80.1898 231.899 79.958 231.668 79.958 231.436C79.958 231.204 80.1898 231.03 80.4216 231.03H82.8552C83.087 231.03 83.3187 231.204 83.3187 231.436C83.3187 231.668 83.087 231.899 82.8552 231.899Z" fill="#F9E19B"/>
</g>
<path d="M83.3188 231.435C83.3188 231.667 83.0871 231.899 82.8553 231.899H73.0049C72.7731 231.899 72.5992 231.667 72.5992 231.435C72.5992 231.204 72.7731 230.972 73.0049 230.972H73.4105V225.062C73.4105 224.54 73.7002 224.077 74.0478 223.787C74.2024 223.71 74.3569 223.632 74.5114 223.555C74.6659 223.516 74.8204 223.497 74.9749 223.497H80.8852C81.0783 223.497 81.2715 223.536 81.4646 223.613C81.6192 223.69 81.7737 223.787 81.9282 223.903C82.2179 224.192 82.4497 224.598 82.4497 225.062V230.972H82.8553C83.0871 230.972 83.3188 231.204 83.3188 231.435Z" fill="#F9E19B"/>
<path d="M78.973 247.66V252.759H70.3394V247.66H78.973Z" fill="#F9E19B"/>
<g style="mix-blend-mode:multiply" opacity="0.6">
<path d="M85.5205 241.229V259.829C85.5205 260.099 85.5012 260.35 85.4626 260.582C85.1149 261.915 83.8981 262.842 82.5075 262.842H78.6832C79.0694 262.842 79.4171 262.784 79.7261 262.668C80.6532 262.378 81.3486 261.567 81.6383 260.582C81.6769 260.35 81.7155 260.099 81.7542 259.829V241.229C81.7542 240.012 81.4065 238.853 80.8271 237.868L77.8719 234.102H81.6962L84.5934 237.868C85.2308 238.853 85.5205 240.012 85.5205 241.229Z" fill="#380E06"/>
</g>
<g style="mix-blend-mode:color-dodge" opacity="0.4">
<path d="M78.6254 227.553C78.6254 229.176 78.1618 230.74 77.4665 231.899H73.0049C72.7731 231.899 72.5992 231.667 72.5992 231.435C72.5992 231.204 72.7731 230.972 73.0049 230.972H73.4105V225.062C73.4105 224.54 73.7002 224.077 74.0478 223.787C74.2024 223.71 74.3569 223.632 74.5114 223.555C74.6659 223.516 74.8204 223.497 74.9749 223.497H77.6404C78.2777 224.656 78.6254 226.047 78.6254 227.553Z" fill="#F9E19B"/>
</g>
<path d="M120.055 260.234L116.289 273.098H50.8123L47.6833 260.234H120.055Z" fill="#B7B7B7"/>
<path d="M502.6 495.08C502.6 498.094 393.434 500.527 258.888 500.527C124.285 500.527 15.1188 498.094 15.1188 495.08C15.1188 492.067 124.285 489.634 258.888 489.634C393.434 489.634 502.6 492.067 502.6 495.08Z" fill="#5B7574"/>
<path d="M95.7185 281.79V493.748H48.8999V281.79H95.7185Z" fill="#BCBCBC"/>
<path d="M337.75 281.79V493.748H192.774V331.216H55.7372V493.748H46.1765V281.79H337.75Z" fill="#E6E7E9"/>
<path d="M337.75 281.79V493.748H218.675V281.79H337.75Z" fill="#BCBCBC"/>
<path d="M349.049 279.24C349.049 282.659 347.658 285.44 346.036 285.44H37.9486C36.2682 285.44 34.8776 282.659 34.8776 279.24C34.8776 277.502 35.2252 275.938 35.8047 274.837C36.3262 273.678 37.0794 272.982 37.9486 272.982H346.036C347.658 272.982 349.049 275.764 349.049 279.24Z" fill="#E6E7E9"/>
<path d="M349.049 279.24C349.049 282.659 347.021 285.44 344.587 285.44H202.277C199.843 285.44 197.873 282.659 197.873 279.24C197.873 277.502 198.337 275.938 199.148 274.837C199.959 273.678 201.06 272.982 202.277 272.982H344.587C347.021 272.982 349.049 275.764 349.049 279.24Z" fill="#BCBCBC"/>
<path d="M310.748 290.075H39.3392V285.382H310.748V290.075Z" fill="#BCBCBC"/>
<path d="M333.172 246.791C333.134 247.447 333.056 248.065 332.94 248.645C332.67 250.113 332.168 251.445 331.434 252.643C330.7 253.802 329.773 254.845 328.653 255.772C327.146 257.047 325.408 258.09 323.38 259.017C301.709 269.041 251.587 262.435 250.428 261.624C248.169 260.06 249.385 254.903 248.632 252.469C256.802 249.166 292.322 241.692 303.679 237.578C304.142 237.423 304.587 237.249 305.012 237.056C305.243 236.979 305.456 236.882 305.649 236.766C306.035 236.612 306.364 236.457 306.634 236.303L318.454 240.938L333.172 246.791Z" fill="#FFB278"/>
<path d="M257.44 257.626C255.122 259.307 249.791 259.307 246.662 260.002C242.896 260.813 239.245 261.625 235.421 262.436C228.989 263.768 221.862 260.35 215.373 258.496C215.257 257.163 213.692 253.686 215.141 252.933C218.502 251.195 218.907 256.815 220.877 256.294C223.89 255.483 230.554 251.774 236.058 254.497C243.823 251.426 245.619 253.397 252.746 252.006L257.44 257.626Z" fill="#FFB278"/>
<path d="M262.191 257.626C259.815 259.307 254.543 259.307 251.414 260.002C247.647 260.813 243.997 261.625 240.173 262.436C233.683 263.768 226.614 260.35 220.066 258.496C220.008 257.163 218.444 253.686 219.834 252.933C223.253 251.195 223.659 256.815 225.629 256.294C228.584 255.483 235.305 251.774 240.752 254.497C248.574 251.426 250.371 253.397 257.498 252.006L262.191 257.626Z" fill="#FFB278"/>
<path d="M267.116 257.395C264.799 259.075 259.526 259.133 256.339 259.771C252.63 260.582 248.922 261.393 245.098 262.204C238.666 263.537 231.597 260.118 225.049 258.264C224.933 256.931 223.369 253.513 224.817 252.759C228.178 250.963 228.642 256.584 230.612 256.062C233.567 255.251 240.23 251.543 245.735 254.324C253.558 251.195 255.354 253.165 262.423 251.774L267.116 257.395Z" fill="#FFB278"/>
<path d="M254.716 250.152V255.135C250.255 255.193 244.518 258.322 238.84 256.12C236.522 255.251 235.247 254.44 232.93 253.918C230.148 253.339 226.556 253.107 226.092 251.079C228.41 248.008 231.481 251.311 236.928 249.283C241.969 247.371 249.038 250.21 254.716 250.152Z" fill="#FFB278"/>
<path d="M341.169 224.078C339.604 230.509 337.518 239.143 334.099 246.386C333.752 247.159 333.365 247.912 332.941 248.646C332.322 249.843 331.646 250.983 330.912 252.064L325.871 250.558L316.079 247.545L300.028 242.62C301.651 241.577 303.099 239.954 304.374 237.984C304.606 237.714 304.818 237.405 305.012 237.057C305.089 236.941 305.166 236.825 305.243 236.709C305.997 235.435 306.692 234.044 307.387 232.595C307.619 232.093 307.851 231.572 308.083 231.031C311.038 224.251 313.24 216.371 315.268 211.736C318.165 205.072 322.395 195.048 329.232 191.571C345.109 183.575 342.791 217.762 341.169 224.078Z" fill="#FFB278"/>
<path d="M336.185 237.694C334.215 240.302 303.157 226.453 303.157 226.453C308.488 218.978 325.929 186.704 330.217 180.736C333.114 176.737 336.127 172.855 344.703 173.435C352.989 174.014 356.002 178.36 356.813 182.822C358.436 192.093 341.632 230.451 336.185 237.694Z" fill="#425B28"/>
<path d="M341.516 227.787C340.126 230.452 337.924 235.088 336.185 237.695C333.404 241.809 306.692 231.785 301.014 227.671L307.214 219.037C310.632 221.645 335.722 226.222 341.516 227.787Z" fill="#6B8E43"/>
<path d="M334.099 246.386C333.752 247.159 333.365 247.912 332.94 248.646C332.67 250.114 332.168 251.447 331.434 252.644C331.279 252.451 331.105 252.258 330.912 252.065C327.899 248.298 324.191 245.17 320.077 242.678C315.615 239.955 310.748 238.042 305.649 236.768C305.533 236.729 305.398 236.71 305.243 236.71C305.996 235.435 306.692 234.044 307.387 232.596C307.619 232.094 307.851 231.572 308.082 231.031C318.049 233.581 327.204 238.796 334.099 246.386Z" fill="#306E87"/>
<path d="M328.653 255.773C327.146 257.048 325.408 258.091 323.38 259.018C321.468 254.788 319.034 250.964 316.079 247.545C312.834 243.779 308.894 240.534 304.374 237.985C304.142 237.869 303.911 237.733 303.679 237.579C304.142 237.424 304.587 237.251 305.012 237.057C305.089 236.941 305.166 236.826 305.243 236.71C305.997 235.435 306.692 234.044 307.387 232.596C311.501 234.856 315.21 237.695 318.455 240.94C318.995 241.519 319.536 242.098 320.077 242.678C322.279 245.112 324.191 247.719 325.871 250.558C326.914 252.219 327.841 253.958 328.653 255.773Z" fill="#306E87"/>
<path d="M293.712 266.028C293.712 269.911 290.699 273.098 287.049 273.098H185.068C181.359 273.098 178.404 269.911 178.404 266.028C178.404 262.088 181.359 258.901 185.068 258.901H287.049C290.699 258.901 293.712 262.088 293.712 266.028Z" fill="#FFFF97"/>
<path d="M338.039 266.028C338.039 269.911 335.548 273.098 332.477 273.098H246.952C243.881 273.098 241.389 269.911 241.389 266.028C241.389 262.088 243.881 258.901 246.952 258.901H332.477C335.548 258.901 338.039 262.088 338.039 266.028Z" fill="#E0DD85"/>
<path d="M264.625 228.597L264.335 240.418C260.279 241.287 255.47 239.549 251.645 237.752C250.023 236.941 246.43 235.724 245.619 233.928C245.04 232.537 246.141 229.351 246.72 228.018C248.516 223.904 251.182 222.166 255.006 224.251C257.208 225.41 262.249 229.466 264.625 228.597Z" fill="#FFB278"/>
<path d="M291.047 235.26C289.772 239.2 286.354 240.823 282.761 241.924C275.171 244.299 267.58 240.301 259.989 241.924L273.838 229.987C278.01 228.017 283.225 224.888 287.976 226.858C291.395 228.307 292.206 231.899 291.047 235.26Z" fill="#EDEFEA"/>
<path d="M294.06 226.105C295.045 228.307 297.711 232.943 292.843 231.552C289.83 230.625 289.309 227.728 286.18 227.96C283.456 228.191 274.301 233.986 272.215 234.797L262.365 230.915C263.929 230.857 266.015 229.234 267.58 228.423C269.956 227.148 272.331 225.816 274.765 224.483C276.329 223.614 278.01 222.281 279.922 222.049C281.544 221.817 283.63 222.281 285.311 222.281C288.961 222.281 292.438 222.455 294.06 226.105Z" fill="white"/>
<path d="M297.305 233.522C297.131 235.955 294.813 237.578 292.959 238.679C290.815 239.953 287.339 240.707 289.077 237.288C290.12 235.202 292.554 233.522 293.191 231.204L293.133 229.987C294.929 228.017 297.421 231.725 297.305 233.522Z" fill="white"/>
<path d="M295.799 239.664C294.35 241.634 291.511 241.75 289.367 241.692C286.875 241.634 283.514 240.359 286.875 238.389C288.903 237.23 291.8 237.114 293.597 235.55L294.234 234.449C296.784 233.754 296.899 238.215 295.799 239.664Z" fill="white"/>
<path d="M293.075 241.809C291.627 243.721 288.845 243.895 286.643 243.837C284.21 243.721 280.849 242.504 284.152 240.534C286.18 239.375 289.135 239.201 290.931 237.695L291.511 236.594C294.06 235.841 294.176 240.36 293.075 241.809Z" fill="white"/>
<path d="M272.331 249.224L272.1 248.934L280.907 241.691L281.139 241.981L272.331 249.224Z" fill="#CCCCCC"/>
<path d="M279.632 244.589L278.01 242.677L291.221 231.783L292.843 233.695L279.632 244.589Z" fill="#FFFFDE"/>
<path d="M293.597 235.665L289.483 230.682L290.352 229.929L294.466 234.912L293.597 235.665Z" fill="#FFFFDE"/>
<path d="M282.182 237.867C280.617 237.519 278.415 236.303 276.851 236.418C274.881 236.534 274.359 240.069 272.969 241.112C271.404 242.271 269.956 243.835 268.043 244.183C266.885 244.357 259.873 241.112 259.873 241.112C258.309 236.534 259.526 230.276 262.655 226.452C267.58 231.319 276.677 226.104 282.008 229.813C283.804 231.088 288.44 232.362 289.483 234.39C291.627 238.736 284.499 238.389 282.182 237.867Z" fill="white"/>
<path d="M294.466 229.987C294.292 232.363 292.032 233.985 290.178 235.144C288.034 236.419 284.557 237.172 286.296 233.754C287.339 231.61 289.715 229.929 290.41 227.67L290.352 226.453C292.09 224.425 294.582 228.133 294.466 229.987Z" fill="white"/>
<path d="M258.888 226.685C254.427 230.336 249.328 234.044 244.692 237.753C243.533 238.68 242.394 239.607 241.273 240.534C234.146 233.291 227.541 223.614 224.006 212.199C220.414 200.437 219.429 187.863 217.69 175.753L228.12 142.551L241.795 99.209C246.488 108.712 248.343 115.433 247.358 125.747C246.257 136.872 240.115 156.979 240.694 168.336C241.215 179.461 242.258 190.876 244.286 201.712C245.156 206.463 246.141 210.983 248.574 215.27C250.139 218.052 257.092 225.063 258.888 226.685Z" fill="white"/>
<path d="M244.692 237.752C243.533 238.679 242.394 239.606 241.273 240.533C230.032 233.812 221.225 218.689 217.69 207.274C214.098 195.511 219.429 187.863 217.69 175.752L228.12 142.55L230.032 140.522C223.195 153.907 224.064 180.909 226.324 196.149C228.931 213.474 235.131 224.599 244.692 237.752Z" fill="#DFEAE8"/>
<path d="M200.655 245.98C189.472 273.098 188.255 326.869 191.963 329.303C182.634 330.114 106.148 324.378 96.7036 310.008C105.859 278.197 139.466 251.369 151.634 220.427C158.298 203.449 164.15 186.124 170.06 168.799C170.756 166.713 171.451 164.646 172.146 162.599C176.956 148.518 179.505 132.931 185.126 119.546L236.406 89.2998C236.928 91.154 243.301 95.7895 244.924 99.4979C247.01 104.307 245.214 112.13 244.344 117.113C241.911 130.324 236.29 151.531 232.408 164.569C223.253 195.221 212.765 216.486 200.655 245.98Z" fill="white"/>
<path d="M165.251 330.404C165.135 330.597 165.019 330.771 164.903 330.926C155.632 331.737 147.462 328.144 138.713 324.668C130.775 321.481 104.932 313.253 96.7036 310.008C105.859 278.197 139.466 251.369 151.634 220.427C158.298 203.449 164.15 186.124 170.06 168.799L227.715 139.479C226.729 143.42 223.89 146.896 221.92 150.373C219.023 155.472 216.184 160.745 213.692 166.076C208.245 177.954 204.131 190.354 199.844 202.812C189.935 232.016 182.171 261.625 175.217 291.466C172.204 304.445 169.075 317.541 165.251 330.404Z" fill="#C7D3D1"/>
<path d="M147.868 498.267C142.653 500.237 129.963 499.6 124.459 498.673C121.909 498.209 117.216 497.63 115.014 496.413C112.464 494.964 114.261 492.82 114.261 489.575C114.261 485.925 114.55 482.101 114.55 478.392C113.797 475.843 113.334 473.525 113.044 472.25C111.653 465.76 110.494 459.56 110.494 452.955L127.124 428.039C129.094 429.43 125.618 449.131 125.618 453.418C125.618 460.14 126.023 466.977 126.371 473.757C126.429 475.495 127.124 478.392 127.414 481.289C129.905 483.839 135.932 487.779 138.423 489.575C142.016 492.183 155.864 495.312 147.868 498.267Z" fill="#FFB278"/>
<path d="M154.474 498.557C146.072 502.729 115.709 499.542 112.406 497.92C111.653 495.254 113.102 490.387 113.16 489.576C113.334 486.621 128.051 482.97 128.051 482.97C130.717 487.548 130.369 478.972 133.904 482.796C136.917 486.041 143.928 491.198 149.433 491.836C152.214 492.125 154.01 493.053 155.053 494.096C155.478 494.52 155.768 494.984 155.922 495.486C156.27 496.703 155.806 497.862 154.474 498.557Z" fill="white"/>
<path d="M138.539 489.113L122.083 488.649C121.272 486.853 122.257 485.694 121.851 483.55C121.446 481.058 123.937 478.161 126.95 477.929C130.659 477.698 131.933 478.509 133.092 480.943C134.193 483.26 135.7 486.215 138.539 489.113Z" fill="white"/>
<path d="M205.348 498.673C200.133 500.585 187.386 500.005 181.939 499.02C179.331 498.615 174.696 498.035 172.494 496.76C169.887 495.312 171.741 493.168 171.741 489.981C171.741 486.273 172.031 482.506 171.973 478.798C171.277 476.248 170.814 473.873 170.524 472.598C169.133 466.166 167.974 459.908 167.974 453.303L184.546 428.387C186.574 429.835 183.04 449.478 183.04 453.824C183.04 460.488 183.503 467.383 183.793 474.104C183.909 475.843 184.546 478.74 184.836 481.637C187.328 484.187 193.354 488.127 195.903 489.981C199.496 492.588 213.287 495.659 205.348 498.673Z" fill="#FFB278"/>
<path d="M211.954 498.905C203.552 503.077 173.131 499.89 169.829 498.268C169.075 495.603 170.524 490.735 170.582 489.982C170.756 486.969 185.473 483.377 185.473 483.377C188.197 487.896 187.791 479.32 191.384 483.145C194.339 486.39 201.35 491.547 206.913 492.184C209.636 492.474 211.49 493.401 212.475 494.444C212.9 494.907 213.19 495.371 213.344 495.834C213.75 497.051 213.229 498.268 211.954 498.905Z" fill="white"/>
<path d="M196.019 489.461L179.505 488.997C178.694 487.201 179.679 486.042 179.331 483.898C178.868 481.406 181.359 478.509 184.372 478.335C188.139 478.046 189.414 478.857 190.515 481.29C191.673 483.608 193.122 486.563 196.019 489.461Z" fill="white"/>
<path d="M186.516 424.504C186.285 446.233 185.937 463.732 185.3 471.555C174.29 471.902 163.86 472.424 153.72 471.091C152.214 432.385 150.939 349.409 146.535 286.366C144.102 252.122 140.799 223.787 135.989 211.677L181.475 219.441C178.81 221.469 185.01 250.731 185.531 257.51C186.343 268.288 187.096 363.374 186.516 424.504Z" fill="#112C45"/>
<path d="M186.516 424.505C186.284 446.234 185.937 463.733 185.299 471.556C174.29 471.903 163.86 472.425 153.72 471.092C152.214 432.386 150.939 349.41 146.535 286.367C146.651 280.399 146.941 274.431 147.52 268.521L148.157 253.05C152.271 258.439 152.561 275.068 152.909 282.891C153.488 295.291 153.894 307.285 154.647 319.627C156.154 345.644 158.24 372.356 164.15 397.388C166.931 409.324 174.464 426.649 186.516 424.505Z" fill="#112C45"/>
<path d="M162.122 206.288C150.707 233.753 142.479 349.062 137.902 424.215C136.801 442.467 135.932 458.402 135.236 470.048C125.038 471.207 114.666 470.512 103.657 469.932C101.918 439.975 102.73 331.505 102.73 304.793C102.73 292.566 104.99 277.211 106.612 264C106.96 261.219 107.249 258.495 107.481 255.946C108.176 249.166 114.84 219.963 112.232 217.935L162.122 206.288Z" fill="#112C45"/>
<path d="M137.902 424.215C136.801 442.467 135.932 458.402 135.236 470.049C125.038 471.207 114.666 470.512 103.657 469.933C101.918 439.976 102.73 331.505 102.73 304.793C102.73 292.567 104.99 277.212 106.612 264L119.591 245.922C121.388 259.133 116.636 276.922 116.057 291.234C115.304 309.312 115.419 327.623 114.84 345.759C114.434 359.666 114.145 374.036 114.84 387.942C115.304 397.677 115.825 408.744 122.72 416.45C126.834 421.028 132.223 423.114 137.902 424.215Z" fill="#112C45"/>
<path d="M203.784 184.56C195.498 199.393 188.023 264.985 185.184 265.739C168.206 263.305 99.427 249.341 102.324 231.61C109.567 186.935 200.365 79.8551 198.279 68.9616C202.625 68.556 207.434 68.6719 211.201 66.7598L236.696 89.6476C239.303 91.0962 226.44 144.173 203.784 184.56Z" fill="#0071CE"/>
<path d="M227.541 39.6992L227.772 40.2787L243.07 80.0281C242.027 81.5926 239.825 84.6636 238.202 87.0972C237.971 87.4449 237.681 87.6767 237.623 88.0244C234.436 101.641 224.412 113.114 224.412 113.114C224.412 113.114 206.681 94.3982 206.333 68.0917C211.432 64.9627 215.836 60.9646 219.892 55.1702C222.963 50.7665 225.571 46.131 227.135 41.2637C227.29 40.7229 227.425 40.2014 227.541 39.6992Z" fill="#FFB278"/>
<path d="M227.772 40.2783L243.07 80.0278C242.027 81.5922 239.825 84.6633 238.202 87.0969C235.247 87.7343 213.113 75.5082 223.195 50.5923C226.266 46.2465 225.571 46.1306 227.135 41.2634C227.328 40.9157 227.541 40.5874 227.772 40.2783Z" fill="#E5804E"/>
<path d="M246.199 103.554C244.402 103.612 238.608 106.741 236.812 106.625C237.507 111.724 240.231 118.62 240.231 118.62C240.231 118.62 200.018 204.608 192.601 230.509C194.455 203.971 236.986 87.6198 237.913 87.3301C237.913 87.3301 246.257 98.5132 246.199 103.554Z" fill="#DFEAE8"/>
<path d="M170.002 194.759C165.251 204.725 160.21 214.46 155.111 223.847C131.18 268.174 132.223 318.353 128.341 328.725C94.1541 324.437 82.855 313.138 72.1934 302.766C88.8232 220.022 120.461 171.408 152.156 82.4059C159.457 62.0097 176.666 67.1088 195.903 67.2247L200.713 68.3256C206.681 104.888 190.746 151.649 170.002 194.759Z" fill="white"/>
<path d="M183.156 170.596C179.274 179.752 175.217 188.559 171.103 196.671C165.599 207.507 160.094 217.125 154.763 224.716C159.341 213.417 163.339 202.523 166.816 192.152C171.625 178.013 175.449 164.802 178.404 152.808C186.169 121.112 187.617 97.877 183.619 88.4901C187.096 87.3312 191.094 86.9256 194.281 85.3611C192.253 79.5088 190.051 73.1349 188.545 67.2826C194.281 66.877 212.707 63.0527 212.707 63.0527C213.055 87.3312 199.67 131.948 183.156 170.596Z" fill="#DFEAE8"/>
<path d="M138.655 233.87C136.685 237.405 134.657 240.881 132.513 244.242C130.234 243.663 127.993 243.006 125.791 242.272C117.737 239.548 110.205 235.724 103.831 231.147C106.206 228.018 108.64 224.947 110.842 221.76C118.433 227.438 128.283 231.726 138.655 233.87Z" fill="#DFEAE8"/>
<path d="M194.455 135.017L191.21 133.511L194.165 122.212L202.045 125.862L194.455 135.017Z" fill="#8C8C8C"/>
<path d="M198.047 147.997L178.984 139.19L183.967 128.412L203.03 137.22L198.047 147.997Z" fill="white"/>
<path fill-rule="evenodd" clip-rule="evenodd" d="M198.221 148.519L178.462 139.364L183.793 127.891L203.552 136.988L198.221 148.519ZM179.505 139.016L197.815 147.476L202.509 137.393L184.141 128.934L179.505 139.016Z" fill="#8C8C8C"/>
<path d="M197.989 140.523L184.72 134.439L185.184 133.338L198.511 139.48L197.989 140.523Z" fill="#8C8C8C"/>
<path d="M192.137 100.889C192.658 93.6464 194.107 87.1567 196.425 81.4203C199.438 74.0035 203.842 68.0932 209.578 63.9213C210.563 63.2259 212.012 62.3568 214.098 61.7773C214.098 62.3568 213.402 63.0521 212.939 63.6895C212.07 64.153 211.2 64.6745 210.505 65.1381C200.655 72.439 194.86 84.7231 193.701 100.889C193.161 100.851 192.639 100.851 192.137 100.889Z" fill="#2B3F44"/>
<path d="M200.133 105.178C199.438 108.886 195.845 111.32 192.137 110.625C188.429 109.929 185.995 106.395 186.69 102.686C187.386 98.978 190.978 96.5443 194.686 97.2397C198.395 97.935 200.828 101.47 200.133 105.178Z" fill="#C6C6C6"/>
<path d="M198.047 104.83C197.526 107.38 195.092 109.06 192.543 108.539C189.993 108.075 188.313 105.641 188.776 103.034C189.24 100.484 191.731 98.804 194.281 99.3254C196.831 99.789 198.511 102.223 198.047 104.83Z" fill="#9B9B9B"/>
<path d="M196.309 104.483C196.019 106.105 194.455 107.148 192.832 106.859C191.268 106.569 190.167 105.004 190.514 103.382C190.804 101.76 192.369 100.717 193.933 101.006C195.556 101.296 196.599 102.86 196.309 104.483Z" fill="#C6C6C6"/>
<path d="M236.754 81.2455C236.87 80.5502 236.812 79.681 237.159 79.2754C238.202 80.8399 238.724 82.2885 238.898 83.3315C240.288 89.5314 239.767 96.0791 237.449 102.801C236.599 105.234 235.518 107.687 234.204 110.159L232.872 109.754C237.739 100.773 239.361 91.9071 237.565 83.6212C237.391 82.9258 237.101 82.0567 236.754 81.2455Z" fill="#2B3F44"/>
<path d="M218.328 135.134C216.126 135.018 215.083 134.149 214.561 133.338C213.402 131.541 213.866 128.644 215.894 124.936C217.169 122.676 219.545 119.605 221.283 117.345C222.152 116.186 223.079 115.085 223.137 114.854C223.137 114.911 223.137 115.085 223.195 115.201L223.89 114.68C224.122 114.969 223.89 115.317 223.369 115.954C223.079 116.476 222.558 117.113 221.978 117.809C220.24 120.068 217.864 123.139 216.647 125.341C214.793 128.702 214.272 131.368 215.257 132.932C215.952 133.975 217.401 134.439 219.487 134.265L219.545 135.134C219.081 135.172 218.675 135.172 218.328 135.134Z" fill="#9B9B9B"/>
<path d="M221.92 134.902C221.862 135.714 220.935 136.293 219.834 136.235C218.675 136.177 217.806 135.482 217.864 134.671C217.864 133.859 218.849 133.28 219.95 133.338C221.051 133.338 221.978 134.091 221.92 134.902Z" fill="#1C1818"/>
<path d="M225.281 136.929L225.918 136.35C227.251 137.972 228.642 138.667 229.858 138.378C231.597 137.972 233.161 135.712 234.204 132.004C234.9 129.628 235.421 125.804 235.769 122.965C235.885 122.037 236 121.226 236.058 120.647C236.174 119.836 236.232 119.43 236.638 119.372L236.754 120.241C236.928 120.183 236.986 120.067 237.043 120.009C236.928 120.241 236.754 121.69 236.58 123.08C236.232 125.92 235.711 129.802 235.015 132.236C233.857 136.35 232.118 138.725 230.032 139.189C229.105 139.421 227.715 139.305 226.15 137.798C225.841 137.566 225.551 137.277 225.281 136.929Z" fill="#9B9B9B"/>
<path d="M226.266 135.365C227.077 136.118 227.309 137.219 226.787 137.799C226.208 138.436 225.107 138.32 224.296 137.567C223.427 136.756 223.195 135.655 223.774 135.075C224.296 134.496 225.397 134.612 226.266 135.365Z" fill="#1C1818"/>
<path d="M237.043 123.834C236.986 123.834 236.928 123.776 236.87 123.834C235.769 124.066 235.479 123.776 234.784 123.892C234.938 123.003 235.035 122.154 235.073 121.342C235.247 113.81 229.569 111.434 224.238 116.07C223.465 116.726 222.712 117.537 221.978 118.503C221.167 117.808 221.283 117.982 220.414 117.286C223.021 113.404 231.597 105.176 234.9 106.045C239.014 107.088 237.391 119.083 237.043 123.834Z" fill="#2B3F44"/>
<g style="mix-blend-mode:color-dodge" opacity="0.5">
<path d="M235.073 121.342C235.247 113.809 229.569 111.433 224.238 116.069C226.787 112.882 232.466 107.319 234.436 107.841C237.159 108.536 235.479 120.125 235.073 121.342Z" fill="#1D6693"/>
<path d="M234.61 122.675C234.61 122.713 234.591 122.752 234.552 122.791C234.262 123.66 234.378 123.37 234.61 122.675Z" fill="#FF981D"/>
</g>
<path d="M276.329 60.2696C275.518 60.849 274.765 61.5443 273.896 62.0079C276.503 58.1836 278.647 53.2004 279.4 48.507C279.864 45.436 279.169 41.7855 278.299 38.8304C277.198 35.1799 275.055 32.2827 272.157 29.907L283.746 23.1855C291.511 24.75 293.828 34.7743 291.974 41.322C289.83 49.2023 282.761 55.75 276.329 60.2696Z" fill="#3A1818"/>
<path d="M264.683 67.2812C265.784 65.5429 267.638 63.5728 267.638 63.5728C270.651 60.0962 276.793 59.6906 277.662 63.0514C278.589 66.47 276.271 70.4102 274.127 72.3803C271.983 74.2925 267 76.9579 264.277 74.3504C261.901 72.1485 263.466 69.0775 264.683 67.2812Z" fill="#FFB278"/>
<path d="M268.797 64.7327C269.086 64.3271 270.883 63.4579 271.288 63.2262C274.765 61.4299 277.198 64.1533 275.576 67.3981C276.04 63.9794 272.911 65.0224 270.883 65.8336C271.868 66.4131 271.172 68.6149 270.535 69.2523C269.376 70.3533 268.101 70.0056 266.827 69.4841L266.942 69.4261C267.696 68.499 269.608 67.9196 269.608 66.1813C269.608 65.2542 268.217 65.486 268.797 64.7327Z" fill="#E5804E"/>
<path d="M261.554 76.6099C256.976 79.9706 248.574 88.9519 239.883 86.0548C227.888 81.9987 217.169 64.3258 223.137 52.2156C228.12 42.0754 228.352 40.395 233.509 32.9203C242.954 19.1876 250.313 12.4661 250.313 12.4661C254.195 10.4381 261.496 9.97454 265.494 10.9016C284.326 15.4213 288.034 38.4249 279.169 51.9838C274.881 58.5314 268.043 71.9165 261.554 76.6099Z" fill="#FFB278"/>
<path d="M249.328 48.9715C248.864 48.8943 248.362 48.7591 247.821 48.5659C245.329 47.5809 242.49 45.7267 240.52 44.0463C240.172 43.7566 239.187 44.9155 238.898 44.6837C238.898 44.6837 239.129 43.4669 241.042 42.366C241.969 41.8445 243.186 41.265 243.881 41.0912C245.445 40.6276 247.531 40.5118 249.038 41.1491C250.313 41.6706 250.776 43.1772 250.718 44.7996C250.66 46.3641 250.139 48.1024 249.328 48.9715Z" fill="#E5804E"/>
<path d="M248.632 50.5941C248.13 50.4396 247.628 50.2658 247.126 50.0726C244.634 49.0296 241.795 47.1754 239.825 45.6109C239.438 45.3405 239.091 45.0701 238.782 44.7997C238.782 44.7997 239.419 44.51 240.172 44.2203C241.042 43.8726 242.085 43.467 242.722 43.4091C244.171 43.1194 246.141 43.2352 247.647 43.8726C248.864 44.4521 249.443 45.7848 249.559 47.1175C249.617 48.4502 249.27 49.8408 248.632 50.5941Z" fill="white"/>
<path d="M249.27 47.581C248.69 48.5661 247.937 49.4352 247.126 50.0726C244.634 49.0296 241.795 47.1754 239.825 45.6109C239.863 45.1474 239.979 44.6838 240.173 44.2203C241.042 43.8726 242.085 43.467 242.722 43.4091C244.171 43.1194 246.141 43.2352 247.647 43.8726C248.864 44.4521 249.444 45.7848 249.559 47.1175C249.482 47.272 249.386 47.4265 249.27 47.581Z" fill="#260F0E"/>
<path d="M243.591 45.8989C243.417 46.2466 243.012 46.3625 242.664 46.1887C242.374 46.0148 242.316 45.6092 242.49 45.2616C242.722 44.9139 243.127 44.7401 243.417 44.9139C243.707 45.0877 243.823 45.5513 243.591 45.8989Z" fill="white"/>
<path d="M271.694 60.9657C271.23 60.8884 270.767 60.7532 270.303 60.5601C267.928 59.7489 265.32 57.9526 263.582 56.4461C263.234 56.1563 262.249 57.3152 262.017 57.0834C262.017 57.0834 262.307 55.8666 264.103 54.7657C265.03 54.1863 266.189 53.6068 266.827 53.375C268.275 52.9115 270.245 52.7377 271.694 53.3171C272.853 53.7806 273.2 55.2292 273.085 56.7937C273.027 58.3582 272.447 60.0386 271.694 60.9657Z" fill="#E5804E"/>
<path d="M270.941 62.5306C270.477 62.4147 270.014 62.2601 269.55 62.067C267.232 61.1399 264.625 59.4595 262.828 58.0109C262.481 57.7405 262.172 57.4701 261.901 57.1997C261.901 57.1997 262.481 56.91 263.176 56.6203C264.045 56.2147 265.088 55.8091 265.668 55.6932C267 55.4035 268.855 55.4035 270.245 56.0409C271.404 56.5044 271.868 57.7792 271.926 59.1119C271.926 60.4446 271.578 61.8352 270.941 62.5306Z" fill="white"/>
<path d="M271.694 59.5754C271.056 60.5605 270.361 61.4296 269.55 62.067C267.232 61.1399 264.625 59.4595 262.828 58.0109C262.906 57.5474 263.022 57.0838 263.176 56.6203C264.045 56.2147 265.088 55.8091 265.668 55.6932C267 55.4035 268.855 55.4035 270.245 56.0409C271.404 56.5044 271.868 57.7792 271.926 59.1119C271.848 59.2664 271.771 59.4209 271.694 59.5754Z" fill="#260F0E"/>
<path d="M266.363 58.1271C266.189 58.4748 265.784 58.5907 265.494 58.4169C265.262 58.301 265.204 57.8954 265.378 57.5477C265.552 57.2 265.957 57.0262 266.247 57.2C266.537 57.3739 266.595 57.7795 266.363 58.1271Z" fill="white"/>
<path d="M252.283 68.5568C249.385 68.383 247.647 67.1083 246.025 66.0073C247.473 65.7755 249.733 67.1662 251.124 66.8765C251.529 65.312 255.064 58.069 255.933 57.4316L252.283 68.5568Z" fill="#E5804E"/>
<path d="M250.371 71.3364C252.399 72.3794 253.731 72.7271 253.731 72.7271C251.993 73.886 250.081 74.4075 248.053 74.1757C246.778 74.0212 245.465 73.5576 244.113 72.785C241.969 71.5682 238.898 67.8598 237.913 61.8916C242.316 66.9327 247.184 69.8299 250.371 71.3364Z" fill="#E5804E"/>
<path d="M250.371 71.3364C249.501 72.2056 248.69 73.1327 248.053 74.1757C246.778 74.0212 245.465 73.5576 244.113 72.785C241.969 71.5682 238.898 67.8598 237.913 61.8916C242.316 66.9327 247.184 69.8299 250.371 71.3364Z" fill="white"/>
<path d="M257.671 40.8013C256.744 42.134 254.89 44.4517 253.789 45.6685C249.559 41.6704 243.533 40.1639 239.361 36.5134L241.911 33.0947C247.01 34.7172 253.731 37.0349 257.671 40.8013Z" fill="#260F0E"/>
<path d="M279.748 53.0275C278.821 54.4761 276.967 57.0835 275.808 58.5321C272.215 54.534 266.653 53.3751 263.118 49.7826L265.668 45.9004C270.303 47.2331 276.387 49.2032 279.748 53.0275Z" fill="#260F0E"/>
<path fill-rule="evenodd" clip-rule="evenodd" d="M245.329 55.9836C245.214 55.9063 245.078 55.8483 244.924 55.8097L237.275 51.6957C234.32 50.1312 233.451 45.9593 235.363 42.3668C235.885 40.8023 237.159 37.3256 238.55 36.6883C240.752 35.7612 244.055 36.1668 247.647 37.6733C251.703 39.4696 256.049 42.8303 256.744 46.3649C257.034 47.8714 254.832 50.8845 253.789 52.2172C251.935 55.5779 248.227 57.2583 245.329 55.9836ZM247.01 39.064C243.881 37.7313 240.984 37.3836 239.187 38.1369C238.724 38.3686 237.565 40.5705 236.812 42.9462L236.754 43.0041V43.0621C235.247 45.9013 235.769 49.2041 238.029 50.363L245.677 54.4191C247.879 55.6359 250.95 54.2452 252.457 51.406L252.514 51.2901C254.079 49.378 255.296 47.1761 255.238 46.6546C254.716 44.0471 251.356 40.9761 247.01 39.064Z" fill="white"/>
<path fill-rule="evenodd" clip-rule="evenodd" d="M266.769 67.7463C266.653 67.6691 266.537 67.6111 266.421 67.5725L259.7 63.8641C257.092 62.4734 256.455 58.4174 258.309 54.8248C258.888 53.2604 260.221 49.7837 261.496 49.0884C263.466 48.1034 266.479 48.3351 269.608 49.6678C273.201 51.2323 276.967 54.3613 277.43 57.8379C277.662 59.2865 275.518 62.3575 274.533 63.6902C272.737 67.051 269.318 68.8472 266.769 67.7463ZM269.029 51.0585C266.247 49.8996 263.64 49.6678 261.959 50.4791C261.496 50.7108 260.395 52.9706 259.584 55.2884V55.3463V55.4043C258.077 58.3015 258.425 61.4884 260.395 62.5314L267.116 66.2398C269.087 67.2828 271.868 65.7762 273.374 62.937L273.432 62.879C274.881 60.851 276.156 58.7071 276.098 58.1276C275.75 55.6361 272.853 52.7389 269.029 51.0585Z" fill="white"/>
<path d="M259.989 51.5216C259.796 50.3627 259.313 49.5515 258.541 49.088C257.787 48.6244 256.744 48.5665 255.701 48.9141L255.296 47.4655C256.744 47.002 258.251 47.1179 259.352 47.7553C260.105 48.2188 261.09 49.2039 261.438 51.2319L259.989 51.5216Z" fill="white"/>
<path d="M290.468 27.0104C290.352 27.2422 290.236 27.4353 290.12 27.5899C289.541 28.5749 288.613 29.2123 287.918 29.7917C285.137 32.2833 280.675 35.0067 276.909 35.5281C267.116 36.8029 258.367 26.9525 249.154 29.3282C250.081 25.4459 254.021 25.1562 256.86 23.7656C250.66 20.9843 245.677 26.8945 241.795 31.0085C239.245 33.616 236.174 35.2964 233.915 38.0197C232.002 40.2795 229.279 46.4216 226.614 47.5225L226.382 34.2534C227.251 30.0235 227.715 25.5618 229.743 20.173C231.655 15.074 235.131 9.33755 239.535 5.80298C242.316 3.48523 245.561 1.92074 248.922 0.993644C255.354 -0.74467 262.423 -0.165233 268.449 2.44224C276.851 6.03475 284.557 11.3076 288.961 19.4777C289.656 20.7525 290.12 21.8534 290.41 22.8385C290.989 24.7506 290.873 26.0254 290.468 27.0104Z" fill="#3A1818"/>
<path d="M290.468 27.009C290.352 27.2021 290.236 27.3952 290.12 27.5884C289.541 28.5734 288.613 29.2108 287.918 29.7903C285.137 32.2818 280.675 35.0052 276.909 35.5267C267.116 36.8015 258.367 26.951 249.154 29.3267C250.081 25.4445 254.021 25.1548 256.86 23.7641C250.66 20.9828 245.677 26.8931 241.795 31.0071C239.245 33.6145 236.174 35.2949 233.915 38.0183C232.002 40.2781 229.279 46.4201 226.614 47.5211L226.382 34.2519C227.251 30.022 227.715 25.5604 229.743 20.1716C231.655 15.0725 235.131 9.3361 239.535 5.80152C242.316 3.48377 245.561 1.91929 248.922 0.992188C245.387 4.81648 240.346 12.5809 241.911 17.7959C244.286 13.6819 251.414 16.2314 254.543 17.68C257.498 19.1286 260.163 20.809 263.06 22.1996C265.552 23.4744 268.739 23.5903 271.056 25.0968C269.608 25.5024 267.754 25.5024 266.479 26.6034C267.522 28.6314 271.578 29.5585 273.606 30.08C276.445 30.8333 279.169 30.7174 282.008 30.08C286.354 28.979 288.556 26.1977 290.41 22.837C290.989 24.7492 290.873 26.0239 290.468 27.009Z" fill="#140808"/>
<path d="M222.789 49.0875C218.907 47.9866 218.675 41.9025 219.313 38.9474C219.95 35.8763 222.326 31.6464 225.976 30.6035C229.569 29.5605 232.466 35.4707 230.959 40.1642C230.959 40.1642 230.09 42.8875 229.105 44.8576C228.062 46.9436 226.092 50.0146 222.789 49.0875Z" fill="#FFB278"/>
<path d="M227.483 39.7581C225.86 40.6273 226.324 42.7712 225.918 43.9301L225.86 44.046C224.759 43.1768 223.716 42.1918 224.122 40.5114C224.354 39.5843 226.034 37.7301 227.077 38.3675C226.729 36.0497 225.976 32.5731 223.137 34.8909C225.223 31.5881 229.047 32.3993 229.221 36.5712C229.279 37.0927 229.395 39.2366 229.221 39.7002C228.815 40.6273 228.352 39.2367 227.483 39.7581Z" fill="#E5804E"/>
<path d="M239.825 75.7989C240.636 74.9297 241.621 73.8288 242.027 73.1914C242.104 73.2687 242.162 73.3459 242.2 73.4232C242.548 73.8288 243.07 74.1765 243.591 74.4082C244.132 74.5627 244.653 74.7366 245.156 74.9297C245.194 74.9297 245.233 74.949 245.271 74.9877C245.04 75.7409 244.518 76.9578 243.939 77.9428C243.475 77.3634 242.838 76.8419 242.142 76.4942C241.447 76.0886 240.636 75.8568 239.825 75.7989Z" fill="#E5804E"/>
<path d="M158.472 79.0456C158.472 78.9297 158.452 78.8331 158.414 78.7559L158.472 79.0456Z" fill="#DFEAE8"/>
<path d="M183.156 170.597C179.273 179.752 175.217 188.56 171.103 196.672C169.597 195.32 168.168 193.813 166.815 192.152C158.298 181.722 153.488 166.541 151.808 155.358C149.838 141.625 149.664 127.139 150.997 113.175C151.75 105.468 159.283 83.2179 158.472 79.0459L178.404 152.808L183.156 170.597Z" fill="#DFEAE8"/>
<path d="M239.129 241.52C237.043 244.011 233.567 245.17 230.554 246.097C226.845 247.314 225.976 247.082 222.905 244.765C215.894 239.434 210.157 232.249 204.305 225.817C197.062 217.763 192.832 207.333 187.212 198.178L210.273 199.279C212.243 201.423 214.445 206.58 216.068 209.709C218.501 214.46 221.399 218.574 224.527 222.92C229.221 229.294 234.204 235.378 239.129 241.52Z" fill="#FFB278"/>
<path d="M273.896 250.965C272.157 251.776 269.144 251.255 267.29 251.081C268.449 252.066 271.172 251.197 271.868 252.935C270.361 254.847 266.015 255.079 263.698 255.485C260.453 256.064 257.903 256.064 254.658 255.311C248.343 253.862 241.969 255.137 235.711 254.036C231.481 253.283 225.165 249.864 223.195 245.866C225.976 245.634 229.105 244.128 231.539 242.737C232.987 241.868 232.872 234.915 233.335 234.104C233.335 234.104 236.638 238.507 244.46 237.175C247.937 236.595 250.95 237.059 254.311 237.638C257.44 238.16 262.771 239.666 265.726 240.13C268.855 240.651 272.331 243.722 268.797 243.49C270.593 243.954 272.331 245.113 272.215 247.257C274.243 247.778 276.909 249.574 273.896 250.965Z" fill="white"/>
<path d="M151.229 97.7611C151.229 79.2191 162.817 67.6304 173.363 68.7313C183.387 69.7743 185.242 85.9985 187.038 95.9649C189.993 111.841 195.44 130.847 198.105 146.782C203.784 181.026 217.516 208.55 230.032 222.862C225.802 233.408 217.169 237.116 212.649 238.912C177.245 210.172 151.229 118.969 151.229 97.7611Z" fill="white"/>
<path d="M272.969 245.98C273.142 247.081 274.881 247.776 275.576 246.733C276.561 245.11 273.49 245.69 272.969 245.98Z" fill="#F91510"/>
<path d="M279.053 244.068C279.014 244.146 279.014 244.223 279.053 244.3V244.068Z" fill="#F91510"/>
<path d="M457.346 351.264H320.83C337.113 345.527 355.944 254.498 363.071 229.524C372.574 196.206 403.864 181.199 429.011 189.311C434.98 191.223 440.658 194.468 445.525 199.103C476.989 228.539 465.922 332.2 457.346 351.264Z" fill="#D0D7E2"/>
<path d="M283.746 496.761L293.307 351.206L308.025 350.279L288.729 496.761H283.746Z" fill="#4C4C4C"/>
<path d="M412.961 496.761L393.666 350.279L408.441 351.206L418.002 496.761H412.961Z" fill="#4C4C4C"/>
<path d="M459.084 496.761L439.847 350.279L454.565 351.206L464.125 496.761H459.084Z" fill="#4C4C4C"/>
<path d="M357.972 496.761L338.677 350.279L353.453 351.206L363.013 496.761H357.972Z" fill="#4C4C4C"/>
<path d="M457.346 351.264H421.537C436.544 320.612 443.555 282.659 443.555 249.167C443.555 233.291 442.512 217.356 436.428 203.044C435.095 199.915 432.43 194.642 429.011 189.312C434.98 191.224 440.658 194.469 445.525 199.104C476.989 228.539 465.922 332.201 457.346 351.264Z" fill="white"/>
<path d="M459.374 351.264C459.374 353.987 457.172 356.189 454.448 356.189H338.561C335.895 356.189 333.694 353.987 333.694 351.264C333.694 348.598 335.895 346.396 338.561 346.396H454.448C457.172 346.396 459.374 348.598 459.374 351.264Z" fill="#D0D7E2"/>
<path d="M414.178 351.264C414.178 353.987 411.976 356.189 409.252 356.189H293.423C290.699 356.189 288.497 353.987 288.497 351.264C288.497 348.598 290.699 346.396 293.423 346.396H409.252C411.976 346.396 414.178 348.598 414.178 351.264Z" fill="white"/>
<path d="M239.245 493.514C239.883 490.095 242.664 487.546 246.083 484.417C250.023 480.824 254.832 476.363 258.077 468.772L268.739 467.613C269.782 470.105 272.389 479.955 273.548 487.72C273.838 489.458 274.012 491.08 274.128 492.471C274.166 492.819 274.185 493.147 274.185 493.456C274.243 495.542 274.07 497.049 273.49 497.57C273.49 497.609 273.471 497.628 273.432 497.628C273.2 497.783 272.833 497.918 272.331 498.034C271.945 498.15 271.481 498.246 270.941 498.323C270.902 498.323 270.883 498.323 270.883 498.323C264.625 499.251 249.849 499.714 242.838 498.555C241.273 498.266 240.057 497.918 239.477 497.454C239.072 496.006 239.072 494.673 239.245 493.514Z" fill="#301F23"/>
<path d="M239.245 493.515C246.314 495.022 264.567 494.616 272.042 493.631C272.08 493.631 272.099 493.631 272.099 493.631C272.621 493.573 273.374 493.515 274.185 493.457C274.243 495.543 274.07 497.05 273.49 497.571C273.49 497.61 273.471 497.629 273.432 497.629C273.2 497.784 272.833 497.919 272.331 498.035C272.215 498.073 272.119 498.093 272.042 498.093C272.003 498.093 271.984 498.093 271.984 498.093C265.552 498.962 251.24 499.367 242.838 498.556C241.273 498.266 240.057 497.919 239.477 497.455C239.072 496.007 239.072 494.674 239.245 493.515Z" fill="#140D0F"/>
<path d="M336.881 495.022C337.518 491.488 340.357 488.938 343.834 485.751C347.89 481.985 352.873 477.465 356.118 469.701L367.07 468.542C368.113 471.092 370.778 481.174 371.995 489.112C372.284 490.85 372.516 492.531 372.574 493.921C372.613 494.308 372.632 494.655 372.632 494.964C372.748 497.108 372.516 498.615 371.937 499.194C371.937 499.233 371.917 499.252 371.879 499.252C371.647 499.407 371.261 499.542 370.72 499.658C370.334 499.774 369.87 499.87 369.329 499.948C369.291 499.948 369.271 499.948 369.271 499.948C362.84 500.875 347.716 501.396 340.531 500.179C338.909 499.89 337.692 499.542 337.113 499.078C336.707 497.572 336.649 496.239 336.881 495.022Z" fill="#301F23"/>
<path d="M336.881 495.022C344.124 496.586 362.782 496.123 370.43 495.138C370.469 495.138 370.508 495.138 370.546 495.138C371.068 495.08 371.821 495.022 372.632 494.964C372.748 497.108 372.516 498.614 371.937 499.194C371.937 499.232 371.917 499.252 371.879 499.252C371.647 499.406 371.261 499.541 370.72 499.657C370.643 499.696 370.546 499.715 370.43 499.715C370.392 499.715 370.372 499.715 370.372 499.715C363.825 500.584 349.165 501.048 340.531 500.179C338.909 499.889 337.692 499.541 337.113 499.078C336.707 497.571 336.649 496.239 336.881 495.022Z" fill="#140D0F"/>
<path d="M414.467 340.602C411.976 345.005 404.327 347.903 399.634 348.076C317.122 350.51 264.393 355.203 257.845 338.805C252.862 326.405 266.479 318.815 290.525 312.209C304.142 308.501 312.139 307.284 335.026 301.779C335.026 301.779 344.703 307.458 365.505 310.934C389.783 315.048 421.073 309.602 421.073 309.602C421.363 316.729 417.77 334.691 414.467 340.602Z" fill="#381E1A"/>
<path d="M356.639 346.803C347.484 351.322 330.97 349.989 320.83 350.511C311.443 350.975 292.959 353.466 285.253 348.657C290.468 345.76 298.812 347.498 304.606 346.049C310.69 344.543 318.744 340.776 323.438 336.315C327.957 331.969 330.912 326.986 336.417 323.509C340.531 320.96 349.454 320.033 353.974 322.872L356.639 346.803Z" fill="#140808"/>
<path d="M295.509 367.198C293.017 391.245 278.473 464.08 277.604 473.409C271.752 474.163 255.817 474.394 249.791 473.989C257.845 427.112 234.378 318.41 271.404 322.755L290.584 344.368C292.438 348.077 295.972 362.853 295.509 367.198Z" fill="#381E1A"/>
<path d="M377.615 382.032C377.615 406.774 374.428 465.703 374.834 475.263C369.039 476.886 350.497 477.407 343.428 475.843C345.804 466.282 317.759 318.583 352.352 317.714C366.2 317.309 375.761 328.26 375.761 328.26C377.615 342.514 377.615 357.985 377.615 382.032Z" fill="#381E1A"/>
<path d="M422.464 282.6C422.464 282.987 422.464 283.373 422.464 283.759C422.464 283.952 422.464 284.145 422.464 284.339C422.464 284.802 422.444 285.285 422.406 285.787C422.406 285.98 422.406 286.193 422.406 286.425C422.406 286.888 422.406 287.352 422.406 287.815C422.367 288.395 422.348 288.974 422.348 289.553C422.309 290.365 422.29 291.157 422.29 291.929C422.251 292.277 422.232 292.605 422.232 292.914C422.193 293.339 422.174 293.764 422.174 294.189C422.135 294.344 422.116 294.517 422.116 294.71C422.116 294.981 422.097 295.251 422.058 295.522C422.058 295.831 422.039 296.12 422 296.391C422 296.661 421.981 296.932 421.942 297.202C421.942 297.434 421.923 297.685 421.884 297.955C421.884 298.033 421.884 298.129 421.884 298.245C421.846 298.709 421.807 299.153 421.768 299.578C421.73 300.041 421.691 300.466 421.653 300.853C421.537 301.78 421.421 302.649 421.305 303.46C421.266 303.692 421.228 303.904 421.189 304.097C421.189 304.175 421.189 304.252 421.189 304.329C420.725 307.342 420.146 309.718 419.567 311.688C419.489 311.843 419.431 311.997 419.393 312.152C419.315 312.422 419.219 312.692 419.103 312.963C413.424 314.353 407.456 315.281 401.372 315.686C400.213 315.493 399.054 315.319 397.896 315.165C397.548 315.126 397.2 315.068 396.853 314.991C396.312 314.914 395.79 314.836 395.288 314.759C394.825 314.72 394.361 314.662 393.897 314.585C393.782 314.585 393.666 314.585 393.55 314.585C392.545 314.431 391.522 314.295 390.479 314.18C388.354 313.948 386.23 313.716 384.105 313.484C383.719 313.484 383.332 313.465 382.946 313.426C376.109 312.789 369.271 312.499 362.434 312.499C352.873 310.239 343.66 306.879 335.316 302.417C335.625 300.949 335.896 299.462 336.127 297.955C336.166 297.685 336.205 297.415 336.243 297.144C336.475 295.444 336.707 293.706 336.939 291.929C336.977 291.466 337.035 290.983 337.112 290.481C337.228 289.476 337.325 288.472 337.402 287.467C337.441 286.965 337.479 286.463 337.518 285.961C337.595 285.072 337.673 284.184 337.75 283.296C337.75 283.18 337.769 283.044 337.808 282.89C337.846 282.388 337.866 281.905 337.866 281.441C337.943 280.36 338.001 279.297 338.04 278.254C338.078 277.83 338.098 277.405 338.098 276.98C338.136 276.362 338.175 275.744 338.213 275.125C338.252 274.044 338.271 272.982 338.271 271.939C338.31 271.398 338.329 270.876 338.329 270.374C338.329 270.297 338.329 270.22 338.329 270.142C338.329 269.177 338.329 268.192 338.329 267.187C338.329 252.991 336.997 238.969 334.215 228.712C331.086 217.356 329.87 205.883 328.827 194.294C327.957 185.023 330.449 179.402 335.316 174.361C336.475 173.144 337.866 171.986 339.314 170.769C339.739 170.421 340.164 170.093 340.589 169.784C341.632 168.934 342.733 168.084 343.892 167.234L344.124 167.06H344.182L344.298 166.944L349.281 163.757L360.116 156.688L365.157 153.443L374.776 147.186L375.703 146.548L375.819 146.49C377.557 147.997 379.585 149.619 381.787 151.126C384.047 152.806 386.539 154.371 388.914 155.645C391.348 156.92 394.245 157.673 397.084 158.485C398.649 158.89 400.213 159.354 401.662 159.933C402.763 160.397 403.806 160.86 404.733 161.498C410.006 165.032 413.309 173.376 415.221 181.43C416.438 186.471 417.133 191.455 417.423 195.047C418.234 204.318 418.929 212.894 419.509 220.774C421.71 249.398 422.522 268.925 422.464 282.6Z" fill="#425B28"/>
<path d="M376.167 171.985C363.129 181.952 357.914 184.617 352.989 185.37C349.976 185.892 348.643 177.49 346.731 173.202C344.124 167.292 341.69 160.512 339.083 156.63C338.387 155.703 337.75 154.892 337.055 154.312L357.972 136.176L367.707 127.658C368.286 129.281 368.846 130.903 369.387 132.525C374.139 146.258 387.871 163.062 376.167 171.985Z" fill="#FFB278"/>
<path d="M362.028 160.281C358.204 165.843 352.178 167.697 344.703 168.219C342.096 162.309 341.69 160.512 339.083 156.63L357.972 136.176L368.518 124.703C368.576 127.426 368.924 129.976 369.387 132.526C370.141 136.582 365.795 154.776 362.028 160.281Z" fill="#E5804E"/>
<path d="M387.234 177.49C383.931 177.49 379.411 182.879 374.486 177.432C371.473 174.129 357.045 187.804 352.989 185.37C352.989 185.37 378.774 165.032 374.312 143.593C375.819 144.636 379.701 149.445 381.729 150.894C381.845 152.516 387.755 166.365 387.234 177.49Z" fill="#6B8E43"/>
<path d="M338.909 185.777C337.75 179.461 340.937 176.68 339.256 170.943C340.183 167.64 341.284 168.104 343.66 165.96C349.802 175.115 347.89 185.081 354.438 185.893C354.438 185.893 340.995 181.779 338.909 185.777Z" fill="#6B8E43"/>
<path d="M358.32 200.959C358.609 201.77 358.146 202.639 357.335 202.929C356.524 203.219 355.654 202.755 355.365 201.944C355.075 201.075 355.538 200.206 356.35 199.916C357.161 199.684 358.088 200.09 358.32 200.959Z" fill="#6B8E43"/>
<path d="M367.707 239.896C367.938 240.766 367.533 241.635 366.664 241.924C365.852 242.156 364.983 241.751 364.694 240.939C364.404 240.07 364.867 239.201 365.679 238.911C366.548 238.68 367.417 239.085 367.707 239.896Z" fill="#6B8E43"/>
<path d="M372.748 276.691C372.98 277.502 372.574 278.372 371.705 278.661C370.894 278.893 370.024 278.488 369.735 277.676C369.445 276.807 369.908 275.938 370.72 275.648C371.589 275.417 372.458 275.822 372.748 276.691Z" fill="#6B8E43"/>
<path d="M356.35 185.254C356.408 185.486 356.292 185.718 356.06 185.892C355.596 186.123 355.191 186.413 354.785 186.761C351.077 189.89 350.903 194.931 351.019 199.45C351.135 204.723 351.888 209.938 353.047 215.095C355.249 225.641 358.667 235.897 360.753 246.443C362.724 256.409 363.187 266.665 363.535 276.747C363.766 283.759 363.303 300.968 362.434 312.499C361.584 312.499 360.734 312.518 359.884 312.557C361.101 299.635 362.26 278.66 361.796 269.91C361.507 264.869 361.333 259.77 360.695 254.729C360.058 249.34 358.899 244.009 357.567 238.736C355.017 228.538 351.772 218.456 350.324 207.968C349.281 200.493 345.456 190.237 352.873 185.486C352.912 185.447 352.95 185.409 352.989 185.37L355.249 184.675C355.538 184.559 355.77 184.559 355.944 184.675C356.176 184.791 356.292 185.022 356.35 185.254Z" fill="#6B8E43"/>
<path d="M320.135 120.184C319.903 124.066 320.946 127.717 321.989 131.367C317.643 129.513 313.471 123.777 311.849 119.663C310.806 117.055 308.778 105.756 312.66 104.829L323.38 106.509C321.699 106.915 320.251 118.156 320.135 120.184Z" fill="#685851"/>
<path d="M401.662 159.934C385.148 169.437 386.655 189.891 387.929 207.969C388.045 209.36 388.142 210.731 388.219 212.083C388.74 220.311 389.61 228.887 390.421 237.115C392.565 258.67 394.767 280.921 392.217 302.244C391.985 304.562 391.348 307.285 390.711 309.95C390.247 312.094 389.726 314.296 389.436 316.208C389.204 317.715 389.088 319.048 389.146 320.033L385.496 320.38C385.38 319.106 385.438 317.657 385.727 315.977C386.017 313.891 386.539 311.515 387.118 309.081C387.697 306.532 388.335 303.924 388.567 301.78C391.058 280.921 388.856 258.844 386.77 237.521C385.901 229.177 385.09 220.601 384.511 212.315C384.433 210.963 384.337 209.611 384.221 208.259C383.526 198.119 382.772 187.631 384.8 178.186C386.712 169.495 390.769 163.005 397.084 158.485C398.649 158.891 400.213 159.355 401.662 159.934Z" fill="#381E1A"/>
<path d="M345.399 235.782C349.339 257.048 353.453 279.066 352.757 300.505C352.641 302.823 352.294 305.604 351.888 308.328C351.541 310.935 351.135 313.659 351.077 315.803C351.019 316.846 351.077 317.773 351.193 318.468L347.542 319.163C347.369 318.236 347.311 317.135 347.369 315.918C347.427 313.543 347.832 310.703 348.238 307.806C348.585 305.199 348.991 302.475 349.049 300.389C349.744 279.356 345.688 257.569 341.748 236.477C340.242 228.249 338.619 219.79 337.402 211.562C337.17 210.248 336.958 208.916 336.765 207.564C335.142 197.539 333.52 187.109 334.795 177.549C334.911 176.467 335.085 175.405 335.316 174.362C336.475 173.145 337.808 171.986 339.314 170.769C339.739 170.422 340.164 170.093 340.589 169.784C336.243 180.62 338.445 194.352 340.415 206.984C340.647 208.336 340.86 209.688 341.053 211.04C342.27 219.21 343.892 227.612 345.399 235.782Z" fill="#381E1A"/>
<path d="M370.546 124.529C370.836 128.179 370.72 131.772 370.198 135.132C368.692 144.693 361.159 161.555 348.238 163.988C339.894 165.553 334.447 158.831 329.812 152.052C325.929 146.431 323.264 139.826 321.699 135.19C319.961 130.265 316.542 114.099 316.079 108.884C314.341 88.082 347.89 85.6484 356.987 94.1082C365.273 101.931 369.677 113.635 370.546 124.529Z" fill="#FFB278"/>
<path d="M357.451 127.021C357.625 128.18 356.929 129.745 356.408 130.788C355.191 132.816 353.221 134.091 350.961 133.685C348.933 133.337 346.731 131.078 346.847 128.528L357.451 127.021Z" fill="#E5804E"/>
<path d="M357.567 127.08C356.755 128.123 356.002 128.992 355.249 129.63C352.525 132.063 350.324 131.889 348.933 131.194C348.006 130.731 347.369 129.977 347.195 129.746C346.963 129.166 346.789 128.413 346.789 127.544C346.789 126.848 346.847 126.037 347.021 125.342C347.021 125.303 347.04 125.265 347.079 125.226C347.426 123.777 348.238 122.503 349.454 122.387C351.019 122.271 352.873 122.966 354.206 123.835C354.206 123.835 354.225 123.835 354.264 123.835C354.727 124.183 355.423 124.878 356.118 125.516C356.234 125.632 356.35 125.747 356.466 125.863C356.697 126.134 356.91 126.365 357.103 126.559C357.219 126.675 357.316 126.79 357.393 126.906C357.509 127.022 357.567 127.08 357.567 127.08Z" fill="white"/>
<path d="M355.249 129.63C352.526 132.063 350.324 131.889 348.933 131.194C348.663 130.615 348.431 130.016 348.238 129.398C347.929 128.664 347.678 127.872 347.484 127.022C347.484 126.906 347.253 126.095 347.079 125.226C347.427 123.777 348.238 122.503 349.455 122.387C351.019 122.271 352.873 122.966 354.206 123.835C354.206 123.835 354.225 123.835 354.264 123.835C354.959 125.284 355.365 127.022 355.249 129.63Z" fill="#3A2E2E"/>
<path d="M353.684 127.949C353.916 127.891 354.206 128.181 354.264 128.586C354.38 128.934 354.264 129.281 354.032 129.339C353.8 129.397 353.569 129.108 353.453 128.76C353.395 128.354 353.511 128.007 353.684 127.949Z" fill="white"/>
<path d="M346.441 126.848C346.21 125.747 346.21 124.588 346.441 123.197C346.731 121.285 351.251 117.229 355.944 123.371C356.755 124.356 357.393 126.384 357.567 127.079C356.234 126.674 354.496 125.283 352.989 125.341C350.729 125.457 348.527 126.036 346.441 126.848Z" fill="#E5804E"/>
<path d="M335.084 132.063C335.258 133.28 334.563 134.845 333.984 135.83C332.825 137.916 330.855 139.191 328.595 138.785C326.509 138.437 324.365 136.177 324.423 133.628L335.084 132.063Z" fill="#E5804E"/>
<path d="M335.2 132.179C334.389 133.222 333.578 134.033 332.825 134.728C330.101 137.104 327.957 136.93 326.567 136.235C325.582 135.771 325.002 135.076 324.77 134.844C324.539 134.265 324.423 133.453 324.365 132.642C324.365 131.889 324.481 131.136 324.654 130.44C324.654 130.402 324.654 130.363 324.654 130.324C325.06 128.818 325.813 127.601 327.088 127.485C328.653 127.311 330.507 128.065 331.782 128.876C331.82 128.914 331.84 128.934 331.84 128.934C332.303 129.281 333.056 129.919 333.694 130.614C333.81 130.73 333.925 130.846 334.041 130.962C334.273 131.194 334.486 131.406 334.679 131.599C334.833 131.754 334.949 131.87 335.026 131.947C335.142 132.063 335.2 132.14 335.2 132.179Z" fill="white"/>
<path d="M332.825 134.728C330.101 137.104 327.957 136.93 326.567 136.235C326.296 135.694 326.045 135.114 325.813 134.496C325.543 133.724 325.311 132.932 325.118 132.121C325.06 131.947 324.886 131.136 324.655 130.324C325.06 128.818 325.813 127.601 327.088 127.485C328.653 127.311 330.507 128.065 331.782 128.876C331.82 128.914 331.84 128.934 331.84 128.934C332.535 130.382 332.998 132.121 332.825 134.728Z" fill="#3A2E2E"/>
<path d="M331.318 133.048C331.55 132.99 331.781 133.28 331.897 133.628C331.955 134.033 331.839 134.381 331.666 134.439C331.434 134.497 331.144 134.207 331.086 133.86C330.97 133.454 331.086 133.106 331.318 133.048Z" fill="white"/>
<path d="M323.959 131.6C323.785 130.615 323.843 129.514 324.017 128.239C324.307 126.385 328.884 122.271 333.578 128.413C335.142 130.441 335.2 132.179 335.2 132.179C335.084 132.179 334.969 132.199 334.853 132.237C332.998 131.252 330.855 130.731 328.537 130.789C327.03 130.847 325.466 131.136 323.959 131.6Z" fill="#E5804E"/>
<path d="M359.421 117.171C359.382 118.33 359.344 119.489 359.305 120.647C358.03 120.647 356.697 120.821 355.249 121.169C351.772 122.096 348.759 124.24 345.456 125.341C345.379 125.38 345.283 125.418 345.167 125.457C345.128 125.302 345.07 125.167 344.993 125.051C344.297 123.487 343.544 121.922 342.733 120.358C343.197 119.836 343.66 119.431 344.008 119.257C346.963 117.403 349.802 116.128 353.337 115.896C355.712 115.722 357.74 116.302 359.421 117.171Z" fill="#87756C"/>
<path d="M323.322 122.617C326.625 121.401 329.754 121.343 333.23 121.748C333.636 121.806 334.215 121.98 334.853 122.27C334.737 124.008 334.737 125.746 334.737 127.427C334.737 127.581 334.737 127.736 334.737 127.89C334.66 127.89 334.563 127.89 334.447 127.89C330.97 128.296 327.32 127.601 323.843 128.238C322.337 128.528 321.12 128.933 319.903 129.455C319.401 128.45 318.899 127.427 318.397 126.384C319.498 124.877 321.12 123.487 323.322 122.617Z" fill="#87756C"/>
<path d="M337.692 140.175C339.198 143.825 343.776 142.666 345.109 139.653L337.692 140.175Z" fill="#E5804E"/>
<path d="M321.41 115.143C321.41 115.143 321.506 115.085 321.699 114.969C321.815 114.891 321.95 114.814 322.105 114.737C322.259 114.621 322.433 114.524 322.626 114.447C322.704 114.37 322.8 114.312 322.916 114.273C323.032 114.196 323.148 114.138 323.264 114.1C323.496 113.984 323.785 113.81 324.075 113.752C324.655 113.462 325.292 113.23 326.045 112.999C326.238 112.96 326.431 112.902 326.625 112.825C326.818 112.786 327.011 112.748 327.204 112.709C327.61 112.593 328.073 112.535 328.479 112.477C329.367 112.323 330.294 112.207 331.26 112.129C332.187 112.014 333.172 111.898 334.157 111.782C334.679 111.724 335.142 111.608 335.664 111.55C336.185 111.434 336.649 111.318 337.17 111.202C338.097 110.913 339.083 110.507 340.01 110.101C340.879 109.696 341.806 109.29 342.733 108.943C343.602 108.595 344.529 108.305 345.398 108.131C346.268 107.958 347.079 107.9 347.832 107.9C349.397 107.842 350.671 107.958 351.598 108.015C352.468 108.131 352.989 108.131 352.989 108.131C352.989 108.131 352.468 108.131 351.598 108.073C350.671 108.073 349.396 108.015 347.89 108.073C347.079 108.131 346.268 108.189 345.398 108.363C344.549 108.556 343.679 108.827 342.791 109.174C341.053 109.87 339.256 110.913 337.228 111.492C336.765 111.608 336.243 111.724 335.722 111.84C335.22 111.917 334.717 111.994 334.215 112.072C333.23 112.187 332.245 112.303 331.26 112.361C330.333 112.477 329.406 112.535 328.537 112.709C328.073 112.767 327.668 112.825 327.262 112.883C327.069 112.96 326.876 113.018 326.683 113.057C326.489 113.095 326.296 113.134 326.103 113.172C325.755 113.288 325.408 113.404 325.06 113.52C324.712 113.578 324.423 113.752 324.133 113.81C323.843 113.926 323.554 114.042 323.322 114.158C323.206 114.235 323.09 114.293 322.974 114.331C322.858 114.37 322.742 114.428 322.626 114.505C322.433 114.582 322.259 114.66 322.105 114.737C321.95 114.814 321.835 114.891 321.757 114.969C321.526 115.085 321.41 115.143 321.41 115.143Z" fill="#E5804E"/>
<path d="M324.191 117.403C324.365 117.287 324.597 117.114 324.944 116.94C325.137 116.824 325.331 116.727 325.524 116.65C325.755 116.534 325.987 116.418 326.277 116.302C326.74 116.071 327.32 115.897 327.957 115.665C328.15 115.626 328.324 115.588 328.479 115.549C328.633 115.51 328.807 115.472 329 115.433C329.348 115.317 329.754 115.259 330.101 115.201C330.874 115.086 331.685 114.989 332.535 114.912C333.346 114.796 334.215 114.738 335.084 114.564C335.954 114.448 336.823 114.332 337.692 114.043C338.503 113.811 339.372 113.463 340.183 113.115C340.995 112.768 341.748 112.42 342.559 112.13C343.312 111.783 344.124 111.551 344.877 111.435C345.63 111.261 346.383 111.203 347.079 111.203C348.411 111.145 349.512 111.261 350.324 111.319C351.077 111.377 351.54 111.435 351.54 111.435C351.54 111.435 351.077 111.435 350.324 111.377C349.512 111.377 348.411 111.319 347.079 111.377C346.383 111.435 345.688 111.493 344.935 111.667C344.201 111.821 343.448 112.053 342.675 112.362C341.111 113 339.546 113.869 337.75 114.39C336.881 114.622 336.011 114.796 335.142 114.912C334.273 115.028 333.404 115.086 332.535 115.143C331.724 115.259 330.912 115.317 330.159 115.433C329.754 115.491 329.406 115.549 329.058 115.607C328.865 115.646 328.691 115.684 328.537 115.723C328.344 115.762 328.17 115.8 328.015 115.839C327.397 116.032 326.818 116.225 326.277 116.418C326.045 116.495 325.813 116.592 325.582 116.708C325.35 116.785 325.157 116.882 325.002 116.998C324.809 117.075 324.655 117.152 324.539 117.229C324.423 117.307 324.307 117.365 324.191 117.403Z" fill="#E5804E"/>
<path d="M327.262 119.779C327.416 119.663 327.629 119.527 327.899 119.373C328.054 119.296 328.208 119.218 328.363 119.141C328.556 119.064 328.749 118.987 328.942 118.909C329.367 118.716 329.831 118.542 330.333 118.388C330.603 118.311 330.893 118.233 331.202 118.156C331.473 118.079 331.762 118.021 332.071 117.982C332.689 117.866 333.346 117.77 334.041 117.693C335.374 117.577 336.823 117.461 338.213 117.055C338.909 116.881 339.604 116.592 340.241 116.302C340.879 116.012 341.516 115.723 342.211 115.433C342.849 115.201 343.486 115.027 344.066 114.911C344.722 114.795 345.321 114.737 345.862 114.737C346.963 114.68 347.89 114.795 348.527 114.853C349.165 114.911 349.512 114.911 349.512 114.911C349.512 114.911 349.165 114.911 348.527 114.911C347.89 114.911 346.963 114.853 345.862 114.911C345.34 114.911 344.761 115.027 344.124 115.143C343.544 115.259 342.926 115.452 342.269 115.723C341.053 116.244 339.72 116.939 338.329 117.345C337.634 117.577 336.881 117.693 336.185 117.751C335.451 117.866 334.737 117.944 334.041 117.982C333.404 118.04 332.709 118.098 332.129 118.214C331.82 118.253 331.511 118.291 331.202 118.33C330.932 118.407 330.661 118.484 330.391 118.562C329.889 118.678 329.425 118.813 329 118.967C328.768 119.045 328.575 119.122 328.421 119.199C328.228 119.276 328.073 119.354 327.957 119.431C327.648 119.585 327.416 119.701 327.262 119.779Z" fill="#E5804E"/>
<path d="M368.924 133.163C367.127 129.861 365.795 126.384 364.752 122.849C363.535 118.851 365.853 116.997 361.796 116.07C354.032 114.332 357.219 99.4981 350.729 98.5131C345.688 97.7598 336.475 104.829 329.116 107.205C324.075 108.885 314.92 110.681 310.864 107.205C310.864 107.205 306.112 100.947 306.75 92.0813C306.75 91.7337 306.808 91.4246 306.924 91.1542C308.256 86.8084 316.542 85.7075 320.367 84.9542C333.694 82.2309 339.604 82.4047 349.57 81.1879C357.335 80.2028 365.041 84.8384 369.967 91.2122C371.763 93.5299 373.211 96.0794 374.139 98.629C378.195 109.464 373.849 122.734 368.924 133.163Z" fill="#87756C"/>
<path d="M350.266 146.723C349.454 148.925 348.18 151.474 345.456 152.053C343.023 152.575 339.662 151.242 337.866 149.678L350.266 146.723Z" fill="#E5804E"/>
<path d="M359.884 142.435C357.509 148.519 349.918 150.084 344.182 148.867C336.301 154.082 332.361 153.155 330.565 152.981C331.666 151.3 331.55 148.925 332.767 147.186C334.389 144.753 337.576 144.289 339.952 143.362C339.952 143.362 348.469 140.755 351.946 141.45C354.785 142.087 357.161 143.884 359.884 142.435Z" fill="#87756C"/>
<path d="M368.924 133.163C367.127 129.86 365.795 126.383 364.752 122.849C363.535 118.85 365.853 116.996 361.796 116.069C354.032 114.331 357.219 99.4972 350.729 98.5122C345.688 97.7589 336.475 104.828 329.116 107.204C324.075 108.884 314.92 110.68 310.864 107.204C310.864 107.204 306.112 100.946 306.75 92.0804C306.75 91.7328 306.808 91.4237 306.924 91.1533C308.198 93.0655 310.284 94.8038 311.617 95.7309C316.484 98.9757 323.148 98.6281 328.595 97.4112C336.707 95.6729 344.587 90.8057 352.989 92.486C355.597 93.0075 358.262 94.8038 360.348 96.5421C362.028 97.9327 362.955 101.004 365.273 100.077C368.75 98.744 369.851 95.0935 369.967 91.2113C371.763 93.529 373.211 96.0785 374.139 98.6281C378.195 109.464 373.849 122.733 368.924 133.163Z" fill="#685851"/>
<path d="M367.127 130.207C366.954 127.947 367.127 124.992 367.127 124.992C367.359 119.893 371.357 115.374 373.849 117.749C376.283 120.125 376.862 125.108 376.456 128.295C375.993 131.424 374.023 137.103 370.72 136.697C367.881 136.291 367.301 132.583 367.127 130.207Z" fill="#FFB278"/>
<path d="M368.576 125.225C368.576 124.645 369.329 122.733 369.503 122.212C370.894 118.272 374.081 118.967 374.718 122.965C373.212 119.662 371.589 122.675 370.604 124.703C371.647 124.587 372.342 126.963 372.284 127.948C372.053 129.744 371.01 130.266 369.851 130.672V130.556C369.909 129.281 370.894 127.427 369.909 125.92C369.387 125.109 368.634 126.268 368.576 125.225Z" fill="#E5804E"/>
<path fill-rule="evenodd" clip-rule="evenodd" d="M337.576 136.233C337.982 137.797 337.808 139.478 337.17 140.81C336.533 142.259 335.432 143.186 334.099 143.534L327.436 145.098C327.127 145.176 326.837 145.214 326.567 145.214C326.296 145.214 326.045 145.195 325.813 145.156C323.612 144.866 321.642 142.838 321.004 140.115C320.656 138.493 320.772 136.87 321.41 135.48C321.487 135.325 321.564 135.19 321.641 135.074C322.279 133.915 323.264 133.162 324.423 132.814C324.423 132.814 324.442 132.814 324.481 132.814L325.234 132.64L331.144 131.25C331.376 131.172 331.608 131.134 331.84 131.134C331.917 131.134 331.975 131.134 332.013 131.134C332.207 131.134 332.4 131.134 332.593 131.134C333.462 131.25 334.215 131.597 334.969 132.119C335.007 132.119 335.046 132.138 335.084 132.177C335.084 132.215 335.104 132.235 335.142 132.235C335.336 132.389 335.529 132.563 335.722 132.756C335.992 133.065 336.263 133.394 336.533 133.741C336.997 134.437 337.344 135.306 337.576 136.233ZM335.432 134.147C335.393 134.07 335.336 133.992 335.258 133.915C335.181 133.799 335.084 133.683 334.969 133.567C334.775 133.374 334.602 133.22 334.447 133.104C334.022 132.756 333.559 132.505 333.056 132.351C332.979 132.351 332.883 132.331 332.767 132.293C332.535 132.254 332.303 132.235 332.071 132.235C331.84 132.235 331.627 132.254 331.434 132.293L328.073 133.104L325.524 133.683L324.77 133.857C324.693 133.896 324.616 133.934 324.539 133.973H324.423C323.554 134.263 322.858 134.958 322.395 135.943C322.318 136.136 322.24 136.349 322.163 136.581C321.815 137.566 321.815 138.724 322.105 139.883C322.511 141.738 323.785 143.302 325.176 143.881C325.64 144.036 326.084 144.113 326.509 144.113C326.741 144.113 326.953 144.094 327.146 144.055L333.81 142.433C334.853 142.201 335.664 141.448 336.185 140.347C336.707 139.246 336.823 137.855 336.475 136.465C336.301 135.595 335.896 134.784 335.432 134.147Z" fill="white"/>
<path fill-rule="evenodd" clip-rule="evenodd" d="M362.492 129.628C362.608 130.092 362.666 130.575 362.666 131.077C362.666 131.425 362.627 131.772 362.55 132.12C362.202 134.554 360.464 136.582 358.03 137.161L356.755 137.451L356.35 137.567L349.976 139.073C349.59 139.15 349.184 139.189 348.759 139.189C345.92 139.305 343.37 137.219 342.675 134.322C342.521 133.665 342.463 133.028 342.501 132.41C342.501 131.985 342.559 131.56 342.675 131.135C343.254 129.107 344.761 127.426 346.789 126.847C346.905 126.808 347.002 126.789 347.079 126.789L347.426 126.673L353.047 125.341L354.669 124.935L355.133 124.877C355.21 124.838 355.287 124.819 355.365 124.819C355.674 124.742 356.002 124.703 356.35 124.703C356.466 124.703 356.601 124.703 356.755 124.703C359.421 124.819 361.796 126.847 362.492 129.628ZM361.391 132.41C361.623 131.598 361.623 130.729 361.391 129.86C360.927 127.716 359.189 126.152 357.161 125.862C356.891 125.823 356.62 125.804 356.35 125.804C356.041 125.804 355.712 125.843 355.365 125.92L355.191 125.978L355.017 126.036L347.658 127.774L347.311 127.832C347.156 127.871 346.982 127.929 346.789 128.006C344.471 128.875 343.139 131.425 343.718 134.032C344.297 136.466 346.441 138.146 348.759 138.088C349.107 138.088 349.435 138.05 349.744 137.972L357.798 136.06C357.914 136.06 358.011 136.041 358.088 136.002L358.204 135.944C359.421 135.539 360.406 134.669 360.985 133.511C361.14 133.163 361.275 132.796 361.391 132.41Z" fill="white"/>
<path fill-rule="evenodd" clip-rule="evenodd" d="M343.428 131.771L342.675 132.583C342.598 132.505 342.54 132.447 342.501 132.409C341.516 131.482 340.242 131.076 339.025 131.366C337.866 131.598 336.939 132.467 336.533 133.742C336.494 133.819 336.456 133.896 336.417 133.973L336.301 134.437L335.78 134.321C335.625 134.282 335.509 134.224 335.432 134.147C335.355 134.109 335.297 134.031 335.258 133.915C335.258 133.915 335.258 133.896 335.258 133.857C335.142 133.568 335.316 133.336 335.374 133.22C335.413 133.22 335.432 133.201 335.432 133.162L335.548 133.22C335.587 133.066 335.645 132.911 335.722 132.756C336.359 131.482 337.46 130.613 338.793 130.265C340.126 129.975 341.516 130.265 342.675 131.134C342.946 131.327 343.197 131.54 343.428 131.771ZM336.243 133.394C336.185 133.278 336.07 133.278 336.07 133.278L336.012 133.336L336.243 133.394Z" fill="white"/>
<g style="mix-blend-mode:multiply" opacity="0.4">
<path d="M422.464 282.601C422.464 282.987 422.464 283.373 422.464 283.759C422.464 283.953 422.464 284.146 422.464 284.339C422.464 284.802 422.444 285.285 422.406 285.787C422.406 285.981 422.406 286.193 422.406 286.425C422.406 286.888 422.406 287.352 422.406 287.815C422.367 288.395 422.348 288.974 422.348 289.554C422.309 290.365 422.29 291.157 422.29 291.929C422.251 292.277 422.232 292.606 422.232 292.915C422.193 293.339 422.174 293.764 422.174 294.189C422.135 294.344 422.116 294.518 422.116 294.711C422.116 294.981 422.097 295.252 422.058 295.522C422.058 295.831 422.039 296.121 422 296.391C422 296.662 421.981 296.932 421.942 297.202C421.942 297.434 421.923 297.685 421.884 297.956C421.884 298.033 421.884 298.129 421.884 298.245C421.846 298.709 421.807 299.153 421.768 299.578C421.73 300.042 421.691 300.467 421.652 300.853C421.537 301.78 421.421 302.649 421.305 303.46C421.266 303.692 421.227 303.905 421.189 304.098C421.189 304.175 421.189 304.252 421.189 304.329C420.725 307.343 420.146 309.718 419.566 311.688C419.489 311.843 419.431 311.997 419.393 312.152C419.315 312.422 419.219 312.693 419.103 312.963C413.424 314.354 407.456 315.281 401.372 315.686C400.213 315.493 399.054 315.319 397.895 315.165C397.548 315.126 397.2 315.068 396.852 314.991C396.312 314.914 395.79 314.837 395.288 314.759C394.824 314.721 394.361 314.663 393.897 314.586C393.781 314.586 393.666 314.586 393.55 314.586C392.545 314.431 391.522 314.296 390.479 314.18C388.354 313.948 386.229 313.716 384.105 313.485C383.719 313.485 383.332 313.465 382.946 313.427C376.109 312.789 369.271 312.5 362.434 312.5C352.873 310.24 343.66 306.879 335.316 302.417C335.625 300.949 335.896 299.462 336.127 297.956C336.166 297.685 336.205 297.415 336.243 297.144C336.475 295.445 336.707 293.706 336.939 291.929C336.977 291.466 337.035 290.983 337.112 290.481C337.228 289.477 337.325 288.472 337.402 287.468C337.441 286.966 337.479 286.463 337.518 285.961C337.595 285.073 337.673 284.184 337.75 283.296C337.75 283.18 337.769 283.045 337.808 282.89C337.846 282.388 337.866 281.905 337.866 281.442C337.943 280.36 338.001 279.298 338.039 278.255C338.078 277.83 338.097 277.405 338.097 276.98C338.136 276.362 338.175 275.744 338.213 275.126C338.252 274.044 338.271 272.982 338.271 271.939C338.31 271.398 338.329 270.877 338.329 270.374C338.329 270.297 338.329 270.22 338.329 270.143C338.329 269.177 338.329 268.192 338.329 267.187C345.514 268.752 353.221 269.621 360.522 269.389C374.254 268.868 380.744 271.997 391.406 262.784C398.938 256.294 393.723 226.047 395.52 216.66C397.548 206.173 410.643 211.677 411.976 201.016C412.787 194.99 413.946 188.905 414.989 182.937C415.066 182.435 415.143 181.933 415.221 181.431C416.437 186.472 417.133 191.455 417.423 195.047C418.234 204.318 418.929 212.894 419.509 220.775C421.71 249.399 422.522 268.926 422.464 282.601Z" fill="#425B28"/>
</g>
<path d="M421.363 302.418C421.285 303.113 421.227 303.751 421.189 304.33C421.015 307.343 421.247 309.487 420.146 312.732C419.798 312.809 419.451 312.886 419.103 312.964C413.424 314.354 407.456 315.281 401.372 315.687C388.624 316.614 375.181 315.571 362.434 312.5C352.873 310.24 343.66 306.879 335.316 302.418C335.2 302.341 335.065 302.263 334.911 302.186L336.881 291.872C336.881 291.911 336.9 291.93 336.939 291.93C343.95 302.128 387.408 310.53 421.363 302.418Z" fill="#7A3920"/>
<path d="M353.047 306.299C352.873 307.748 351.598 308.733 350.15 308.559C348.701 308.443 347.716 307.111 347.89 305.72L348.585 299.694C348.759 298.245 350.034 297.26 351.482 297.434C352.873 297.55 353.916 298.883 353.742 300.273L353.047 306.299Z" fill="#4C2622"/>
<path d="M391.753 312.326C391.58 313.774 390.305 314.817 388.856 314.644C387.408 314.47 386.423 313.137 386.538 311.746L387.292 305.72C387.408 304.329 388.74 303.287 390.131 303.46C391.58 303.634 392.623 304.909 392.449 306.358L391.753 312.326Z" fill="#4C2622"/>
<path d="M424.55 293.725C413.482 307.516 391.348 315.57 376.688 320.785C374.138 316.729 377.325 311.166 374.544 307.284C384.395 302.359 402.473 283.18 404.327 275.299C406.471 266.144 404.675 254.382 404.211 244.879C403.806 235.955 402.241 223.845 399.228 215.27L428.895 215.907C428.895 222.86 432.198 224.193 432.604 231.957C433.589 252.296 434.458 281.383 424.55 293.725Z" fill="#FFB278"/>
<path d="M436.718 229.118C437.239 232.827 401.894 244.01 401.894 244.01C400.213 233.58 391.869 205.245 390.595 196.844C389.725 191.165 387.582 175.346 393.202 168.219C398.359 161.672 403.69 160.976 408.152 163.932C423.738 174.072 435.327 218.688 436.718 229.118Z" fill="#425B28"/>
<path d="M434.574 217.819C435.559 221.238 436.081 225.526 436.718 229.118C437.761 234.739 408.847 246.038 401.14 246.733L399.228 234.565C403.98 234.275 428.78 220.774 434.574 217.819Z" fill="#6B8E43"/>
<path d="M381.961 316.556C379.991 324.61 369.445 326.001 362.839 324.61C359.537 323.857 355.191 320.67 352.294 321.481C349.454 322.293 345.456 325.537 342.443 325.827C334.331 326.522 345.456 313.775 349.686 311.457C355.77 308.096 367.475 307.285 374.544 307.285L381.961 316.556Z" fill="#FFB278"/>
<path d="M359.71 313.427L356.002 321.249C353.163 323.741 338.909 335.388 343.254 324.958C345.804 318.758 352.236 310.182 359.71 313.427Z" fill="#FFB278"/>
<path d="M366.316 314.238L362.608 322.061C359.71 324.552 345.456 336.199 349.86 325.769C352.409 319.569 358.841 311.051 366.316 314.238Z" fill="#FFB278"/>
<path d="M374.544 313.832L370.836 321.654C367.996 324.146 353.684 335.793 358.088 325.363C360.638 319.163 367.069 310.645 374.544 313.832Z" fill="#FFB278"/>
</g>
<defs>
<clipPath id="clip0_505_958">
<rect width="512" height="512" fill="white"/>
</clipPath>
</defs>
</svg>
