<svg width="182" height="182" viewBox="0 0 182 182" fill="none" xmlns="http://www.w3.org/2000/svg">
<path d="M60.8 120.4H9.8C4.4 120.4 0 116 0 110.6V71.1C0 65.7 4.4 61.2 9.8 61.2H61.2V9.89999C61.2 4.39999 65.6 0 71.1 0H110.5C116 0 120.4 4.39999 120.4 9.89999V53C113.5 57 107.6 62.7 103.6 69.5C100.6 74.8 98.7 80.4 96.8 85.9C95.1 91.2 93.4 96.2 90.8 100.7C84.6 111.5 73.1 119 60.8 120.4V120.4Z" fill="url(#paint0_linear_413_12)"/>
<path d="M181.6 71.1002V110.6C181.6 116 177.2 120.4 171.8 120.4H120.4V171.8C120.4 177.3 116 181.7 110.5 181.7H71.1002C65.6002 181.7 61.2002 177.3 61.2002 171.8V127.4C75.8002 125.8 89.6002 117 96.9002 104.2C99.8002 99.1002 101.7 93.5002 103.5 88.2002C105.3 82.8002 107 77.7002 109.7 73.1002C112.4 68.4002 116.1 64.4002 120.5 61.2002H171.8C177.2 61.2002 181.6 65.7002 181.6 71.1002V71.1002Z" fill="url(#paint1_linear_413_12)"/>
<path d="M119.622 7.44638C118.545 3.45219 114.927 0.5 110.5 0.5H71.1C65.8761 0.5 61.7 4.67614 61.7 9.89999V61.2V61.7H61.2H9.8C4.68271 61.7 0.5 65.9695 0.5 71.1V110.6C0.5 111.626 0.653413 112.65 0.957716 113.601C23.7888 113.587 46.5766 102.773 60.6058 84.7924L60.6067 84.7913C66.4093 77.3976 70.7172 69.0315 75.2956 60.1401C75.5807 59.5863 75.8669 59.0305 76.1546 58.4727C76.155 58.4721 76.1553 58.4714 76.1556 58.4708L76.6 58.7L119.622 7.44638ZM119.622 7.44638C109.604 12.9568 100.673 20.3341 93.6083 29.2892L119.622 7.44638Z" fill="white" stroke="#0051C6"/>
<defs>
<linearGradient id="paint0_linear_413_12" x1="60" y1="-58.8" x2="177.2" y2="58.4" gradientUnits="userSpaceOnUse">
<stop stop-color="white"/>
<stop offset="0.0001" stop-color="white"/>
<stop offset="0.8" stop-color="white"/>
</linearGradient>
<linearGradient id="paint1_linear_413_12" x1="157.5" y1="38.7002" x2="237.5" y2="118.7" gradientUnits="userSpaceOnUse">
<stop stop-color="white"/>
<stop offset="0.8" stop-color="white"/>
</linearGradient>
</defs>
</svg>
